{"glyphs":{"0":{"ha":789,"x_min":147,"x_max":856,"o":"m 410 125 q 492 151 454 125 q 563 222 531 178 q 619 322 594 265 q 660 440 643 379 q 685 562 676 501 q 694 675 694 622 q 671 801 694 763 q 593 840 647 840 q 510 814 549 840 q 440 743 471 788 q 384 642 408 699 q 342 524 360 585 q 317 401 325 463 q 308 289 308 340 q 332 163 308 201 q 410 125 356 125 m 386 -21 q 277 1 322 -21 q 203 60 232 22 q 160 151 174 99 q 147 267 147 204 q 178 526 147 397 q 269 756 210 654 q 417 922 329 858 q 615 985 504 985 q 724 963 679 985 q 799 903 769 942 q 842 813 828 865 q 856 697 856 760 q 824 438 856 567 q 733 208 793 310 q 585 42 672 106 q 386 -21 499 -21 z "},"1":{"ha":789,"x_min":296,"x_max":767,"o":"m 296 763 q 476 844 383 794 q 647 963 569 894 l 767 963 l 535 0 l 367 0 l 543 732 q 438 676 499 703 q 319 629 378 649 l 296 763 z "},"2":{"ha":789,"x_min":97,"x_max":843,"o":"m 588 985 q 697 966 649 985 q 777 917 744 947 q 826 845 810 886 q 843 761 843 804 q 826 649 843 699 q 775 558 808 600 q 693 474 742 515 q 583 386 644 433 q 508 330 547 358 q 434 272 469 301 q 368 209 399 242 q 317 140 338 176 l 732 140 l 699 0 l 97 0 q 139 142 110 81 q 210 255 168 204 q 306 349 253 306 q 417 438 358 393 q 522 519 475 482 q 603 590 569 556 q 654 660 636 625 q 672 735 672 694 q 643 810 672 781 q 560 839 614 839 q 435 810 492 839 q 335 744 379 781 l 278 871 q 418 953 339 922 q 588 985 497 985 z "},"3":{"ha":789,"x_min":88,"x_max":825,"o":"m 632 511 q 722 433 685 488 q 760 303 760 379 q 735 179 760 238 q 660 76 710 121 q 533 6 610 32 q 353 -21 457 -21 q 197 -1 265 -21 q 88 40 128 18 l 149 178 q 233 139 179 158 q 361 119 288 119 q 451 131 408 119 q 524 165 493 142 q 574 222 556 188 q 592 306 592 257 q 538 408 592 375 q 393 442 485 442 l 338 442 l 369 576 l 439 576 q 517 585 478 576 q 586 613 556 594 q 636 662 617 632 q 656 735 656 692 q 621 815 656 788 q 526 842 586 842 q 424 824 475 842 q 329 782 374 807 l 288 910 q 410 963 340 942 q 554 985 479 985 q 674 966 624 985 q 758 916 725 947 q 808 844 792 885 q 825 758 825 803 q 774 611 825 676 q 632 511 724 546 z "},"4":{"ha":789,"x_min":106,"x_max":864,"o":"m 656 760 q 566 676 613 722 q 473 578 519 629 q 383 473 426 526 q 303 367 339 419 l 561 367 l 656 760 m 864 963 l 721 367 l 828 367 l 794 231 l 688 231 l 632 0 l 471 0 l 525 231 l 106 231 l 133 350 q 238 494 175 414 q 377 657 301 574 q 536 820 453 740 q 700 963 619 900 l 864 963 z "},"5":{"ha":789,"x_min":96,"x_max":890,"o":"m 158 178 q 244 141 193 158 q 360 124 296 124 q 533 170 468 124 q 597 307 597 217 q 571 388 597 356 q 499 438 544 419 q 390 465 453 457 q 253 475 326 474 q 337 724 297 604 q 408 963 376 843 l 890 963 l 857 822 l 518 822 q 500 765 510 796 q 481 703 490 733 q 462 644 471 672 q 446 597 453 617 q 686 507 607 579 q 765 321 765 435 q 740 183 765 246 q 665 76 715 121 q 538 5 614 31 q 358 -21 461 -21 q 283 -15 321 -21 q 209 -1 244 -10 q 144 17 174 7 q 96 39 115 28 l 158 178 z "},"6":{"ha":789,"x_min":160,"x_max":892,"o":"m 643 342 q 609 438 643 408 q 513 468 575 468 q 346 432 426 468 q 328 360 335 396 q 322 292 322 324 q 353 167 322 215 q 456 118 385 118 q 534 136 499 118 q 593 185 569 154 q 630 256 617 215 q 643 342 643 296 m 871 832 q 560 761 685 829 q 379 558 436 693 q 465 588 417 576 q 563 600 514 600 q 742 534 678 600 q 806 356 806 468 q 781 208 806 276 q 708 88 756 139 q 592 8 660 38 q 439 -21 524 -21 q 325 0 376 -21 q 237 60 274 21 q 180 157 200 100 q 160 288 160 214 q 206 544 160 421 q 339 763 251 668 q 556 913 426 857 q 854 969 685 969 q 871 969 861 969 q 892 968 881 969 l 871 832 z "},"7":{"ha":789,"x_min":197,"x_max":925,"o":"m 197 0 q 281 224 226 107 q 404 451 336 340 q 547 657 472 561 q 689 818 621 753 l 251 818 l 286 963 l 925 963 l 894 832 q 810 749 857 800 q 713 635 764 699 q 612 496 663 571 q 516 340 561 421 q 433 172 471 258 q 371 0 394 86 l 197 0 z "},"8":{"ha":789,"x_min":132,"x_max":861,"o":"m 132 207 q 186 372 132 299 q 349 507 240 446 q 288 581 310 539 q 267 679 267 624 q 288 792 267 738 q 353 890 310 847 q 458 959 396 933 q 604 985 521 985 q 713 967 665 985 q 794 919 761 950 q 844 849 826 889 q 861 763 861 808 q 817 612 861 683 q 663 486 772 540 q 744 406 711 453 q 776 283 776 360 q 753 167 776 222 q 683 69 729 111 q 567 3 636 28 q 407 -21 499 -21 q 296 -5 346 -21 q 209 40 246 11 q 152 112 172 69 q 132 207 132 154 m 613 275 q 570 374 613 336 q 460 440 528 411 q 336 347 378 404 q 294 231 294 290 q 326 147 294 178 q 425 115 358 115 q 497 127 463 115 q 556 160 531 139 q 597 210 582 181 q 613 275 613 239 m 425 692 q 456 606 425 640 q 546 547 488 572 q 661 631 621 583 q 701 740 701 679 q 674 817 701 785 q 583 849 647 849 q 519 837 549 849 q 469 803 490 825 q 437 753 449 782 q 425 692 425 725 z "},"9":{"ha":789,"x_min":114,"x_max":850,"o":"m 367 624 q 401 528 367 557 q 499 499 436 499 q 665 535 582 499 q 682 606 676 569 q 688 679 688 643 q 656 798 688 750 q 554 846 624 846 q 475 828 510 846 q 417 780 440 810 q 380 710 393 750 q 367 624 367 669 m 138 132 q 181 131 157 131 q 215 133 204 132 q 479 215 379 149 q 632 408 579 282 q 542 377 592 388 q 447 367 492 367 q 268 433 332 367 q 204 610 204 499 q 230 758 204 689 q 303 877 256 826 q 417 956 350 928 q 567 985 483 985 q 773 904 696 985 q 850 676 850 824 q 806 417 850 540 q 674 201 761 294 q 458 51 588 107 q 160 -4 329 -4 q 140 -4 150 -4 q 114 -3 129 -4 l 138 132 z "},"\u0000":{"ha":0,"x_min":0,"x_max":0,"o":""},"\b":{"ha":0,"x_min":0,"x_max":0,"o":""},"\u001d":{"ha":0,"x_min":0,"x_max":0,"o":""},"\t":{"ha":329,"x_min":0,"x_max":0,"o":""},"\r":{"ha":329,"x_min":0,"x_max":0,"o":""}," ":{"ha":329,"x_min":0,"x_max":0,"o":""},"!":{"ha":381,"x_min":103,"x_max":507,"o":"m 446 707 q 420 609 435 661 q 389 503 406 557 q 354 397 372 449 q 319 303 336 346 l 201 303 q 226 497 213 400 q 268 707 240 593 l 329 963 l 507 963 l 446 707 m 221 203 q 293 178 265 203 q 321 104 321 153 q 310 53 321 76 q 283 15 300 31 q 245 -10 267 -1 q 201 -18 224 -18 q 130 6 157 -18 q 103 79 103 31 q 139 170 103 138 q 221 203 175 203 z "},"\"":{"ha":632,"x_min":264,"x_max":764,"o":"m 764 1056 l 743 969 q 699 824 726 903 q 640 671 672 746 l 533 671 q 539 741 535 703 q 548 819 543 779 q 560 897 553 858 q 575 971 567 936 l 596 1056 l 764 1056 m 494 1056 l 474 969 q 430 824 457 903 q 371 671 403 746 l 264 671 q 269 741 265 703 q 278 819 274 779 q 290 897 283 858 q 306 971 297 936 l 326 1056 l 494 1056 z "},"#":{"ha":911,"x_min":122,"x_max":1017,"o":"m 563 244 l 378 244 l 274 0 l 126 0 l 229 244 l 122 244 l 154 376 l 285 376 l 374 586 l 204 586 l 236 717 l 429 717 l 533 963 l 681 963 l 576 717 l 763 717 l 867 963 l 1014 963 l 910 717 l 1017 717 l 985 586 l 856 586 l 765 376 l 935 376 l 903 244 l 711 244 l 607 0 l 460 0 l 563 244 m 432 376 l 618 376 l 708 586 l 522 586 l 432 376 z "},"$":{"ha":789,"x_min":114,"x_max":858,"o":"m 396 156 q 465 161 431 156 q 528 181 500 167 q 573 219 556 194 q 590 285 590 244 q 551 365 590 335 q 451 422 511 394 q 317 520 368 463 q 265 667 265 578 q 282 758 265 714 q 333 835 299 801 q 419 892 368 869 q 540 924 471 915 l 578 1078 l 722 1078 l 683 924 q 785 897 740 915 q 858 860 831 878 l 788 739 q 709 776 757 761 q 603 790 661 790 q 537 783 568 790 q 483 763 506 776 q 446 728 460 750 q 432 678 432 707 q 439 635 432 653 q 462 603 446 618 q 502 573 478 588 q 561 540 526 558 q 636 499 600 521 q 699 449 672 478 q 742 384 726 421 q 758 297 758 347 q 738 186 758 235 q 678 103 717 138 q 587 49 640 69 q 468 21 533 28 l 426 -151 l 283 -151 l 325 24 q 256 35 289 28 q 196 53 224 43 q 147 74 168 64 q 114 93 126 85 l 186 219 q 222 199 200 210 q 270 178 243 188 q 329 162 297 168 q 396 156 361 156 z "},"%":{"ha":1218,"x_min":215,"x_max":1219,"o":"m 418 571 q 474 588 449 571 q 518 635 500 606 q 546 701 536 664 q 556 779 556 739 q 538 847 556 822 q 482 872 521 872 q 425 854 450 872 q 381 807 400 836 q 353 740 363 778 q 343 663 343 701 q 361 596 343 621 q 418 571 379 571 m 1018 963 l 1185 963 l 415 0 l 250 0 l 1018 963 m 490 983 q 631 935 578 983 q 683 788 683 886 q 663 658 683 718 q 604 554 642 599 q 516 484 567 510 q 407 458 465 458 q 267 508 319 458 q 215 656 215 557 q 236 784 215 724 q 294 888 257 844 q 382 958 332 932 q 490 983 432 983 m 954 90 q 1010 108 985 90 q 1054 154 1036 125 q 1082 221 1072 183 q 1092 299 1092 258 q 1074 367 1092 342 q 1018 392 1057 392 q 961 374 986 392 q 917 326 936 356 q 889 259 899 297 q 879 182 879 221 q 897 115 879 140 q 954 90 915 90 m 1026 503 q 1167 454 1114 503 q 1219 307 1219 406 q 1199 178 1219 238 q 1140 74 1178 118 q 1052 3 1103 29 q 943 -22 1001 -22 q 803 27 856 -22 q 751 175 751 76 q 772 303 751 243 q 831 408 793 364 q 918 477 868 451 q 1026 503 968 503 z "},"&":{"ha":906,"x_min":104,"x_max":943,"o":"m 378 -12 q 274 1 324 -12 q 186 42 224 14 q 126 113 149 69 q 104 218 104 157 q 122 323 104 276 q 174 407 140 369 q 255 476 207 444 q 363 536 303 507 q 322 622 336 578 q 307 715 307 667 q 328 824 307 775 q 390 909 350 874 q 485 965 429 944 q 611 985 542 985 q 770 932 711 985 q 829 794 829 879 q 778 646 829 715 q 635 529 728 576 q 603 513 619 521 q 572 499 588 506 l 711 308 q 758 386 736 344 q 796 476 779 428 l 943 458 q 881 323 918 390 q 796 196 844 256 q 861 97 832 146 q 910 0 890 47 l 739 0 q 716 44 729 21 q 688 90 703 67 q 546 15 622 42 q 378 -12 469 -12 m 396 121 q 503 139 447 121 q 610 199 558 157 l 433 438 q 316 359 363 408 q 269 242 269 310 q 299 156 269 190 q 396 121 329 121 m 460 717 q 472 658 460 689 q 503 594 483 628 q 573 630 540 611 q 630 670 606 649 q 668 718 654 692 q 682 778 682 744 q 660 837 682 814 q 593 860 638 860 q 543 851 567 860 q 501 824 519 842 q 471 780 482 807 q 460 717 460 753 z "},"'":{"ha":360,"x_min":269,"x_max":500,"o":"m 500 1056 l 479 969 q 435 824 463 903 q 376 671 408 746 l 269 671 q 275 741 271 703 q 284 819 279 779 q 296 897 289 858 q 311 971 303 936 l 332 1056 l 500 1056 z "},"(":{"ha":458,"x_min":171,"x_max":704,"o":"m 704 1010 q 553 827 621 924 q 436 626 485 731 q 361 413 388 522 q 335 190 335 303 q 351 -2 335 89 q 406 -181 368 -93 l 281 -254 q 199 -49 226 -160 q 171 179 171 61 q 200 431 171 307 q 284 669 229 554 q 417 890 339 785 q 594 1088 496 996 l 704 1010 z "},")":{"ha":458,"x_min":-74,"x_max":460,"o":"m -74 -179 q 78 3 10 -93 q 194 204 146 100 q 269 418 243 308 q 296 640 296 528 q 279 833 296 742 q 225 1011 263 924 l 350 1085 q 432 880 404 990 q 460 651 460 769 q 431 400 460 524 q 347 160 401 276 q 213 -60 292 44 q 36 -257 135 -165 l -74 -179 z "},"*":{"ha":654,"x_min":194,"x_max":769,"o":"m 519 736 q 608 792 560 763 q 701 836 656 821 l 722 843 l 769 699 l 747 692 q 644 672 700 676 q 540 667 589 668 q 626 596 585 635 q 699 518 668 557 l 708 506 l 583 418 l 571 436 q 521 528 543 476 q 482 624 499 579 q 462 575 472 601 q 440 523 451 549 q 415 472 428 497 q 388 429 401 447 l 379 418 l 256 506 l 269 525 q 341 601 299 565 q 422 667 383 636 q 322 672 374 668 q 217 692 269 675 l 194 699 l 242 843 l 254 839 q 351 794 300 824 q 444 736 403 764 q 418 837 431 783 q 406 939 406 890 l 406 963 l 558 963 l 558 939 q 546 837 558 890 q 519 736 533 783 z "},"+":{"ha":789,"x_min":149,"x_max":821,"o":"m 183 468 l 425 468 l 490 740 l 644 740 l 579 468 l 821 468 l 786 326 l 544 326 l 479 54 l 326 54 l 390 326 l 149 326 l 183 468 z "},",":{"ha":372,"x_min":0,"x_max":310,"o":"m 310 185 q 247 -31 301 74 q 119 -224 193 -136 l 0 -186 q 90 -4 54 -101 q 133 185 126 93 l 310 185 z "},"-":{"ha":443,"x_min":115,"x_max":521,"o":"m 151 474 l 521 474 l 485 319 l 115 319 l 151 474 z "},".":{"ha":368,"x_min":90,"x_max":308,"o":"m 208 203 q 281 178 253 203 q 308 104 308 153 q 298 53 308 76 q 271 15 288 31 q 233 -10 254 -1 q 189 -18 211 -18 q 117 6 144 -18 q 90 79 90 31 q 126 170 90 138 q 208 203 163 203 z "},"/":{"ha":554,"x_min":-96,"x_max":850,"o":"m 74 -257 l -96 -257 l 681 1088 l 850 1088 l 74 -257 z "},":":{"ha":354,"x_min":90,"x_max":426,"o":"m 208 203 q 281 178 253 203 q 308 104 308 153 q 298 53 308 76 q 271 15 288 31 q 233 -10 254 -1 q 189 -18 211 -18 q 117 6 144 -18 q 90 79 90 31 q 126 170 90 138 q 208 203 163 203 m 326 726 q 399 701 371 726 q 426 628 426 676 q 416 577 426 600 q 389 538 406 554 q 351 514 372 522 q 307 506 329 506 q 235 530 263 506 q 208 603 208 554 q 244 694 208 661 q 326 726 281 726 z "},";":{"ha":354,"x_min":0,"x_max":428,"o":"m 310 185 q 247 -31 301 74 q 119 -224 193 -136 l 0 -186 q 90 -4 54 -101 q 133 185 126 93 l 310 185 m 328 726 q 400 701 372 726 q 428 628 428 676 q 417 577 428 600 q 390 538 407 554 q 352 514 374 522 q 308 506 331 506 q 237 530 264 506 q 210 603 210 554 q 246 694 210 661 q 328 726 282 726 z "},"<":{"ha":789,"x_min":147,"x_max":844,"o":"m 179 468 l 833 721 l 844 578 l 339 393 l 753 201 l 679 74 l 147 332 l 179 468 z "},"=":{"ha":789,"x_min":117,"x_max":861,"o":"m 150 318 l 789 318 l 754 176 l 117 176 l 150 318 m 222 618 l 861 618 l 826 476 l 189 476 l 222 618 z "},">":{"ha":789,"x_min":113,"x_max":810,"o":"m 778 326 l 124 74 l 113 217 l 618 401 l 204 593 l 278 721 l 810 463 l 778 326 z "},"?":{"ha":567,"x_min":160,"x_max":715,"o":"m 399 572 q 451 614 425 593 q 499 658 478 635 q 534 706 521 681 q 547 763 547 732 q 519 824 547 804 q 443 844 492 844 q 335 828 385 844 q 254 794 285 811 l 233 926 q 342 968 278 951 q 472 985 406 985 q 651 931 588 985 q 715 785 715 876 q 690 674 715 721 q 627 588 665 626 q 545 519 589 550 q 463 455 501 488 q 399 386 425 422 q 371 303 372 350 l 224 303 q 238 387 225 350 q 274 454 251 424 q 329 513 297 485 q 399 572 361 542 m 278 203 q 350 178 322 203 q 378 104 378 153 q 367 53 378 76 q 340 15 357 31 q 302 -10 324 -1 q 258 -18 281 -18 q 187 6 214 -18 q 160 79 160 31 q 196 170 160 138 q 278 203 232 203 z "},"@":{"ha":1308,"x_min":150,"x_max":1349,"o":"m 872 -193 q 767 -212 831 -204 q 644 -221 704 -221 q 442 -190 533 -221 q 286 -99 351 -158 q 185 45 221 -40 q 150 240 150 131 q 204 538 150 400 q 355 776 258 675 q 583 933 451 876 q 869 990 715 990 q 1061 963 974 990 q 1213 878 1149 935 q 1313 739 1276 822 q 1349 543 1349 656 q 1340 433 1349 490 q 1314 322 1332 376 q 1266 217 1296 267 q 1194 130 1236 167 q 1097 71 1153 93 q 968 49 1040 49 q 846 100 885 49 q 760 64 806 76 q 665 51 715 51 q 497 117 558 51 q 435 301 435 183 q 462 449 435 375 q 542 581 489 522 q 674 676 596 639 q 851 713 751 713 q 982 699 928 713 q 1069 672 1036 686 l 969 256 q 965 239 967 247 q 964 224 964 231 q 1014 181 964 181 q 1097 210 1061 181 q 1158 290 1133 240 q 1197 401 1183 339 q 1210 531 1210 464 q 1118 782 1210 694 q 851 869 1026 869 q 639 824 740 869 q 460 697 538 779 q 336 501 382 615 q 290 249 290 388 q 319 87 290 153 q 399 -20 349 21 q 519 -80 450 -61 q 669 -99 589 -99 q 792 -90 735 -99 q 881 -74 849 -81 l 872 -193 m 811 207 q 814 240 811 224 q 821 272 817 256 l 894 578 q 825 585 871 585 q 723 561 767 585 q 649 499 679 538 q 604 413 619 461 q 589 315 589 364 q 699 179 589 179 q 811 207 756 179 z "},"A":{"ha":911,"x_min":10,"x_max":910,"o":"m 733 0 q 724 116 729 58 q 714 228 719 174 l 324 228 q 260 117 292 174 q 197 0 229 61 l 10 0 q 172 278 94 147 q 322 526 249 408 q 466 752 394 644 q 610 963 538 860 l 772 963 q 849 510 817 756 q 910 0 881 265 l 733 0 m 653 779 q 535 595 600 697 q 399 367 471 493 l 700 367 q 680 569 692 465 q 653 779 668 672 z "},"B":{"ha":881,"x_min":113,"x_max":947,"o":"m 401 -11 q 252 -5 331 -11 q 113 15 174 1 l 336 947 q 468 967 399 961 q 608 972 538 972 q 727 964 667 972 q 836 931 788 956 q 916 865 885 907 q 947 756 947 822 q 906 617 947 682 q 768 511 865 551 q 863 439 829 486 q 896 329 896 392 q 769 78 896 167 q 401 -11 642 -11 m 386 435 l 315 139 q 367 134 335 136 q 438 132 399 132 q 533 139 483 132 q 624 165 583 146 q 691 221 664 185 q 718 314 718 257 q 678 401 718 367 q 544 435 638 435 l 386 435 m 419 569 l 553 569 q 636 578 596 569 q 706 605 676 586 q 754 651 736 624 q 772 719 772 679 q 724 807 772 783 q 596 831 676 831 q 532 828 564 831 q 481 824 500 826 l 419 569 z "},"C":{"ha":842,"x_min":168,"x_max":1003,"o":"m 833 42 q 717 -1 788 18 q 544 -21 646 -21 q 386 6 456 -21 q 268 85 317 33 q 194 208 219 136 q 168 371 168 281 q 207 598 168 488 q 319 794 246 708 q 499 933 393 881 q 738 985 604 985 q 890 965 825 985 q 1003 918 954 946 l 936 778 q 841 819 892 804 q 726 833 790 833 q 569 794 639 833 q 451 692 500 756 q 376 549 401 629 q 350 385 350 468 q 406 194 350 256 q 571 132 463 132 q 713 151 654 132 q 813 189 771 169 l 833 42 z "},"D":{"ha":975,"x_min":113,"x_max":1032,"o":"m 318 143 q 353 140 333 140 q 417 139 374 139 q 597 171 517 139 q 734 262 678 203 q 821 403 790 321 q 851 588 851 486 q 789 761 851 697 q 585 825 726 825 q 527 824 549 825 q 481 819 506 822 l 318 143 m 1032 593 q 990 353 1032 464 q 867 161 949 242 q 662 35 785 81 q 376 -11 539 -11 q 246 -5 318 -11 q 113 15 174 1 l 336 947 q 474 967 404 963 q 601 972 543 972 q 788 945 707 972 q 922 869 868 918 q 1004 749 976 819 q 1032 593 1032 679 z "},"E":{"ha":794,"x_min":108,"x_max":936,"o":"m 108 0 l 339 963 l 936 963 l 901 817 l 478 817 l 421 575 l 796 575 l 761 432 l 388 432 l 318 146 l 774 146 l 739 0 l 108 0 z "},"F":{"ha":750,"x_min":108,"x_max":932,"o":"m 108 0 l 339 963 l 932 963 l 897 817 l 478 817 l 418 567 l 789 567 l 754 422 l 385 422 l 283 0 l 108 0 z "},"G":{"ha":910,"x_min":168,"x_max":1022,"o":"m 572 131 q 644 135 613 131 q 694 144 676 139 l 776 489 l 950 489 l 839 28 q 726 -4 803 11 q 544 -19 649 -19 q 382 8 453 -19 q 264 85 311 35 q 192 208 217 136 q 168 371 168 281 q 207 598 168 488 q 320 794 246 708 q 502 933 394 881 q 746 985 610 985 q 912 961 843 985 q 1022 910 981 938 l 954 771 q 863 814 918 794 q 736 833 807 833 q 573 794 644 833 q 451 692 501 756 q 376 549 401 629 q 350 385 350 468 q 572 131 350 131 z "},"H":{"ha":967,"x_min":108,"x_max":1083,"o":"m 908 963 l 1083 963 l 853 0 l 678 0 l 781 428 l 386 428 l 283 0 l 108 0 l 339 963 l 514 963 l 421 576 l 815 576 l 908 963 z "},"I":{"ha":397,"x_min":108,"x_max":514,"o":"m 339 963 l 514 963 l 283 0 l 108 0 l 339 963 z "},"J":{"ha":688,"x_min":29,"x_max":810,"o":"m 651 300 q 610 172 635 231 q 544 70 586 113 q 440 3 503 28 q 281 -21 376 -21 q 131 6 196 -21 q 29 65 65 33 l 110 197 q 179 152 138 174 q 283 131 221 131 q 358 141 326 131 q 413 175 390 151 q 453 236 436 199 q 482 328 469 274 l 633 963 l 810 963 l 651 300 z "},"K":{"ha":881,"x_min":108,"x_max":1074,"o":"m 686 0 q 624 116 658 56 q 552 234 590 176 q 472 343 514 292 q 388 433 429 394 l 283 0 l 108 0 l 339 963 l 514 963 l 421 578 q 539 675 478 624 q 658 778 600 726 q 769 876 717 829 q 861 963 821 924 l 1074 963 q 952 851 1017 910 q 820 733 888 793 q 684 613 753 672 q 549 501 615 554 q 638 400 592 457 q 726 278 683 343 q 808 142 769 213 q 879 0 847 71 l 686 0 z "},"L":{"ha":744,"x_min":108,"x_max":744,"o":"m 744 147 l 710 0 l 108 0 l 339 963 l 514 963 l 318 147 l 744 147 z "},"M":{"ha":1197,"x_min":85,"x_max":1260,"o":"m 550 963 q 578 837 563 914 q 610 672 594 760 q 642 496 626 585 q 671 335 658 407 q 776 496 718 408 q 891 669 833 583 q 1002 833 949 756 q 1094 963 1056 910 l 1260 963 q 1233 738 1249 857 q 1198 493 1218 618 q 1156 242 1178 368 q 1111 0 1133 117 l 938 0 q 1007 345 974 168 q 1068 696 1040 522 q 1014 615 1044 663 q 949 516 983 568 q 878 408 914 464 q 808 301 842 353 q 744 204 774 249 q 694 128 715 160 l 560 128 q 540 249 553 174 q 513 406 528 324 q 483 567 497 489 q 457 697 468 646 q 351 345 400 524 q 257 0 301 167 l 85 0 q 156 247 118 119 q 233 501 193 375 q 311 744 272 626 q 386 963 350 863 l 550 963 z "},"N":{"ha":999,"x_min":108,"x_max":1114,"o":"m 743 0 q 683 174 717 81 q 610 360 649 267 q 531 541 572 453 q 449 703 490 629 l 281 0 l 108 0 l 339 963 l 479 963 q 560 819 518 900 q 643 651 603 739 q 721 474 683 563 q 786 306 758 385 l 940 963 l 1114 963 l 883 0 l 743 0 z "},"O":{"ha":1031,"x_min":168,"x_max":1088,"o":"m 701 833 q 558 794 622 833 q 447 690 493 754 q 376 545 401 626 q 350 381 350 464 q 399 199 350 267 q 554 131 447 131 q 699 170 633 131 q 810 274 764 210 q 881 419 856 338 q 907 583 907 500 q 858 765 907 697 q 701 833 808 833 m 536 -21 q 388 5 456 -21 q 272 79 321 31 q 195 200 222 128 q 168 365 168 272 q 204 588 168 476 q 310 787 240 699 q 483 930 381 875 q 719 985 586 985 q 868 959 800 985 q 985 885 936 933 q 1060 764 1033 836 q 1088 599 1088 692 q 1051 376 1088 488 q 946 177 1015 265 q 773 34 876 89 q 536 -21 669 -21 z "},"P":{"ha":840,"x_min":108,"x_max":951,"o":"m 593 972 q 859 904 767 972 q 951 710 951 836 q 913 540 951 610 q 808 425 875 469 q 647 360 740 381 q 440 340 553 340 l 365 340 l 283 0 l 108 0 l 335 949 q 468 967 401 963 q 593 972 535 972 m 576 825 q 526 824 550 825 q 479 819 503 822 l 400 488 l 471 488 q 583 497 529 488 q 679 530 638 507 q 746 592 721 553 q 771 693 771 632 q 719 794 771 764 q 576 825 667 825 z "},"Q":{"ha":1031,"x_min":168,"x_max":1088,"o":"m 825 -260 q 678 -239 744 -254 q 563 -197 611 -224 q 489 -128 515 -169 q 463 -28 463 -86 q 463 -24 463 -26 q 464 -14 463 -21 q 342 26 397 -4 q 249 103 288 56 q 190 217 211 151 q 168 365 168 283 q 204 588 168 476 q 310 787 240 699 q 483 930 381 875 q 719 985 586 985 q 868 959 800 985 q 985 885 936 933 q 1060 764 1033 836 q 1088 599 1088 692 q 1058 397 1088 497 q 970 211 1028 296 q 826 66 913 126 q 628 -12 740 6 q 626 -24 626 -17 q 647 -72 626 -53 q 703 -102 668 -90 q 785 -120 739 -114 q 881 -131 831 -126 l 825 -260 m 701 833 q 558 794 622 833 q 447 690 493 754 q 376 545 401 626 q 350 381 350 464 q 399 199 350 267 q 554 131 447 131 q 699 170 633 131 q 810 274 764 210 q 881 419 856 338 q 907 583 907 500 q 858 765 907 697 q 701 833 808 833 z "},"R":{"ha":867,"x_min":108,"x_max":947,"o":"m 596 972 q 858 901 768 972 q 947 711 947 829 q 933 610 947 658 q 887 522 918 563 q 806 449 856 481 q 688 396 757 417 q 726 319 706 364 q 769 222 747 274 q 813 113 792 169 q 850 0 833 56 l 665 0 q 631 101 649 50 q 593 201 613 153 q 553 291 574 249 q 514 367 533 333 q 483 365 501 365 q 451 365 465 365 l 371 365 l 283 0 l 108 0 l 335 949 q 470 967 401 963 q 596 972 539 972 m 769 692 q 714 797 769 768 q 565 825 658 825 q 524 824 546 825 q 479 819 501 822 l 404 506 l 482 506 q 597 516 544 506 q 688 549 650 526 q 748 606 726 571 q 769 692 769 642 z "},"S":{"ha":732,"x_min":50,"x_max":850,"o":"m 354 128 q 428 135 392 128 q 495 158 465 142 q 543 203 525 175 q 561 275 561 232 q 547 330 561 307 q 510 371 533 353 q 456 405 486 389 q 393 439 426 421 q 324 480 357 457 q 267 532 292 503 q 227 600 242 561 q 213 692 213 639 q 237 809 213 756 q 309 901 261 863 q 427 963 357 940 q 590 985 497 985 q 673 978 633 985 q 747 960 713 971 q 808 938 782 950 q 850 914 835 925 l 774 781 q 692 821 744 804 q 578 838 640 838 q 506 830 540 838 q 447 806 472 822 q 406 765 421 790 q 392 704 392 739 q 402 651 392 672 q 431 615 413 631 q 475 585 450 599 q 529 556 500 572 q 610 508 572 532 q 678 454 649 485 q 724 384 707 424 q 742 289 742 344 q 713 153 742 211 q 631 56 683 94 q 506 -1 578 18 q 347 -21 433 -21 q 242 -12 290 -21 q 157 8 194 -4 q 92 35 119 21 q 50 60 65 49 l 128 197 q 165 175 142 188 q 217 152 188 163 q 281 135 246 142 q 354 128 315 128 z "},"T":{"ha":808,"x_min":229,"x_max":1013,"o":"m 1013 963 l 976 815 l 690 815 l 494 0 l 319 0 l 515 815 l 229 815 l 264 963 l 1013 963 z "},"U":{"ha":940,"x_min":179,"x_max":1063,"o":"m 917 354 q 864 196 896 265 q 781 78 832 126 q 658 5 731 31 q 482 -21 585 -21 q 344 1 401 -21 q 250 60 286 22 q 197 149 214 97 q 179 263 179 201 q 184 333 179 294 q 199 408 189 372 l 331 963 l 507 963 l 369 389 q 358 334 363 363 q 354 279 354 306 q 362 222 354 249 q 388 175 369 194 q 435 144 406 156 q 507 132 464 132 q 663 192 608 132 q 744 371 717 251 l 886 963 l 1063 963 l 917 354 z "},"V":{"ha":888,"x_min":226,"x_max":1103,"o":"m 526 0 l 360 0 q 283 464 317 224 q 226 963 250 704 l 411 963 q 445 564 426 758 q 488 207 464 369 q 594 376 539 285 q 704 566 649 468 q 813 765 760 664 q 913 963 865 865 l 1103 963 q 831 474 972 717 q 526 0 690 232 z "},"W":{"ha":1289,"x_min":233,"x_max":1475,"o":"m 907 853 q 917 696 911 778 q 932 533 924 614 q 949 374 940 451 q 965 229 957 296 q 1046 391 1004 303 q 1129 574 1088 479 q 1211 767 1171 668 q 1289 963 1251 867 l 1475 963 q 1253 456 1365 694 q 1017 0 1142 217 l 847 0 q 826 147 836 75 q 806 294 815 219 q 790 445 797 368 q 775 606 782 522 q 605 297 689 446 q 426 0 521 147 l 254 0 q 238 240 243 121 q 233 485 233 360 q 250 963 233 713 l 425 963 q 411 698 417 829 q 406 432 406 567 q 406 331 406 382 q 408 229 406 281 q 497 378 451 300 q 588 538 543 457 q 674 699 632 618 q 754 853 717 779 l 907 853 z "},"X":{"ha":874,"x_min":14,"x_max":1033,"o":"m 668 0 q 635 102 651 54 q 601 194 618 150 q 565 282 583 239 q 526 371 547 325 l 217 0 l 14 0 l 454 518 l 258 963 l 451 963 l 582 636 q 717 800 651 717 q 838 963 783 883 l 1033 963 q 947 847 993 906 q 853 728 901 788 q 755 612 804 669 q 658 501 706 554 q 763 253 714 374 q 854 0 811 133 l 668 0 z "},"Y":{"ha":826,"x_min":224,"x_max":1047,"o":"m 531 538 q 698 747 617 642 q 850 963 779 851 l 1047 963 q 939 814 993 886 q 828 670 885 742 q 713 528 772 599 q 589 383 653 457 l 497 0 l 322 0 l 414 383 q 310 673 357 529 q 224 963 264 817 l 410 963 q 464 749 433 856 q 531 538 494 642 z "},"Z":{"ha":801,"x_min":44,"x_max":976,"o":"m 946 833 q 806 703 889 783 q 633 528 724 622 q 454 335 543 435 q 294 147 365 236 l 793 147 l 758 0 l 44 0 l 71 110 q 159 222 110 161 q 263 346 208 282 q 377 474 318 410 q 494 600 436 539 q 608 716 553 661 q 710 815 663 771 l 263 815 l 297 963 l 976 963 l 946 833 z "},"[":{"ha":472,"x_min":63,"x_max":726,"o":"m 385 1088 l 726 1088 l 694 954 l 513 954 l 253 -124 l 436 -124 l 403 -257 l 63 -257 l 385 1088 z "},"\\":{"ha":546,"x_min":219,"x_max":524,"o":"m 364 -257 l 219 1088 l 376 1088 l 524 -257 l 364 -257 z "},"]":{"ha":472,"x_min":-61,"x_max":603,"o":"m 281 -257 l -61 -257 l -29 -124 l 153 -124 l 413 954 l 229 954 l 263 1088 l 603 1088 l 281 -257 z "},"^":{"ha":789,"x_min":164,"x_max":839,"o":"m 839 481 l 696 419 l 579 786 l 285 424 l 164 497 l 544 963 l 682 963 l 839 481 z "},"_":{"ha":694,"x_min":-60,"x_max":667,"o":"m -28 -117 l 667 -117 l 633 -257 l -60 -257 l -28 -117 z "},"`":{"ha":435,"x_min":208,"x_max":517,"o":"m 311 1096 l 517 878 l 439 800 l 208 986 l 311 1096 z "},"a":{"ha":775,"x_min":132,"x_max":836,"o":"m 736 282 q 728 232 732 267 q 724 167 724 197 q 731 88 724 126 q 753 11 738 50 l 603 -11 q 576 60 586 22 q 491 5 542 29 q 376 -19 440 -19 q 265 2 311 -19 q 189 62 218 24 q 146 151 160 100 q 132 263 132 203 q 168 451 132 364 q 269 603 204 539 q 422 703 333 667 q 617 740 511 740 q 726 731 671 740 q 836 697 781 722 l 736 282 m 644 596 q 585 601 618 601 q 469 574 522 601 q 378 502 417 547 q 319 399 340 457 q 299 276 299 340 q 304 217 299 244 q 323 168 310 189 q 358 135 336 147 q 415 122 381 122 q 494 141 460 122 q 557 192 528 160 q 563 260 558 228 q 576 324 568 292 l 644 596 z "},"b":{"ha":790,"x_min":108,"x_max":825,"o":"m 576 743 q 687 722 640 743 q 764 663 733 700 q 810 574 794 625 q 825 465 825 524 q 792 282 825 369 q 697 128 758 194 q 546 22 635 61 q 346 -18 457 -18 q 301 -17 329 -18 q 240 -10 274 -15 q 172 6 207 -4 q 108 31 138 15 l 351 1050 l 526 1078 l 438 706 q 503 732 468 721 q 576 743 538 743 m 368 124 q 485 151 432 124 q 577 224 539 178 q 636 328 615 269 q 657 451 657 388 q 651 510 657 483 q 632 558 646 538 q 594 590 618 578 q 535 601 571 601 q 468 590 504 601 q 401 556 432 579 l 300 131 q 328 126 313 128 q 368 124 344 124 z "},"c":{"ha":638,"x_min":135,"x_max":754,"o":"m 135 275 q 165 455 135 369 q 250 605 194 540 q 386 707 306 669 q 569 744 467 744 q 669 735 624 744 q 754 708 714 726 l 694 574 q 639 593 669 585 q 564 601 608 601 q 456 577 504 601 q 375 511 408 553 q 324 413 342 469 q 306 292 306 356 q 313 226 306 256 q 338 173 321 196 q 386 138 356 150 q 463 125 417 125 q 553 138 510 125 q 621 163 597 150 l 635 25 q 550 -5 603 10 q 431 -19 497 -19 q 299 3 354 -19 q 206 66 243 26 q 152 159 169 106 q 135 275 135 213 z "},"d":{"ha":794,"x_min":132,"x_max":932,"o":"m 379 -19 q 267 2 314 -19 q 190 61 219 24 q 146 150 160 99 q 132 261 132 201 q 165 441 132 354 q 258 594 197 528 q 406 699 318 660 q 604 739 493 739 q 638 738 618 739 q 681 731 657 736 l 757 1050 l 932 1078 l 742 290 q 731 226 735 258 q 728 164 728 193 q 735 89 728 126 q 757 11 742 51 l 607 -11 q 581 60 592 18 q 496 5 546 29 q 379 -19 446 -19 m 647 594 q 583 600 621 600 q 467 573 519 600 q 376 501 414 546 q 319 397 339 456 q 299 276 299 339 q 305 217 299 244 q 325 168 311 189 q 362 135 339 147 q 418 122 385 122 q 497 140 463 122 q 561 190 531 158 q 567 251 563 219 q 579 314 572 283 l 647 594 z "},"e":{"ha":726,"x_min":135,"x_max":786,"o":"m 135 263 q 165 442 135 356 q 251 597 194 529 q 386 704 307 664 q 564 744 465 744 q 728 690 669 744 q 786 551 786 636 q 743 410 786 464 q 631 325 700 356 q 476 283 563 294 q 300 269 389 272 q 299 264 299 267 l 299 250 q 458 124 299 124 q 647 163 553 124 l 661 26 q 567 -4 628 11 q 428 -19 506 -19 q 294 3 350 -19 q 203 64 239 25 q 151 153 168 103 q 135 263 135 204 m 539 607 q 460 590 497 607 q 393 544 422 574 q 342 476 364 515 q 311 390 321 436 q 553 431 478 396 q 629 535 629 465 q 609 585 629 563 q 539 607 589 607 z "},"f":{"ha":539,"x_min":-28,"x_max":815,"o":"m 447 726 l 690 726 l 657 588 l 414 588 l 310 153 q 276 19 292 78 q 239 -87 260 -39 q 190 -178 218 -136 q 118 -262 161 -221 l -28 -240 q 22 -173 -1 -207 q 63 -101 44 -139 q 98 -17 82 -62 q 126 83 114 28 l 292 778 q 337 905 308 849 q 408 999 365 961 q 509 1058 450 1038 q 646 1078 568 1078 q 747 1066 701 1078 q 815 1043 792 1054 l 754 911 q 706 927 736 919 q 636 935 676 935 q 565 923 594 935 q 515 890 536 911 q 481 840 494 869 q 460 775 468 810 l 447 726 z "},"g":{"ha":790,"x_min":46,"x_max":850,"o":"m 306 -119 q 460 -72 408 -119 q 531 57 513 -25 l 535 76 q 468 51 507 63 q 386 39 429 39 q 205 105 264 39 q 146 281 146 171 q 181 465 146 381 q 278 612 215 550 q 431 708 342 674 q 628 743 519 743 q 741 731 681 743 q 850 693 801 719 l 703 76 q 653 -69 683 -6 q 575 -174 624 -132 q 455 -239 526 -217 q 282 -261 383 -261 q 149 -245 208 -261 q 46 -206 90 -229 l 106 -69 q 192 -106 143 -92 q 306 -119 242 -119 m 428 175 q 505 189 465 175 q 571 224 544 203 l 660 594 q 597 601 628 601 q 481 578 533 601 q 392 514 429 554 q 333 420 354 474 q 313 306 313 367 q 339 210 313 244 q 428 175 365 175 z "},"h":{"ha":782,"x_min":101,"x_max":799,"o":"m 101 0 l 353 1050 l 528 1078 l 442 721 q 502 734 469 728 q 567 740 535 740 q 672 723 628 740 q 744 675 715 706 q 785 601 772 644 q 799 508 799 558 q 782 382 799 449 l 690 0 l 522 0 l 610 364 q 624 429 617 396 q 631 492 631 463 q 606 569 631 538 q 514 600 582 600 q 458 595 486 600 q 408 583 431 590 l 269 0 l 101 0 z "},"i":{"ha":376,"x_min":101,"x_max":511,"o":"m 268 0 l 101 0 l 275 726 l 443 726 l 268 0 m 393 836 q 328 858 356 836 q 300 925 300 881 q 335 1010 300 976 q 417 1043 371 1043 q 483 1020 454 1043 q 511 953 511 997 q 475 869 511 901 q 393 836 439 836 z "},"j":{"ha":383,"x_min":-142,"x_max":519,"o":"m 401 836 q 336 858 364 836 q 308 925 308 881 q 344 1010 308 976 q 425 1043 379 1043 q 491 1020 463 1043 q 519 953 519 997 q 483 869 519 901 q 401 836 447 836 m 282 26 q 240 -103 264 -49 q 180 -192 215 -157 q 97 -243 144 -226 q -18 -260 49 -260 q -84 -252 -50 -260 q -142 -233 -118 -244 l -100 -99 q -62 -111 -83 -106 q -15 -117 -40 -117 q 71 -77 42 -117 q 115 29 100 -37 l 282 726 l 450 726 l 282 26 z "},"k":{"ha":776,"x_min":101,"x_max":875,"o":"m 376 450 q 464 520 419 483 q 548 594 508 557 q 622 665 588 631 q 682 726 657 699 l 875 726 q 799 644 842 688 q 708 558 756 601 q 611 474 661 515 q 514 394 561 432 q 583 310 549 358 q 650 208 618 261 q 708 101 682 156 q 751 0 735 47 l 565 0 q 522 93 546 46 q 471 185 499 140 q 413 270 443 231 q 351 340 382 310 l 268 0 l 101 0 l 353 1050 l 528 1078 l 376 450 z "},"l":{"ha":414,"x_min":146,"x_max":515,"o":"m 379 -14 q 269 3 314 -12 q 197 44 224 18 q 158 107 169 71 q 146 186 146 143 q 156 280 146 231 q 179 378 167 329 l 340 1050 l 515 1078 q 429 716 472 896 q 342 354 386 536 q 326 297 335 325 q 318 240 318 268 q 319 197 318 217 q 330 162 319 176 q 361 138 340 147 q 415 125 382 128 l 379 -14 z "},"m":{"ha":1169,"x_min":101,"x_max":1185,"o":"m 268 696 q 393 727 324 713 q 546 742 463 742 q 651 724 608 742 q 722 672 693 706 q 820 719 763 696 q 951 742 878 742 q 1060 724 1015 742 q 1132 674 1104 706 q 1172 598 1160 642 q 1185 503 1185 554 q 1169 382 1185 446 l 1078 0 l 910 0 l 996 364 q 1009 422 1003 390 q 1015 485 1015 453 q 1010 528 1015 507 q 993 565 1006 550 q 959 590 981 581 q 904 600 938 600 q 833 586 868 600 q 775 557 799 572 q 781 500 781 531 q 776 442 781 472 q 765 382 772 411 l 674 0 l 506 0 l 592 364 q 605 422 599 389 q 611 486 611 454 q 590 566 611 532 q 508 600 568 600 q 456 597 481 600 q 410 588 431 593 l 269 0 l 101 0 l 268 696 z "},"n":{"ha":782,"x_min":101,"x_max":799,"o":"m 268 696 q 395 727 324 713 q 551 742 467 742 q 739 679 679 742 q 799 511 799 617 q 794 449 799 482 q 782 382 789 417 l 690 0 l 522 0 l 608 364 q 622 426 615 394 q 631 488 629 458 q 608 568 632 536 q 513 600 583 600 q 410 588 453 600 l 269 0 l 101 0 l 268 696 z "},"o":{"ha":782,"x_min":135,"x_max":814,"o":"m 400 -19 q 203 57 271 -19 q 135 258 135 133 q 160 425 135 339 q 236 582 185 511 q 365 699 288 653 q 549 744 443 744 q 746 669 678 744 q 814 468 814 593 q 790 300 814 386 q 715 143 765 214 q 585 26 664 72 q 400 -19 507 -19 m 528 603 q 431 572 474 603 q 360 492 389 540 q 317 385 332 443 q 301 274 301 328 q 328 164 301 204 q 421 124 354 124 q 517 155 475 124 q 588 234 560 186 q 632 340 617 282 q 647 451 647 399 q 621 562 647 521 q 528 603 594 603 z "},"p":{"ha":783,"x_min":40,"x_max":818,"o":"m 301 131 q 331 127 315 128 q 361 126 346 126 q 481 152 428 126 q 572 222 535 178 q 630 324 610 265 q 650 450 650 383 q 643 508 650 481 q 620 556 636 535 q 577 589 604 576 q 508 601 550 601 q 456 598 481 601 q 411 589 431 594 l 301 131 m 818 465 q 787 280 818 367 q 695 128 756 193 q 548 24 635 63 q 349 -14 461 -14 q 309 -12 329 -14 q 269 -7 289 -10 l 208 -257 l 40 -257 l 269 697 q 397 731 326 718 q 538 743 467 743 q 663 722 610 743 q 751 663 717 700 q 801 574 785 625 q 818 465 818 524 z "},"q":{"ha":785,"x_min":132,"x_max":844,"o":"m 132 263 q 166 450 132 363 q 263 602 200 538 q 417 704 326 667 q 621 742 508 742 q 731 731 672 742 q 844 694 789 719 l 617 -257 l 449 -257 l 514 17 q 446 -8 482 1 q 372 -17 410 -17 q 194 59 257 -17 q 132 263 132 135 m 653 594 q 624 599 640 597 q 592 601 607 601 q 469 575 524 601 q 377 504 415 549 q 319 401 339 460 q 299 276 299 342 q 326 166 299 207 q 418 125 353 125 q 485 135 451 125 q 550 168 518 144 l 653 594 z "},"r":{"ha":554,"x_min":101,"x_max":688,"o":"m 639 578 q 579 593 611 588 q 504 599 547 599 q 454 595 481 599 q 410 586 428 592 l 269 0 l 101 0 l 268 693 q 394 727 326 713 q 542 742 463 742 q 579 740 558 742 q 620 735 600 738 q 658 728 640 732 q 688 718 675 724 l 639 578 z "},"s":{"ha":608,"x_min":63,"x_max":701,"o":"m 311 118 q 417 140 378 118 q 456 206 456 161 q 431 263 456 242 q 343 314 406 285 q 281 346 310 329 q 232 385 253 363 q 199 437 211 407 q 186 508 186 467 q 265 681 186 617 q 494 744 344 744 q 619 730 564 744 q 701 700 674 715 l 642 569 q 574 597 618 583 q 481 610 529 610 q 434 606 457 610 q 393 592 411 601 q 363 565 375 582 q 351 522 351 547 q 377 470 351 490 q 451 428 403 450 q 529 388 497 407 q 582 344 561 368 q 613 290 603 319 q 622 218 622 260 q 601 123 622 167 q 541 48 581 79 q 443 -1 501 17 q 310 -19 385 -19 q 217 -12 258 -19 q 146 3 176 -6 q 94 22 115 13 q 63 39 74 32 l 122 171 q 151 156 132 165 q 194 139 169 147 q 248 124 218 131 q 311 118 278 118 z "},"t":{"ha":557,"x_min":142,"x_max":663,"o":"m 303 918 l 478 946 l 425 726 l 663 726 l 629 588 l 392 588 l 322 300 q 313 249 315 269 q 310 213 310 229 q 313 180 310 196 q 327 152 317 164 q 358 133 338 140 q 413 125 378 125 q 485 135 450 125 q 546 156 519 144 l 558 21 q 478 -6 526 7 q 364 -18 429 -18 q 193 34 244 -18 q 142 176 142 86 q 147 245 142 210 q 161 321 151 281 l 303 918 z "},"u":{"ha":788,"x_min":149,"x_max":844,"o":"m 844 726 l 742 294 q 731 231 735 263 q 728 167 728 199 q 734 88 728 126 q 756 11 740 49 l 606 -11 q 591 23 597 4 q 579 61 585 42 q 493 8 544 33 q 374 -18 442 -18 q 269 0 313 -18 q 199 49 226 18 q 160 123 172 81 q 149 213 149 165 q 165 344 149 274 l 257 726 l 425 726 l 335 349 q 317 231 317 276 q 321 189 317 208 q 335 155 325 169 q 365 132 346 140 q 411 124 383 124 q 493 142 457 124 q 560 193 529 161 q 579 315 564 253 l 676 726 l 844 726 z "},"v":{"ha":710,"x_min":172,"x_max":844,"o":"m 271 0 q 208 328 236 142 q 172 726 181 515 l 344 726 q 349 594 346 665 q 358 452 353 524 q 372 314 364 381 q 389 193 379 247 q 467 306 425 240 q 547 445 508 372 q 618 592 586 518 q 669 726 650 665 l 844 726 q 761 529 811 631 q 653 332 711 428 q 533 150 594 236 q 415 0 471 64 l 271 0 z "},"w":{"ha":1126,"x_min":197,"x_max":1261,"o":"m 678 460 q 618 337 651 400 q 549 213 585 274 q 476 98 513 153 q 410 0 440 43 l 271 0 q 247 146 258 64 q 225 321 235 228 q 208 517 215 414 q 197 726 200 619 l 364 726 q 365 601 364 668 q 370 463 367 533 q 378 325 374 393 q 392 197 383 257 q 469 324 431 257 q 542 460 507 392 q 606 597 576 529 q 658 726 636 665 l 803 726 q 804 606 803 669 q 809 474 806 542 q 817 335 813 406 q 831 197 822 265 q 904 318 867 250 q 976 458 942 386 q 1040 599 1011 529 q 1086 726 1068 669 l 1261 726 q 1190 549 1232 643 q 1094 360 1147 456 q 981 172 1042 264 q 856 0 921 79 l 717 0 q 691 230 701 117 q 678 460 681 343 z "},"x":{"ha":693,"x_min":13,"x_max":813,"o":"m 342 726 l 457 482 q 556 607 510 546 q 639 726 601 668 l 813 726 q 683 551 754 640 q 529 369 613 461 q 621 183 579 274 q 694 0 663 92 l 525 0 q 474 131 503 65 q 417 254 446 196 l 196 0 l 13 0 l 344 372 l 165 726 l 342 726 z "},"y":{"ha":686,"x_min":-78,"x_max":810,"o":"m 810 726 q 749 562 782 647 q 674 390 715 476 q 586 219 633 304 q 485 53 539 133 q 401 -65 444 -8 q 308 -164 358 -121 q 196 -233 257 -207 q 57 -260 135 -260 q -20 -250 14 -260 q -78 -228 -54 -240 l -24 -93 q 20 -111 -4 -104 q 74 -118 44 -118 q 188 -84 139 -118 q 278 8 238 -50 q 203 343 233 163 q 163 726 172 524 l 332 726 q 338 597 333 668 q 351 452 343 526 q 369 306 358 378 q 394 172 381 233 q 472 313 436 239 q 539 459 508 386 q 592 601 569 532 q 632 726 615 669 l 810 726 z "},"z":{"ha":650,"x_min":42,"x_max":774,"o":"m 746 611 q 687 558 722 590 q 610 485 651 525 q 522 399 568 444 q 432 308 476 354 q 347 219 388 263 q 276 139 307 175 l 639 139 l 606 0 l 42 0 l 67 101 q 166 224 108 157 q 286 356 224 290 q 410 483 349 422 q 521 588 472 543 l 199 588 l 232 726 l 774 726 l 746 611 z "},"{":{"ha":494,"x_min":138,"x_max":750,"o":"m 169 481 q 240 494 211 481 q 290 528 269 507 q 322 578 310 550 q 340 635 333 606 l 386 822 q 428 942 403 892 q 494 1024 453 992 q 594 1072 535 1057 q 740 1088 654 1088 l 750 1088 l 717 954 q 646 949 675 954 q 597 929 617 943 q 565 891 578 915 q 543 828 553 867 l 490 606 q 438 487 472 532 q 338 415 404 442 q 390 360 375 392 q 404 290 404 329 q 401 247 404 269 q 392 201 397 225 l 344 1 q 336 -57 336 -35 q 364 -111 336 -99 q 457 -124 392 -124 l 424 -257 q 318 -249 364 -257 q 241 -223 272 -242 q 193 -172 210 -204 q 176 -92 176 -140 q 183 -33 176 -65 l 233 169 q 244 256 244 221 q 217 325 244 304 q 138 349 190 346 l 169 481 z "},"|":{"ha":413,"x_min":63,"x_max":543,"o":"m 386 1088 l 543 1088 l 219 -257 l 63 -257 l 386 1088 z "},"}":{"ha":494,"x_min":-62,"x_max":550,"o":"m 518 350 q 447 337 476 350 q 398 302 418 324 q 366 253 378 281 q 347 196 354 225 l 301 8 q 260 -112 285 -61 q 194 -194 235 -162 q 93 -242 153 -226 q -53 -257 33 -257 l -62 -257 l -29 -124 q 41 -118 13 -124 q 90 -99 69 -112 q 122 -60 110 -85 q 144 3 135 -36 l 197 225 q 249 344 215 299 q 350 415 283 389 q 298 470 313 439 q 283 540 283 501 q 287 583 283 561 q 296 629 290 606 l 343 829 q 351 888 351 864 q 324 942 351 929 q 231 954 296 954 l 264 1088 q 369 1080 324 1088 q 447 1053 415 1072 q 494 1003 478 1035 q 511 922 511 971 q 504 864 511 896 l 454 661 q 443 575 443 610 q 470 506 443 526 q 550 482 497 485 l 518 350 z "},"~":{"ha":789,"x_min":132,"x_max":849,"o":"m 604 281 q 524 298 557 281 q 463 336 490 315 q 409 374 435 357 q 350 392 383 392 q 290 365 314 392 q 242 286 267 338 l 132 319 q 165 398 144 358 q 217 469 186 438 q 287 519 247 500 q 376 539 326 539 q 457 522 424 539 q 518 483 490 504 q 572 445 546 463 q 631 428 597 428 q 690 455 667 428 q 739 533 714 482 l 849 500 q 813 419 833 458 q 763 349 792 381 q 694 299 733 318 q 604 281 654 281 z "},"€":{"ha":789,"x_min":138,"x_max":968,"o":"m 425 308 q 439 218 426 254 q 474 161 451 182 q 528 131 497 140 q 597 122 560 122 q 700 134 656 122 q 782 160 744 146 l 789 24 q 692 -6 751 7 q 571 -19 632 -19 q 344 59 426 -19 q 258 308 263 138 l 138 308 l 165 428 l 265 428 q 289 543 274 485 l 192 543 l 219 661 l 325 661 q 396 789 354 731 q 494 890 438 847 q 624 957 551 933 q 792 981 697 981 q 883 972 842 981 q 968 949 925 964 l 901 815 q 841 833 872 826 q 768 840 810 840 q 601 790 665 840 q 497 661 536 740 l 825 661 l 774 543 l 454 543 q 441 486 447 515 q 432 428 435 457 l 724 428 l 674 308 l 425 308 z "},"‚":{"ha":349,"x_min":11,"x_max":307,"o":"m 135 185 l 307 185 q 283 83 301 133 q 239 -15 265 32 q 181 -103 213 -61 q 117 -178 150 -144 l 11 -133 q 92 19 60 -60 q 135 185 124 97 z "},"ƒ":{"ha":542,"x_min":-142,"x_max":818,"o":"m 282 26 q 240 -103 264 -49 q 180 -192 215 -157 q 97 -243 144 -226 q -18 -260 49 -260 q -84 -252 -50 -260 q -142 -233 -118 -244 l -100 -99 q -62 -111 -83 -106 q -15 -117 -40 -117 q 71 -77 42 -117 q 115 29 100 -37 l 294 778 q 340 905 311 849 q 410 999 368 961 q 512 1058 453 1038 q 649 1078 571 1078 q 749 1066 704 1078 q 818 1043 794 1054 l 757 911 q 709 927 739 919 q 639 935 679 935 q 568 923 597 935 q 518 890 539 911 q 484 840 497 869 q 463 775 471 810 l 450 726 l 693 726 l 660 588 l 417 588 l 282 26 z "},"„":{"ha":626,"x_min":11,"x_max":585,"o":"m 135 185 l 307 185 q 283 83 301 133 q 239 -15 265 32 q 181 -103 213 -61 q 117 -178 150 -144 l 11 -133 q 92 19 60 -60 q 135 185 124 97 m 413 185 l 585 185 q 561 83 579 133 q 517 -15 543 32 q 459 -103 490 -61 q 394 -178 428 -144 l 289 -133 q 369 19 338 -60 q 413 185 401 97 z "},"…":{"ha":1429,"x_min":149,"x_max":1311,"o":"m 739 203 q 811 178 783 203 q 839 104 839 153 q 828 53 839 76 q 801 15 818 31 q 763 -10 785 -1 q 719 -18 742 -18 q 648 6 675 -18 q 621 79 621 31 q 657 170 621 138 q 739 203 693 203 m 1211 203 q 1283 178 1256 203 q 1311 104 1311 153 q 1301 53 1311 76 q 1274 15 1290 31 q 1235 -10 1257 -1 q 1192 -18 1214 -18 q 1120 6 1147 -18 q 1093 79 1093 31 q 1129 170 1093 138 q 1211 203 1165 203 m 267 203 q 339 178 311 203 q 367 104 367 153 q 356 53 367 76 q 329 15 346 31 q 291 -10 313 -1 q 247 -18 269 -18 q 176 6 203 -18 q 149 79 149 31 q 185 170 149 138 q 267 203 221 203 z "},"†":{"ha":671,"x_min":189,"x_max":772,"o":"m 536 539 l 456 203 q 399 -7 428 89 q 333 -201 369 -103 l 242 -201 q 269 -7 253 -103 q 313 203 285 89 l 393 539 l 189 539 l 222 672 l 426 672 l 496 963 l 638 963 l 568 672 l 772 672 l 739 539 l 536 539 z "},"‡":{"ha":671,"x_min":101,"x_max":772,"o":"m 447 169 q 394 -22 421 67 q 333 -201 368 -110 l 242 -201 q 266 -22 251 -110 q 306 169 281 65 l 101 169 l 133 303 l 338 303 l 393 539 l 189 539 l 222 671 l 426 671 l 496 963 l 638 963 l 568 671 l 772 671 l 739 539 l 536 539 l 479 303 l 683 303 l 650 169 l 447 169 z "},"ˆ":{"ha":540,"x_min":168,"x_max":572,"o":"m 414 1089 l 572 868 l 500 803 l 388 925 l 224 806 l 168 879 l 414 1089 z "},"‰":{"ha":1742,"x_min":215,"x_max":1743,"o":"m 418 571 q 474 588 449 571 q 518 635 500 606 q 546 701 536 664 q 556 779 556 739 q 538 847 556 822 q 482 872 521 872 q 425 854 450 872 q 381 807 400 836 q 353 740 363 778 q 343 663 343 701 q 361 596 343 621 q 418 571 379 571 m 1018 963 l 1185 963 l 415 0 l 250 0 l 1018 963 m 490 983 q 631 935 578 983 q 683 788 683 886 q 663 658 683 718 q 604 554 642 599 q 516 484 567 510 q 407 458 465 458 q 267 508 319 458 q 215 656 215 557 q 236 784 215 724 q 294 888 257 844 q 382 958 332 932 q 490 983 432 983 m 954 90 q 1010 108 985 90 q 1054 154 1036 125 q 1082 221 1072 183 q 1092 299 1092 258 q 1074 367 1092 342 q 1018 392 1057 392 q 961 374 986 392 q 917 326 936 356 q 889 259 899 297 q 879 182 879 221 q 897 115 879 140 q 954 90 915 90 m 1026 503 q 1167 454 1114 503 q 1219 307 1219 406 q 1199 178 1219 238 q 1140 74 1178 118 q 1052 3 1103 29 q 943 -22 1001 -22 q 803 27 856 -22 q 751 175 751 76 q 772 303 751 243 q 831 408 793 364 q 918 477 868 451 q 1026 503 968 503 m 1478 90 q 1534 108 1508 90 q 1578 154 1560 125 q 1606 221 1596 183 q 1615 299 1615 258 q 1598 367 1615 342 q 1542 392 1581 392 q 1485 374 1510 392 q 1441 326 1460 356 q 1413 259 1422 297 q 1403 182 1403 221 q 1421 115 1403 140 q 1478 90 1439 90 m 1550 503 q 1690 454 1638 503 q 1743 307 1743 406 q 1722 178 1743 238 q 1664 74 1701 118 q 1576 3 1626 29 q 1467 -22 1525 -22 q 1327 27 1379 -22 q 1275 175 1275 76 q 1296 303 1275 243 q 1354 408 1317 364 q 1442 477 1392 451 q 1550 503 1492 503 z "},"Š":{"ha":732,"x_min":50,"x_max":850,"o":"m 354 128 q 428 135 392 128 q 495 158 465 142 q 543 203 525 175 q 561 275 561 232 q 547 330 561 307 q 510 371 533 353 q 456 405 486 389 q 393 439 426 421 q 324 480 357 457 q 267 532 292 503 q 227 600 242 561 q 213 692 213 639 q 237 809 213 756 q 309 901 261 863 q 427 963 357 940 q 590 985 497 985 q 673 978 633 985 q 747 960 713 971 q 808 938 782 950 q 850 914 835 925 l 774 781 q 692 821 744 804 q 578 838 640 838 q 506 830 540 838 q 447 806 472 822 q 406 765 421 790 q 392 704 392 739 q 402 651 392 672 q 431 615 413 631 q 475 585 450 599 q 529 556 500 572 q 610 508 572 532 q 678 454 649 485 q 724 384 707 424 q 742 289 742 344 q 713 153 742 211 q 631 56 683 94 q 506 -1 578 18 q 347 -21 433 -21 q 242 -12 290 -21 q 157 8 194 -4 q 92 35 119 21 q 50 60 65 49 l 128 197 q 165 175 142 188 q 217 152 188 163 q 281 135 246 142 q 354 128 315 128 m 596 1031 l 438 1251 l 510 1317 l 621 1194 l 786 1314 l 840 1240 l 596 1031 z "},"‹":{"ha":432,"x_min":129,"x_max":528,"o":"m 528 651 l 310 382 l 413 126 l 300 74 l 129 403 l 422 714 l 528 651 z "},"Œ":{"ha":1344,"x_min":168,"x_max":1486,"o":"m 747 0 q 677 -8 715 -6 q 599 -11 639 -11 q 425 10 504 -11 q 289 78 346 32 q 200 198 232 125 q 168 372 168 271 q 211 613 168 503 q 336 803 254 724 q 539 928 418 883 q 815 972 660 972 q 884 970 851 972 q 961 963 917 968 l 1486 963 l 1450 815 l 1046 815 l 989 575 l 1344 575 l 1310 432 l 954 432 l 886 147 l 1322 147 l 1288 0 l 747 0 m 778 825 q 594 788 674 825 q 459 690 514 751 q 376 548 404 629 q 349 379 349 467 q 364 281 349 325 q 411 204 379 236 q 492 154 443 172 q 610 136 542 136 q 665 138 638 136 q 714 143 692 140 l 875 818 q 837 823 864 821 q 778 825 810 825 z "},"‘":{"ha":349,"x_min":249,"x_max":544,"o":"m 249 704 q 272 806 254 756 q 317 903 290 857 q 374 992 343 950 q 439 1067 406 1033 l 544 1022 q 464 870 496 949 q 421 704 432 792 l 249 704 z "},"’":{"ha":349,"x_min":224,"x_max":519,"o":"m 519 1053 q 496 951 514 1001 q 451 853 478 900 q 394 765 425 807 q 329 690 363 724 l 224 735 q 304 887 272 808 q 347 1053 336 965 l 519 1053 z "},"“":{"ha":625,"x_min":249,"x_max":821,"o":"m 525 704 q 549 806 531 756 q 593 903 567 857 q 651 992 619 950 q 715 1067 682 1033 l 821 1022 q 740 870 772 949 q 697 704 708 792 l 525 704 m 249 704 q 272 806 254 756 q 317 903 290 857 q 374 992 343 950 q 439 1067 406 1033 l 544 1022 q 464 870 496 949 q 421 704 432 792 l 249 704 z "},"”":{"ha":625,"x_min":224,"x_max":796,"o":"m 347 1053 l 519 1053 q 496 951 514 1001 q 451 853 478 900 q 394 765 425 807 q 329 690 363 724 l 224 735 q 304 887 272 808 q 347 1053 336 965 m 624 1053 l 796 1053 q 772 951 790 1001 q 728 853 754 900 q 670 765 701 807 q 606 690 639 724 l 500 735 q 581 887 549 808 q 624 1053 613 965 z "},"•":{"ha":514,"x_min":175,"x_max":553,"o":"m 553 490 q 540 419 553 453 q 501 359 526 385 q 442 318 476 333 q 364 303 407 303 q 285 318 319 303 q 226 359 250 333 q 188 419 201 385 q 175 490 175 453 q 188 562 175 528 q 226 621 201 596 q 285 661 250 646 q 364 676 319 676 q 442 661 407 676 q 501 621 476 646 q 540 562 526 596 q 553 490 553 528 z "},"–":{"ha":688,"x_min":74,"x_max":801,"o":"m 107 468 l 801 468 l 768 326 l 74 326 l 107 468 z "},"—":{"ha":1382,"x_min":74,"x_max":1496,"o":"m 107 468 l 1496 468 l 1463 326 l 74 326 l 107 468 z "},"˜":{"ha":522,"x_min":131,"x_max":622,"o":"m 446 853 q 400 861 421 853 q 360 878 379 869 q 324 896 342 888 q 289 904 307 904 q 247 888 265 904 q 210 843 229 872 l 131 892 q 201 992 160 957 q 306 1026 243 1026 q 355 1018 333 1026 q 394 1000 376 1010 q 429 982 413 990 q 464 974 446 974 q 506 990 488 974 q 543 1036 524 1007 l 622 988 q 550 887 592 921 q 446 853 508 853 z "},"™":{"ha":1156,"x_min":179,"x_max":1243,"o":"m 597 963 l 597 849 l 453 849 l 453 486 l 324 486 l 324 849 l 179 849 l 179 963 l 597 963 m 1204 963 q 1224 776 1217 889 q 1243 486 1232 663 l 1121 486 q 1114 644 1118 560 q 1104 800 1110 729 q 1068 736 1088 772 q 1031 665 1049 700 q 997 598 1013 629 q 974 549 982 567 l 901 549 q 878 597 893 567 q 844 663 863 628 q 806 735 825 699 q 771 800 786 771 q 761 644 765 729 q 754 486 757 560 l 631 486 q 653 776 644 663 q 674 963 663 889 l 803 963 q 864 842 828 913 q 936 696 900 771 q 1011 842 974 771 q 1072 963 1049 913 l 1204 963 z "},"š":{"ha":608,"x_min":63,"x_max":754,"o":"m 311 118 q 417 140 378 118 q 456 206 456 161 q 431 263 456 242 q 343 314 406 285 q 281 346 310 329 q 232 385 253 363 q 199 437 211 407 q 186 508 186 467 q 265 681 186 617 q 494 744 344 744 q 619 730 564 744 q 701 700 674 715 l 642 569 q 574 597 618 583 q 481 610 529 610 q 434 606 457 610 q 393 592 411 601 q 363 565 375 582 q 351 522 351 547 q 377 470 351 490 q 451 428 403 450 q 529 388 497 407 q 582 344 561 368 q 613 290 603 319 q 622 218 622 260 q 601 123 622 167 q 541 48 581 79 q 443 -1 501 17 q 310 -19 385 -19 q 217 -12 258 -19 q 146 3 176 -6 q 94 22 115 13 q 63 39 74 32 l 122 171 q 151 156 132 165 q 194 139 169 147 q 248 124 218 131 q 311 118 278 118 m 510 811 l 351 1032 l 424 1097 l 535 975 l 700 1094 l 754 1021 l 510 811 z "},"›":{"ha":432,"x_min":93,"x_max":492,"o":"m 93 136 l 311 406 l 208 661 l 321 714 l 492 385 l 199 74 l 93 136 z "},"œ":{"ha":1214,"x_min":135,"x_max":1274,"o":"m 400 -19 q 203 57 271 -19 q 135 258 135 133 q 160 425 135 339 q 236 582 185 511 q 365 699 288 653 q 549 744 443 744 q 683 709 628 744 q 769 615 738 674 q 894 709 824 674 q 1051 744 965 744 q 1215 690 1157 744 q 1274 551 1274 636 q 1231 410 1274 464 q 1119 325 1188 356 q 963 283 1050 294 q 788 269 876 272 q 786 250 786 261 q 946 124 786 124 q 1135 163 1040 124 l 1149 26 q 1054 -4 1115 11 q 915 -19 993 -19 q 764 16 824 -19 q 672 108 704 51 q 555 17 622 54 q 400 -19 488 -19 m 528 603 q 431 572 474 603 q 360 492 389 540 q 317 385 332 443 q 301 274 301 328 q 328 164 301 204 q 421 124 354 124 q 517 155 475 124 q 588 234 560 186 q 632 340 617 282 q 647 451 647 399 q 621 562 647 521 q 528 603 594 603 m 1026 607 q 947 590 985 607 q 881 544 910 574 q 830 476 851 515 q 799 390 808 436 q 1041 431 965 396 q 1117 535 1117 465 q 1097 585 1117 563 q 1026 607 1076 607 z "},"Ÿ":{"ha":826,"x_min":224,"x_max":1047,"o":"m 531 538 q 698 747 617 642 q 850 963 779 851 l 1047 963 q 939 814 993 886 q 828 670 885 742 q 713 528 772 599 q 589 383 653 457 l 497 0 l 322 0 l 414 383 q 310 673 357 529 q 224 963 264 817 l 410 963 q 464 749 433 856 q 531 538 494 642 m 796 1065 q 736 1088 760 1065 q 713 1146 713 1110 q 722 1190 713 1169 q 744 1224 731 1210 q 776 1245 758 1238 q 813 1253 794 1253 q 873 1230 849 1253 q 897 1168 897 1207 q 888 1127 897 1146 q 865 1094 879 1108 q 832 1073 850 1081 q 796 1065 814 1065 m 510 1065 q 450 1088 474 1065 q 426 1146 426 1110 q 435 1190 426 1169 q 458 1224 444 1210 q 490 1245 472 1238 q 526 1253 508 1253 q 587 1230 563 1253 q 611 1168 611 1207 q 602 1127 611 1146 q 578 1094 593 1108 q 546 1073 564 1081 q 510 1065 528 1065 z "}," ":{"ha":329,"x_min":0,"x_max":0,"o":""},"¡":{"ha":369,"x_min":36,"x_max":435,"o":"m 315 508 q 244 533 271 508 q 217 606 217 557 q 253 697 217 664 q 336 729 290 729 q 408 704 381 729 q 435 631 435 679 q 424 580 435 603 q 397 541 414 557 q 359 517 381 525 q 315 508 338 508 m 97 6 q 123 103 108 51 q 154 210 138 156 q 189 315 171 264 q 224 410 207 367 l 342 410 q 317 216 331 313 q 275 6 303 119 l 214 -250 l 36 -250 l 97 6 z "},"¢":{"ha":789,"x_min":214,"x_max":826,"o":"m 707 86 q 629 58 675 71 q 532 42 583 44 l 486 -151 l 331 -151 l 381 56 q 258 145 301 81 q 214 318 214 210 q 238 474 214 400 q 306 606 263 547 q 412 705 350 664 q 550 763 474 746 l 597 963 l 753 963 l 706 768 q 767 755 738 764 q 826 731 797 746 l 768 599 q 638 631 713 631 q 534 607 581 631 q 454 542 488 583 q 403 444 421 500 q 385 324 385 388 q 419 218 385 254 q 526 182 454 182 q 620 195 574 182 q 694 222 667 208 l 707 86 z "},"£":{"ha":789,"x_min":163,"x_max":929,"o":"m 496 532 l 750 532 l 717 396 l 464 396 l 453 356 q 420 247 439 303 q 382 142 401 192 l 772 142 l 738 0 l 163 0 q 243 206 207 106 q 299 396 279 306 l 174 396 l 206 532 l 331 532 l 363 657 q 422 813 386 750 q 504 913 457 875 q 608 965 551 950 q 731 981 665 981 q 844 966 793 981 q 929 932 896 951 l 858 804 q 792 828 826 819 q 721 838 758 838 q 656 828 686 838 q 600 797 625 819 q 555 735 575 774 q 521 636 535 696 l 496 532 z "},"¤":{"ha":789,"x_min":156,"x_max":846,"o":"m 500 751 q 638 719 578 751 l 740 821 l 846 717 l 744 618 q 779 482 779 557 q 744 346 779 404 l 846 246 l 740 142 l 636 243 q 500 211 575 211 q 363 243 422 211 l 260 143 l 156 246 l 256 344 q 222 482 222 403 q 256 618 222 560 l 156 717 l 261 821 l 364 719 q 500 751 422 751 m 500 335 q 599 373 558 335 q 639 482 639 411 q 599 590 639 551 q 500 628 558 628 q 401 590 442 628 q 361 482 361 551 q 401 373 361 411 q 500 335 442 335 z "},"¥":{"ha":789,"x_min":119,"x_max":994,"o":"m 718 150 l 504 150 l 468 0 l 297 0 l 333 150 l 119 150 l 147 265 l 361 265 l 389 385 l 176 385 l 204 500 l 381 500 q 295 738 335 618 q 231 963 256 857 l 403 963 q 452 765 424 864 q 518 567 481 667 q 669 758 596 658 q 810 963 743 858 l 994 963 q 824 728 914 844 q 638 500 733 611 l 801 500 l 774 385 l 560 385 l 532 265 l 746 265 l 718 150 z "},"¦":{"ha":413,"x_min":63,"x_max":543,"o":"m 193 285 l 350 285 l 219 -257 l 63 -257 l 193 285 m 386 1088 l 543 1088 l 413 546 l 256 546 l 386 1088 z "},"§":{"ha":683,"x_min":40,"x_max":807,"o":"m 149 397 q 196 532 149 468 q 318 636 243 596 q 288 688 299 658 q 276 750 276 718 q 298 843 276 800 q 360 917 319 886 q 458 967 400 949 q 590 985 517 985 q 710 971 656 985 q 807 935 765 957 l 747 811 q 674 840 714 828 q 585 851 633 851 q 534 847 560 851 q 488 831 508 842 q 453 801 467 819 q 440 756 440 783 q 450 722 440 736 q 475 697 460 708 q 509 678 490 686 q 546 661 528 669 q 624 624 589 643 q 682 581 658 606 q 718 526 706 557 q 731 454 731 496 q 693 333 731 390 q 597 236 656 276 q 580 224 589 229 q 561 214 571 219 q 596 160 582 190 q 610 90 610 131 q 589 -2 610 42 q 527 -79 568 -46 q 424 -133 486 -112 q 279 -153 363 -153 q 147 -138 210 -153 q 40 -97 85 -124 l 100 26 q 181 -6 135 7 q 282 -19 228 -19 q 408 10 367 -19 q 449 81 449 39 q 393 163 449 136 q 292 211 338 190 q 215 256 247 232 q 166 313 183 281 q 149 397 149 346 m 300 421 q 313 376 300 393 q 347 344 325 358 q 401 315 369 329 q 468 281 432 301 q 545 344 513 306 q 578 429 578 382 q 565 476 578 457 q 530 509 553 494 q 476 538 507 524 q 410 571 446 551 q 334 508 368 547 q 300 421 300 468 z "},"¨":{"ha":636,"x_min":257,"x_max":728,"o":"m 626 846 q 567 868 590 846 q 543 926 543 890 q 552 970 543 950 q 575 1004 561 990 q 607 1026 589 1018 q 643 1033 625 1033 q 703 1010 679 1033 q 728 949 728 988 q 719 908 728 926 q 695 875 710 889 q 663 853 681 861 q 626 846 644 846 m 340 846 q 281 868 304 846 q 257 926 257 890 q 266 970 257 950 q 289 1004 275 990 q 321 1026 303 1018 q 357 1033 339 1033 q 417 1010 393 1033 q 442 949 442 988 q 433 908 442 926 q 409 875 424 889 q 376 853 394 861 q 340 846 358 846 z "},"©":{"ha":1131,"x_min":193,"x_max":1151,"o":"m 1151 482 q 1113 270 1151 364 q 1008 112 1074 176 q 855 13 942 47 q 672 -21 768 -21 q 490 13 576 -21 q 337 112 403 47 q 232 270 271 176 q 193 482 193 364 q 232 694 193 600 q 337 852 271 788 q 490 951 403 917 q 672 985 576 985 q 855 951 768 985 q 1008 852 942 917 q 1113 694 1074 788 q 1151 482 1151 600 m 1029 482 q 1003 641 1029 569 q 929 764 976 713 q 817 843 882 815 q 672 871 751 871 q 528 843 593 871 q 415 764 463 815 q 340 641 367 713 q 314 482 314 569 q 340 322 314 394 q 415 199 367 250 q 528 119 463 147 q 672 92 593 92 q 817 119 751 92 q 929 199 882 147 q 1003 322 976 250 q 1029 482 1029 394 m 692 208 q 500 280 569 208 q 431 483 431 351 q 451 599 431 547 q 506 685 471 650 q 588 738 540 719 q 689 757 635 757 q 803 738 760 757 q 858 711 846 719 l 821 608 q 772 630 803 619 q 697 640 742 640 q 601 601 639 640 q 564 486 564 561 q 572 424 564 453 q 596 372 579 394 q 638 338 613 350 q 700 325 664 325 q 781 335 749 325 q 832 356 813 346 l 864 250 q 802 224 849 240 q 692 208 756 208 z "},"ª":{"ha":597,"x_min":215,"x_max":731,"o":"m 583 868 q 568 872 578 871 q 550 872 558 872 q 466 856 504 872 q 399 810 428 839 q 355 742 371 781 q 339 657 339 703 q 358 585 339 617 q 429 553 378 553 q 524 585 481 553 q 522 597 522 590 q 522 608 522 603 q 528 655 522 628 q 540 708 533 682 l 583 868 m 731 958 q 706 874 719 922 q 678 773 692 825 q 656 671 665 721 q 647 582 647 621 q 653 523 647 553 q 674 461 658 493 l 568 446 q 557 465 563 453 q 549 489 551 478 q 478 454 517 468 q 399 440 440 440 q 317 456 351 440 q 260 500 283 472 q 226 565 238 528 q 215 644 215 601 q 243 783 215 721 q 319 890 271 846 q 433 958 368 933 q 575 982 499 982 q 656 975 613 982 q 731 958 699 968 z "},"«":{"ha":764,"x_min":129,"x_max":860,"o":"m 528 651 l 310 382 l 413 126 l 300 74 l 129 403 l 422 714 l 528 651 m 860 651 l 642 382 l 744 126 l 632 74 l 461 403 l 754 714 l 860 651 z "},"¬":{"ha":789,"x_min":161,"x_max":833,"o":"m 833 551 l 717 65 l 564 65 l 647 410 l 161 410 l 196 551 l 833 551 z "},"­":{"ha":443,"x_min":115,"x_max":521,"o":"m 151 474 l 521 474 l 485 319 l 115 319 l 151 474 z "},"®":{"ha":1131,"x_min":193,"x_max":1151,"o":"m 1151 482 q 1113 269 1151 363 q 1008 112 1074 176 q 855 13 942 47 q 672 -21 768 -21 q 491 13 578 -21 q 338 112 404 47 q 233 269 272 176 q 193 482 193 363 q 233 694 193 600 q 338 852 272 788 q 491 951 404 917 q 672 985 578 985 q 855 951 768 985 q 1008 852 942 917 q 1113 694 1074 788 q 1151 482 1151 600 m 1031 482 q 1004 641 1031 569 q 930 764 978 713 q 817 843 882 815 q 672 871 751 871 q 528 843 593 871 q 415 764 463 815 q 342 641 368 713 q 315 482 315 569 q 342 322 315 394 q 415 199 368 250 q 528 119 463 147 q 672 92 593 92 q 817 119 751 92 q 930 199 882 147 q 1004 322 978 250 q 1031 482 1031 394 m 783 225 q 728 331 756 283 q 675 411 700 379 l 600 411 l 600 225 l 483 225 l 483 732 q 568 747 526 743 q 642 751 610 751 q 816 708 757 751 q 875 578 875 665 q 852 495 875 531 q 786 440 829 460 q 846 347 814 400 q 908 225 878 294 l 783 225 m 600 506 l 639 506 q 725 520 693 506 q 757 579 757 535 q 727 634 757 618 q 651 650 697 650 q 627 650 639 650 q 600 647 615 650 l 600 506 z "},"¯":{"ha":507,"x_min":233,"x_max":681,"o":"m 233 876 l 263 997 l 681 997 l 651 876 l 233 876 z "},"°":{"ha":499,"x_min":218,"x_max":636,"o":"m 426 1081 q 506 1067 468 1081 q 574 1026 544 1053 q 619 962 603 1000 q 636 876 636 924 q 619 791 636 829 q 574 726 603 753 q 506 686 544 700 q 426 672 468 672 q 347 686 385 672 q 281 726 310 700 q 235 791 251 753 q 218 876 218 829 q 235 962 218 924 q 281 1026 251 1000 q 347 1067 310 1053 q 426 1081 385 1081 m 426 785 q 489 809 463 785 q 515 876 515 833 q 489 944 515 919 q 426 969 463 969 q 364 944 390 969 q 338 876 338 919 q 364 809 338 833 q 426 785 390 785 z "},"±":{"ha":789,"x_min":69,"x_max":853,"o":"m 104 142 l 742 142 l 707 0 l 69 0 l 104 142 m 215 607 l 457 607 l 519 868 l 674 868 l 611 607 l 853 607 l 818 465 l 576 465 l 515 207 l 363 207 l 424 465 l 181 465 l 215 607 z "},"²":{"ha":504,"x_min":161,"x_max":606,"o":"m 319 535 l 567 535 l 543 428 l 161 428 q 176 512 164 475 q 212 580 189 549 q 269 638 235 611 q 350 693 303 665 q 413 732 388 715 q 454 764 439 749 q 476 794 469 779 q 482 828 482 808 q 465 864 482 851 q 422 876 449 876 q 344 858 381 876 q 279 815 307 839 l 238 904 q 326 962 274 939 q 442 985 379 985 q 561 949 517 985 q 606 844 606 914 q 590 771 606 803 q 546 711 574 739 q 481 658 518 683 q 399 603 443 632 q 351 571 375 588 q 319 535 328 554 z "},"³":{"ha":504,"x_min":157,"x_max":618,"o":"m 204 556 q 267 531 229 540 q 342 521 304 521 q 390 525 367 521 q 432 539 414 529 q 461 565 450 549 q 472 604 472 581 q 363 665 472 665 l 313 665 l 336 758 l 385 758 q 426 763 406 758 q 464 778 447 768 q 491 801 481 788 q 501 832 501 815 q 431 881 501 881 q 358 869 394 881 q 297 846 322 858 l 274 938 q 356 969 303 954 q 460 985 410 985 q 576 954 535 985 q 618 861 618 924 q 592 776 618 813 q 518 719 565 740 q 570 676 550 704 q 590 606 590 647 q 570 522 590 557 q 515 463 550 486 q 434 428 481 439 q 336 417 388 417 q 235 428 281 417 q 157 458 189 439 l 204 556 z "},"´":{"ha":463,"x_min":196,"x_max":526,"o":"m 436 1100 l 526 986 l 264 810 l 196 893 l 436 1100 z "},"µ":{"ha":818,"x_min":40,"x_max":867,"o":"m 867 726 l 765 304 q 753 249 758 274 q 749 203 749 224 q 766 148 749 168 q 831 124 783 128 l 782 -14 q 669 7 710 -12 q 610 58 629 26 q 506 3 561 22 q 392 -15 450 -15 q 322 -3 356 -15 q 265 36 288 10 q 256 -35 263 3 q 238 -119 249 -72 l 207 -244 l 40 -244 l 272 726 l 440 726 l 353 360 q 338 297 346 332 q 331 229 331 263 q 335 189 331 208 q 352 155 340 169 q 384 132 364 140 q 436 124 404 124 q 508 137 472 124 q 583 185 544 150 q 603 328 586 257 l 699 726 l 867 726 z "},"¶":{"ha":936,"x_min":208,"x_max":1021,"o":"m 444 361 q 267 433 325 372 q 208 597 208 494 q 253 765 208 694 q 373 882 297 836 q 549 950 449 928 q 764 972 650 972 q 892 967 826 972 q 1021 949 958 961 l 732 -257 l 579 -257 l 842 833 q 810 838 832 836 q 764 840 788 840 q 739 840 754 840 q 713 839 724 840 l 449 -257 l 296 -257 l 444 361 z "},"·":{"ha":368,"x_min":169,"x_max":388,"o":"m 288 519 q 360 494 332 519 q 388 421 388 469 q 377 370 388 393 q 350 331 367 347 q 312 307 333 315 q 268 299 290 299 q 197 323 224 299 q 169 396 169 347 q 206 487 169 454 q 288 519 242 519 z "},"¸":{"ha":490,"x_min":42,"x_max":347,"o":"m 286 -57 q 344 -146 344 -86 q 331 -208 344 -182 q 292 -251 317 -233 q 236 -276 268 -268 q 168 -285 204 -285 q 42 -258 92 -285 l 83 -164 q 119 -176 99 -171 q 163 -181 139 -181 q 202 -172 188 -181 q 217 -147 217 -164 q 206 -122 217 -131 q 172 -101 196 -112 l 154 -93 q 174 -61 163 -79 q 199 -26 186 -43 q 222 6 211 -8 q 238 28 233 21 l 347 28 q 317 -14 336 13 q 286 -57 297 -40 z "},"¹":{"ha":504,"x_min":247,"x_max":571,"o":"m 261 760 l 247 860 q 372 911 313 882 q 475 974 431 940 l 571 974 l 440 428 l 311 428 l 404 817 q 335 785 372 800 q 261 760 297 771 z "},"º":{"ha":631,"x_min":222,"x_max":731,"o":"m 222 628 q 241 754 222 690 q 298 869 260 818 q 395 952 336 919 q 536 985 454 985 q 681 935 632 985 q 731 797 731 885 q 712 671 731 735 q 655 556 693 607 q 557 473 617 506 q 417 440 497 440 q 272 490 321 440 q 222 628 222 540 m 347 638 q 370 567 347 589 q 433 546 393 546 q 502 567 471 546 q 556 622 533 588 q 592 699 579 656 q 606 788 606 743 q 583 858 606 836 q 519 879 560 879 q 450 858 482 879 q 395 803 418 838 q 360 726 372 769 q 347 638 347 682 z "},"»":{"ha":764,"x_min":93,"x_max":824,"o":"m 93 136 l 311 406 l 208 661 l 321 714 l 492 385 l 199 74 l 93 136 m 425 136 l 643 406 l 540 661 l 653 714 l 824 385 l 531 74 l 425 136 z "},"¼":{"ha":1219,"x_min":233,"x_max":1228,"o":"m 1151 963 l 408 0 l 247 0 l 992 963 l 1151 963 m 247 760 l 233 860 q 358 911 299 882 q 461 974 417 940 l 557 974 l 426 428 l 297 428 l 390 817 q 321 785 358 800 q 247 760 283 771 m 1036 222 l 1085 422 q 982 328 1036 382 q 890 222 928 275 l 1036 222 m 1114 547 l 1228 547 l 1150 222 l 1217 222 l 1193 128 l 1126 128 l 1096 1 l 982 1 l 1013 128 l 750 128 l 768 207 q 837 296 797 250 q 922 385 876 342 q 1015 471 967 429 q 1114 547 1064 513 z "},"½":{"ha":1219,"x_min":217,"x_max":1231,"o":"m 1121 963 l 378 0 l 217 0 l 961 963 l 1121 963 m 254 760 l 240 860 q 365 911 306 882 q 468 974 424 940 l 564 974 l 433 428 l 304 428 l 397 817 q 328 785 365 800 q 254 760 290 771 m 944 108 l 1192 108 l 1168 1 l 786 1 q 801 85 789 49 q 837 153 814 122 q 894 212 860 185 q 975 267 928 239 q 1038 306 1013 289 q 1079 338 1064 322 q 1101 367 1094 353 q 1107 401 1107 382 q 1090 438 1107 425 q 1047 450 1074 450 q 969 431 1006 450 q 904 389 932 413 l 863 478 q 951 535 899 513 q 1067 558 1004 558 q 1186 523 1142 558 q 1231 418 1231 488 q 1215 344 1231 376 q 1171 285 1199 313 q 1106 231 1143 257 q 1024 176 1068 206 q 976 144 1000 161 q 944 108 953 128 z "},"¾":{"ha":1219,"x_min":136,"x_max":1242,"o":"m 1182 963 l 439 0 l 278 0 l 1022 963 l 1182 963 m 1050 222 l 1099 422 q 996 328 1050 382 q 904 222 942 275 l 1050 222 m 1128 547 l 1242 547 l 1164 222 l 1231 222 l 1207 128 l 1140 128 l 1110 1 l 996 1 l 1026 128 l 764 128 l 782 207 q 851 296 811 250 q 935 385 890 342 q 1029 471 981 429 q 1128 547 1078 513 m 183 556 q 246 531 208 540 q 321 521 283 521 q 369 525 346 521 q 411 539 393 529 q 440 565 429 549 q 451 604 451 581 q 342 665 451 665 l 292 665 l 315 758 l 364 758 q 406 763 385 758 q 443 778 426 768 q 470 801 460 788 q 481 832 481 815 q 410 881 481 881 q 338 869 374 881 q 276 846 301 858 l 253 938 q 335 969 282 954 q 439 985 389 985 q 556 954 514 985 q 597 861 597 924 q 571 776 597 813 q 497 719 544 740 q 549 676 529 704 q 569 606 569 647 q 549 522 569 557 q 494 463 529 486 q 413 428 460 439 q 315 417 367 417 q 214 428 260 417 q 136 458 168 439 l 183 556 z "},"¿":{"ha":575,"x_min":50,"x_max":594,"o":"m 361 140 q 271 60 306 97 q 227 1 236 24 q 218 -42 218 -21 q 225 -78 218 -60 q 255 -111 232 -96 q 322 -126 278 -126 q 431 -110 381 -126 q 511 -76 481 -93 l 532 -208 q 424 -250 488 -233 q 293 -267 360 -267 q 114 -213 178 -267 q 50 -71 50 -160 q 63 15 50 -24 q 99 84 76 53 q 153 142 122 115 q 217 196 183 169 l 264 233 q 344 310 307 268 q 383 404 382 353 l 532 404 q 516 321 531 358 q 478 252 501 283 q 425 194 456 221 q 361 140 394 167 m 475 506 q 403 530 431 506 q 376 603 376 554 q 413 694 376 661 q 494 726 449 726 q 567 701 539 726 q 594 628 594 676 q 584 577 594 600 q 557 538 574 554 q 519 514 540 522 q 475 506 497 506 z "},"À":{"ha":911,"x_min":10,"x_max":910,"o":"m 733 0 q 724 116 729 58 q 714 228 719 174 l 324 228 q 260 117 292 174 q 197 0 229 61 l 10 0 q 172 278 94 147 q 322 526 249 408 q 466 752 394 644 q 610 963 538 860 l 772 963 q 849 510 817 756 q 910 0 881 265 l 733 0 m 653 779 q 535 595 600 697 q 399 367 471 493 l 700 367 q 680 569 692 465 q 653 779 668 672 m 618 1321 l 824 1103 l 746 1025 l 515 1211 l 618 1321 z "},"Á":{"ha":911,"x_min":10,"x_max":910,"o":"m 733 0 q 724 116 729 58 q 714 228 719 174 l 324 228 q 260 117 292 174 q 197 0 229 61 l 10 0 q 172 278 94 147 q 322 526 249 408 q 466 752 394 644 q 610 963 538 860 l 772 963 q 849 510 817 756 q 910 0 881 265 l 733 0 m 653 779 q 535 595 600 697 q 399 367 471 493 l 700 367 q 680 569 692 465 q 653 779 668 672 m 810 1325 l 900 1211 l 638 1035 l 569 1118 l 810 1325 z "},"Â":{"ha":911,"x_min":10,"x_max":914,"o":"m 733 0 q 724 116 729 58 q 714 228 719 174 l 324 228 q 260 117 292 174 q 197 0 229 61 l 10 0 q 172 278 94 147 q 322 526 249 408 q 466 752 394 644 q 610 963 538 860 l 772 963 q 849 510 817 756 q 910 0 881 265 l 733 0 m 653 779 q 535 595 600 697 q 399 367 471 493 l 700 367 q 680 569 692 465 q 653 779 668 672 m 756 1313 l 914 1092 l 842 1026 l 729 1149 l 565 1029 l 510 1103 l 756 1313 z "},"Ã":{"ha":911,"x_min":10,"x_max":976,"o":"m 733 0 q 724 116 729 58 q 714 228 719 174 l 324 228 q 260 117 292 174 q 197 0 229 61 l 10 0 q 172 278 94 147 q 322 526 249 408 q 466 752 394 644 q 610 963 538 860 l 772 963 q 849 510 817 756 q 910 0 881 265 l 733 0 m 653 779 q 535 595 600 697 q 399 367 471 493 l 700 367 q 680 569 692 465 q 653 779 668 672 m 800 1074 q 754 1082 775 1074 q 715 1099 733 1090 q 678 1117 696 1108 q 643 1125 661 1125 q 601 1109 619 1125 q 564 1064 583 1093 l 485 1113 q 556 1213 514 1178 q 660 1247 597 1247 q 709 1239 688 1247 q 749 1221 731 1231 q 783 1203 767 1211 q 818 1194 800 1194 q 860 1211 842 1194 q 897 1257 878 1228 l 976 1208 q 904 1108 946 1142 q 800 1074 863 1074 z "},"Ä":{"ha":911,"x_min":10,"x_max":969,"o":"m 733 0 q 724 116 729 58 q 714 228 719 174 l 324 228 q 260 117 292 174 q 197 0 229 61 l 10 0 q 172 278 94 147 q 322 526 249 408 q 466 752 394 644 q 610 963 538 860 l 772 963 q 849 510 817 756 q 910 0 881 265 l 733 0 m 653 779 q 535 595 600 697 q 399 367 471 493 l 700 367 q 680 569 692 465 q 653 779 668 672 m 868 1065 q 808 1088 832 1065 q 785 1146 785 1110 q 794 1190 785 1169 q 817 1224 803 1210 q 849 1245 831 1238 q 885 1253 867 1253 q 945 1230 921 1253 q 969 1168 969 1207 q 960 1127 969 1146 q 937 1094 951 1108 q 904 1073 922 1081 q 868 1065 886 1065 m 582 1065 q 522 1088 546 1065 q 499 1146 499 1110 q 508 1190 499 1169 q 531 1224 517 1210 q 563 1245 544 1238 q 599 1253 581 1253 q 659 1230 635 1253 q 683 1168 683 1207 q 674 1127 683 1146 q 651 1094 665 1108 q 618 1073 636 1081 q 582 1065 600 1065 z "},"Å":{"ha":911,"x_min":10,"x_max":910,"o":"m 854 1044 q 834 965 854 999 q 782 914 814 932 q 852 482 822 714 q 910 0 882 250 l 733 0 q 724 116 729 58 q 714 228 719 174 l 324 228 q 260 117 292 174 q 197 0 229 61 l 10 0 q 165 269 90 142 q 311 510 240 396 q 451 730 382 625 q 590 935 521 835 q 559 981 571 954 q 547 1044 547 1008 q 560 1108 547 1079 q 593 1155 572 1136 q 642 1184 614 1174 q 700 1194 669 1194 q 758 1184 731 1194 q 808 1155 786 1174 q 842 1108 829 1136 q 854 1044 854 1079 m 653 779 q 535 595 600 697 q 399 367 471 493 l 700 367 q 680 569 692 465 q 653 779 668 672 m 768 1044 q 748 1097 768 1078 q 700 1115 728 1115 q 652 1097 672 1115 q 632 1044 632 1078 q 652 992 632 1011 q 700 974 672 974 q 748 992 728 974 q 768 1044 768 1011 z "},"Æ":{"ha":1321,"x_min":3,"x_max":1463,"o":"m 708 238 l 368 238 q 278 118 324 179 q 192 0 232 57 l 3 0 q 219 280 117 150 q 418 526 321 410 q 611 751 515 643 q 810 963 707 858 l 1463 963 l 1426 815 l 1014 815 l 957 575 l 1321 575 l 1286 432 l 924 432 l 854 147 l 1299 147 l 1264 0 l 651 0 l 708 238 m 844 804 q 756 708 803 760 q 660 599 708 656 q 565 487 613 543 q 475 378 518 431 l 742 378 l 844 804 z "},"Ç":{"ha":842,"x_min":168,"x_max":1003,"o":"m 529 -57 q 588 -146 588 -86 q 574 -208 588 -182 q 535 -251 560 -233 q 479 -276 511 -268 q 411 -285 447 -285 q 285 -258 335 -285 l 326 -164 q 362 -176 342 -171 q 406 -181 382 -181 q 445 -172 431 -181 q 460 -147 460 -164 q 449 -122 460 -131 q 415 -101 439 -112 l 397 -93 q 422 -54 407 -76 q 450 -12 436 -32 q 242 115 315 14 q 168 371 168 215 q 207 598 168 488 q 319 794 246 708 q 499 933 393 881 q 738 985 604 985 q 890 965 825 985 q 1003 918 954 946 l 936 778 q 841 819 892 804 q 726 833 790 833 q 569 794 639 833 q 451 692 500 756 q 376 549 401 629 q 350 385 350 468 q 406 194 350 256 q 571 132 463 132 q 713 151 654 132 q 813 189 771 169 l 833 42 q 720 -1 789 18 q 554 -21 651 -19 q 529 -57 538 -42 z "},"È":{"ha":794,"x_min":108,"x_max":936,"o":"m 108 0 l 339 963 l 936 963 l 901 817 l 478 817 l 421 575 l 796 575 l 761 432 l 388 432 l 318 146 l 774 146 l 739 0 l 108 0 m 583 1321 l 789 1103 l 711 1025 l 481 1211 l 583 1321 z "},"É":{"ha":794,"x_min":108,"x_max":936,"o":"m 108 0 l 339 963 l 936 963 l 901 817 l 478 817 l 421 575 l 796 575 l 761 432 l 388 432 l 318 146 l 774 146 l 739 0 l 108 0 m 789 1325 l 879 1211 l 617 1035 l 549 1118 l 789 1325 z "},"Ê":{"ha":794,"x_min":108,"x_max":936,"o":"m 108 0 l 339 963 l 936 963 l 901 817 l 478 817 l 421 575 l 796 575 l 761 432 l 388 432 l 318 146 l 774 146 l 739 0 l 108 0 m 717 1313 l 875 1092 l 803 1026 l 690 1149 l 526 1029 l 471 1103 l 717 1313 z "},"Ë":{"ha":794,"x_min":108,"x_max":936,"o":"m 108 0 l 339 963 l 936 963 l 901 817 l 478 817 l 421 575 l 796 575 l 761 432 l 388 432 l 318 146 l 774 146 l 739 0 l 108 0 m 811 1065 q 751 1088 775 1065 q 728 1146 728 1110 q 737 1190 728 1169 q 760 1224 746 1210 q 792 1245 774 1238 q 828 1253 810 1253 q 888 1230 864 1253 q 913 1168 913 1207 q 903 1127 913 1146 q 880 1094 894 1108 q 847 1073 865 1081 q 811 1065 829 1065 m 525 1065 q 465 1088 489 1065 q 442 1146 442 1110 q 451 1190 442 1169 q 474 1224 460 1210 q 506 1245 488 1238 q 542 1253 524 1253 q 602 1230 578 1253 q 626 1168 626 1207 q 617 1127 626 1146 q 594 1094 608 1108 q 561 1073 579 1081 q 525 1065 543 1065 z "},"Ì":{"ha":397,"x_min":108,"x_max":561,"o":"m 339 963 l 514 963 l 283 0 l 108 0 l 339 963 m 356 1321 l 561 1103 l 483 1025 l 253 1211 l 356 1321 z "},"Í":{"ha":397,"x_min":108,"x_max":663,"o":"m 339 963 l 514 963 l 283 0 l 108 0 l 339 963 m 572 1325 l 663 1211 l 400 1035 l 332 1118 l 572 1325 z "},"Î":{"ha":397,"x_min":108,"x_max":660,"o":"m 339 963 l 514 963 l 283 0 l 108 0 l 339 963 m 501 1313 l 660 1092 l 588 1026 l 475 1149 l 311 1029 l 256 1103 l 501 1313 z "},"Ï":{"ha":397,"x_min":108,"x_max":708,"o":"m 339 963 l 514 963 l 283 0 l 108 0 l 339 963 m 607 1065 q 547 1088 571 1065 q 524 1146 524 1110 q 533 1190 524 1169 q 556 1224 542 1210 q 588 1245 569 1238 q 624 1253 606 1253 q 684 1230 660 1253 q 708 1168 708 1207 q 699 1127 708 1146 q 676 1094 690 1108 q 643 1073 661 1081 q 607 1065 625 1065 m 321 1065 q 261 1088 285 1065 q 238 1146 238 1110 q 247 1190 238 1169 q 269 1224 256 1210 q 301 1245 283 1238 q 338 1253 319 1253 q 398 1230 374 1253 q 422 1168 422 1207 q 413 1127 422 1146 q 390 1094 404 1108 q 357 1073 375 1081 q 321 1065 339 1065 z "},"Ð":{"ha":1004,"x_min":131,"x_max":1061,"o":"m 161 567 l 274 567 l 365 947 q 503 967 433 963 q 631 972 572 972 q 817 945 736 972 q 951 869 897 918 q 1033 749 1006 819 q 1061 593 1061 679 q 1019 353 1061 464 q 896 161 978 242 q 691 35 814 81 q 406 -11 568 -11 q 275 -5 347 -11 q 142 15 203 1 l 242 435 l 131 435 l 161 567 m 449 567 l 626 567 l 594 435 l 417 435 l 347 143 q 383 140 363 140 q 446 139 403 139 q 626 171 546 139 q 763 262 707 203 q 850 403 819 321 q 881 588 881 486 q 818 761 881 697 q 614 825 756 825 q 556 824 578 825 q 510 819 535 822 l 449 567 z "},"Ñ":{"ha":999,"x_min":108,"x_max":1114,"o":"m 743 0 q 683 174 717 81 q 610 360 649 267 q 531 541 572 453 q 449 703 490 629 l 281 0 l 108 0 l 339 963 l 479 963 q 560 819 518 900 q 643 651 603 739 q 721 474 683 563 q 786 306 758 385 l 940 963 l 1114 963 l 883 0 l 743 0 m 839 1074 q 793 1082 814 1074 q 753 1099 772 1090 q 717 1117 735 1108 q 682 1125 700 1125 q 640 1109 658 1125 q 603 1064 622 1093 l 524 1113 q 594 1213 553 1178 q 699 1247 636 1247 q 748 1239 726 1247 q 788 1221 769 1231 q 822 1203 806 1211 q 857 1194 839 1194 q 899 1211 881 1194 q 936 1257 917 1228 l 1015 1208 q 943 1108 985 1142 q 839 1074 901 1074 z "},"Ò":{"ha":1031,"x_min":168,"x_max":1088,"o":"m 701 833 q 558 794 622 833 q 447 690 493 754 q 376 545 401 626 q 350 381 350 464 q 399 199 350 267 q 554 131 447 131 q 699 170 633 131 q 810 274 764 210 q 881 419 856 338 q 907 583 907 500 q 858 765 907 697 q 701 833 808 833 m 536 -21 q 388 5 456 -21 q 272 79 321 31 q 195 200 222 128 q 168 365 168 272 q 204 588 168 476 q 310 787 240 699 q 483 930 381 875 q 719 985 586 985 q 868 959 800 985 q 985 885 936 933 q 1060 764 1033 836 q 1088 599 1088 692 q 1051 376 1088 488 q 946 177 1015 265 q 773 34 876 89 q 536 -21 669 -21 m 704 1321 l 910 1103 l 832 1025 l 601 1211 l 704 1321 z "},"Ó":{"ha":1031,"x_min":168,"x_max":1088,"o":"m 701 833 q 558 794 622 833 q 447 690 493 754 q 376 545 401 626 q 350 381 350 464 q 399 199 350 267 q 554 131 447 131 q 699 170 633 131 q 810 274 764 210 q 881 419 856 338 q 907 583 907 500 q 858 765 907 697 q 701 833 808 833 m 536 -21 q 388 5 456 -21 q 272 79 321 31 q 195 200 222 128 q 168 365 168 272 q 204 588 168 476 q 310 787 240 699 q 483 930 381 875 q 719 985 586 985 q 868 959 800 985 q 985 885 936 933 q 1060 764 1033 836 q 1088 599 1088 692 q 1051 376 1088 488 q 946 177 1015 265 q 773 34 876 89 q 536 -21 669 -21 m 849 1325 l 939 1211 l 676 1035 l 608 1118 l 849 1325 z "},"Ô":{"ha":1031,"x_min":168,"x_max":1088,"o":"m 701 833 q 558 794 622 833 q 447 690 493 754 q 376 545 401 626 q 350 381 350 464 q 399 199 350 267 q 554 131 447 131 q 699 170 633 131 q 810 274 764 210 q 881 419 856 338 q 907 583 907 500 q 858 765 907 697 q 701 833 808 833 m 536 -21 q 388 5 456 -21 q 272 79 321 31 q 195 200 222 128 q 168 365 168 272 q 204 588 168 476 q 310 787 240 699 q 483 930 381 875 q 719 985 586 985 q 868 959 800 985 q 985 885 936 933 q 1060 764 1033 836 q 1088 599 1088 692 q 1051 376 1088 488 q 946 177 1015 265 q 773 34 876 89 q 536 -21 669 -21 m 794 1313 l 953 1092 l 881 1026 l 768 1149 l 604 1029 l 549 1103 l 794 1313 z "},"Õ":{"ha":1031,"x_min":168,"x_max":1088,"o":"m 701 833 q 558 794 622 833 q 447 690 493 754 q 376 545 401 626 q 350 381 350 464 q 399 199 350 267 q 554 131 447 131 q 699 170 633 131 q 810 274 764 210 q 881 419 856 338 q 907 583 907 500 q 858 765 907 697 q 701 833 808 833 m 536 -21 q 388 5 456 -21 q 272 79 321 31 q 195 200 222 128 q 168 365 168 272 q 204 588 168 476 q 310 787 240 699 q 483 930 381 875 q 719 985 586 985 q 868 959 800 985 q 985 885 936 933 q 1060 764 1033 836 q 1088 599 1088 692 q 1051 376 1088 488 q 946 177 1015 265 q 773 34 876 89 q 536 -21 669 -21 m 835 1074 q 789 1082 810 1074 q 749 1099 768 1090 q 713 1117 731 1108 q 678 1125 696 1125 q 636 1109 654 1125 q 599 1064 618 1093 l 519 1113 q 590 1213 549 1178 q 694 1247 632 1247 q 744 1239 722 1247 q 783 1221 765 1231 q 818 1203 801 1211 q 853 1194 835 1194 q 894 1211 876 1194 q 932 1257 913 1228 l 1011 1208 q 939 1108 981 1142 q 835 1074 897 1074 z "},"Ö":{"ha":1031,"x_min":168,"x_max":1088,"o":"m 701 833 q 558 794 622 833 q 447 690 493 754 q 376 545 401 626 q 350 381 350 464 q 399 199 350 267 q 554 131 447 131 q 699 170 633 131 q 810 274 764 210 q 881 419 856 338 q 907 583 907 500 q 858 765 907 697 q 701 833 808 833 m 536 -21 q 388 5 456 -21 q 272 79 321 31 q 195 200 222 128 q 168 365 168 272 q 204 588 168 476 q 310 787 240 699 q 483 930 381 875 q 719 985 586 985 q 868 959 800 985 q 985 885 936 933 q 1060 764 1033 836 q 1088 599 1088 692 q 1051 376 1088 488 q 946 177 1015 265 q 773 34 876 89 q 536 -21 669 -21 m 903 1065 q 843 1088 867 1065 q 819 1146 819 1110 q 828 1190 819 1169 q 851 1224 838 1210 q 883 1245 865 1238 q 919 1253 901 1253 q 980 1230 956 1253 q 1004 1168 1004 1207 q 995 1127 1004 1146 q 972 1094 986 1108 q 939 1073 957 1081 q 903 1065 921 1065 m 617 1065 q 557 1088 581 1065 q 533 1146 533 1110 q 542 1190 533 1169 q 565 1224 551 1210 q 597 1245 579 1238 q 633 1253 615 1253 q 694 1230 669 1253 q 718 1168 718 1207 q 709 1127 718 1146 q 685 1094 700 1108 q 653 1073 671 1081 q 617 1065 635 1065 z "},"×":{"ha":789,"x_min":146,"x_max":831,"o":"m 750 707 l 831 601 l 586 403 l 732 210 l 618 117 l 472 311 l 228 113 l 146 218 l 392 415 l 244 610 l 360 701 l 506 508 l 750 707 z "},"Ø":{"ha":1031,"x_min":144,"x_max":1119,"o":"m 542 -21 q 324 40 414 -21 l 239 -57 l 144 17 l 239 124 q 190 231 207 171 q 174 365 174 290 q 210 588 174 476 q 316 787 246 699 q 489 930 386 875 q 725 985 592 985 q 842 969 788 985 q 942 924 897 953 l 1026 1019 l 1119 946 l 1026 840 q 1076 733 1058 793 q 1093 599 1093 674 q 1057 376 1093 488 q 951 177 1021 265 q 778 34 882 89 q 542 -21 675 -21 m 913 583 q 899 693 913 647 l 435 167 q 560 131 483 131 q 704 170 639 131 q 815 274 769 210 q 887 419 861 338 q 913 583 913 500 m 707 833 q 563 794 628 833 q 453 690 499 754 q 381 545 407 626 q 356 381 356 464 q 369 271 356 317 l 831 797 q 707 833 783 833 z "},"Ù":{"ha":940,"x_min":179,"x_max":1063,"o":"m 917 354 q 864 196 896 265 q 781 78 832 126 q 658 5 731 31 q 482 -21 585 -21 q 344 1 401 -21 q 250 60 286 22 q 197 149 214 97 q 179 263 179 201 q 184 333 179 294 q 199 408 189 372 l 331 963 l 507 963 l 369 389 q 358 334 363 363 q 354 279 354 306 q 362 222 354 249 q 388 175 369 194 q 435 144 406 156 q 507 132 464 132 q 663 192 608 132 q 744 371 717 251 l 886 963 l 1063 963 l 917 354 m 622 1321 l 828 1103 l 750 1025 l 519 1211 l 622 1321 z "},"Ú":{"ha":940,"x_min":179,"x_max":1063,"o":"m 917 354 q 864 196 896 265 q 781 78 832 126 q 658 5 731 31 q 482 -21 585 -21 q 344 1 401 -21 q 250 60 286 22 q 197 149 214 97 q 179 263 179 201 q 184 333 179 294 q 199 408 189 372 l 331 963 l 507 963 l 369 389 q 358 334 363 363 q 354 279 354 306 q 362 222 354 249 q 388 175 369 194 q 435 144 406 156 q 507 132 464 132 q 663 192 608 132 q 744 371 717 251 l 886 963 l 1063 963 l 917 354 m 819 1325 l 910 1211 l 647 1035 l 579 1118 l 819 1325 z "},"Û":{"ha":940,"x_min":179,"x_max":1063,"o":"m 917 354 q 864 196 896 265 q 781 78 832 126 q 658 5 731 31 q 482 -21 585 -21 q 344 1 401 -21 q 250 60 286 22 q 197 149 214 97 q 179 263 179 201 q 184 333 179 294 q 199 408 189 372 l 331 963 l 507 963 l 369 389 q 358 334 363 363 q 354 279 354 306 q 362 222 354 249 q 388 175 369 194 q 435 144 406 156 q 507 132 464 132 q 663 192 608 132 q 744 371 717 251 l 886 963 l 1063 963 l 917 354 m 761 1313 l 919 1092 l 847 1026 l 735 1149 l 571 1029 l 515 1103 l 761 1313 z "},"Ü":{"ha":940,"x_min":179,"x_max":1063,"o":"m 917 354 q 864 196 896 265 q 781 78 832 126 q 658 5 731 31 q 482 -21 585 -21 q 344 1 401 -21 q 250 60 286 22 q 197 149 214 97 q 179 263 179 201 q 184 333 179 294 q 199 408 189 372 l 331 963 l 507 963 l 369 389 q 358 334 363 363 q 354 279 354 306 q 362 222 354 249 q 388 175 369 194 q 435 144 406 156 q 507 132 464 132 q 663 192 608 132 q 744 371 717 251 l 886 963 l 1063 963 l 917 354 m 864 1065 q 804 1088 828 1065 q 781 1146 781 1110 q 790 1190 781 1169 q 813 1224 799 1210 q 844 1245 826 1238 q 881 1253 863 1253 q 941 1230 917 1253 q 965 1168 965 1207 q 956 1127 965 1146 q 933 1094 947 1108 q 900 1073 918 1081 q 864 1065 882 1065 m 578 1065 q 518 1088 542 1065 q 494 1146 494 1110 q 503 1190 494 1169 q 526 1224 513 1210 q 558 1245 540 1238 q 594 1253 576 1253 q 655 1230 631 1253 q 679 1168 679 1207 q 670 1127 679 1146 q 647 1094 661 1108 q 614 1073 632 1081 q 578 1065 596 1065 z "},"Ý":{"ha":826,"x_min":224,"x_max":1047,"o":"m 531 538 q 698 747 617 642 q 850 963 779 851 l 1047 963 q 939 814 993 886 q 828 670 885 742 q 713 528 772 599 q 589 383 653 457 l 497 0 l 322 0 l 414 383 q 310 673 357 529 q 224 963 264 817 l 410 963 q 464 749 433 856 q 531 538 494 642 m 761 1325 l 851 1211 l 589 1035 l 521 1118 l 761 1325 z "},"Þ":{"ha":872,"x_min":107,"x_max":924,"o":"m 514 963 l 478 814 q 533 817 501 817 q 589 818 565 818 q 737 799 674 818 q 842 745 800 779 q 903 663 883 711 q 924 560 924 615 q 892 413 924 481 q 798 294 861 344 q 641 216 735 244 q 422 188 547 188 l 326 188 l 282 0 l 107 0 l 338 963 l 514 963 m 544 669 q 482 668 507 669 q 442 664 457 667 l 363 336 l 440 336 q 553 345 499 336 q 650 378 608 354 q 717 444 692 403 q 743 547 743 485 q 690 642 743 615 q 544 669 636 669 z "},"ß":{"ha":863,"x_min":-31,"x_max":910,"o":"m 290 779 q 344 916 310 860 q 426 1008 379 972 q 531 1061 472 1044 q 656 1078 589 1078 q 758 1063 711 1078 q 838 1022 804 1049 q 891 960 872 996 q 910 881 910 924 q 881 770 910 817 q 792 669 851 724 q 719 601 749 631 q 689 528 689 571 q 714 478 689 499 q 775 432 739 457 q 857 353 825 396 q 889 244 889 311 q 864 129 889 178 q 796 48 839 81 q 696 -1 753 15 q 575 -17 639 -17 q 457 -1 513 -17 q 371 32 401 14 l 432 165 q 499 135 460 149 q 585 122 538 122 q 683 150 644 122 q 721 229 721 178 q 703 282 721 258 q 646 333 686 306 q 579 381 604 360 q 541 424 554 403 q 523 465 528 444 q 518 510 518 486 q 548 604 518 564 q 616 681 578 644 q 690 751 654 717 q 732 809 725 785 q 739 861 739 833 q 716 913 739 890 q 640 935 693 935 q 523 894 572 935 q 453 764 474 853 l 307 153 q 273 19 289 78 q 236 -87 257 -39 q 187 -178 215 -136 q 115 -262 158 -221 l -31 -240 q 19 -173 -4 -207 q 60 -101 42 -139 q 95 -17 79 -62 q 124 83 111 28 l 290 779 z "},"à":{"ha":775,"x_min":132,"x_max":836,"o":"m 736 282 q 728 232 732 267 q 724 167 724 197 q 731 88 724 126 q 753 11 738 50 l 603 -11 q 576 60 586 22 q 491 5 542 29 q 376 -19 440 -19 q 265 2 311 -19 q 189 62 218 24 q 146 151 160 100 q 132 263 132 203 q 168 451 132 364 q 269 603 204 539 q 422 703 333 667 q 617 740 511 740 q 726 731 671 740 q 836 697 781 722 l 736 282 m 644 596 q 585 601 618 601 q 469 574 522 601 q 378 502 417 547 q 319 399 340 457 q 299 276 299 340 q 304 217 299 244 q 323 168 310 189 q 358 135 336 147 q 415 122 381 122 q 494 141 460 122 q 557 192 528 160 q 563 260 558 228 q 576 324 568 292 l 644 596 m 554 1096 l 760 878 l 682 800 l 451 986 l 554 1096 z "},"á":{"ha":775,"x_min":132,"x_max":836,"o":"m 736 282 q 728 232 732 267 q 724 167 724 197 q 731 88 724 126 q 753 11 738 50 l 603 -11 q 576 60 586 22 q 491 5 542 29 q 376 -19 440 -19 q 265 2 311 -19 q 189 62 218 24 q 146 151 160 100 q 132 263 132 203 q 168 451 132 364 q 269 603 204 539 q 422 703 333 667 q 617 740 511 740 q 726 731 671 740 q 836 697 781 722 l 736 282 m 644 596 q 585 601 618 601 q 469 574 522 601 q 378 502 417 547 q 319 399 340 457 q 299 276 299 340 q 304 217 299 244 q 323 168 310 189 q 358 135 336 147 q 415 122 381 122 q 494 141 460 122 q 557 192 528 160 q 563 260 558 228 q 576 324 568 292 l 644 596 m 715 1100 l 806 986 l 543 810 l 475 893 l 715 1100 z "},"â":{"ha":775,"x_min":132,"x_max":836,"o":"m 736 282 q 728 232 732 267 q 724 167 724 197 q 731 88 724 126 q 753 11 738 50 l 603 -11 q 576 60 586 22 q 491 5 542 29 q 376 -19 440 -19 q 265 2 311 -19 q 189 62 218 24 q 146 151 160 100 q 132 263 132 203 q 168 451 132 364 q 269 603 204 539 q 422 703 333 667 q 617 740 511 740 q 726 731 671 740 q 836 697 781 722 l 736 282 m 644 596 q 585 601 618 601 q 469 574 522 601 q 378 502 417 547 q 319 399 340 457 q 299 276 299 340 q 304 217 299 244 q 323 168 310 189 q 358 135 336 147 q 415 122 381 122 q 494 141 460 122 q 557 192 528 160 q 563 260 558 228 q 576 324 568 292 l 644 596 m 639 1089 l 797 868 l 725 803 l 613 925 l 449 806 l 393 879 l 639 1089 z "},"ã":{"ha":775,"x_min":132,"x_max":867,"o":"m 736 282 q 728 232 732 267 q 724 167 724 197 q 731 88 724 126 q 753 11 738 50 l 603 -11 q 576 60 586 22 q 491 5 542 29 q 376 -19 440 -19 q 265 2 311 -19 q 189 62 218 24 q 146 151 160 100 q 132 263 132 203 q 168 451 132 364 q 269 603 204 539 q 422 703 333 667 q 617 740 511 740 q 726 731 671 740 q 836 697 781 722 l 736 282 m 644 596 q 585 601 618 601 q 469 574 522 601 q 378 502 417 547 q 319 399 340 457 q 299 276 299 340 q 304 217 299 244 q 323 168 310 189 q 358 135 336 147 q 415 122 381 122 q 494 141 460 122 q 557 192 528 160 q 563 260 558 228 q 576 324 568 292 l 644 596 m 690 853 q 644 861 665 853 q 605 878 624 869 q 569 896 586 888 q 533 904 551 904 q 492 888 510 904 q 454 843 474 872 l 375 892 q 446 992 404 957 q 550 1026 488 1026 q 599 1018 578 1026 q 639 1000 621 1010 q 674 982 657 990 q 708 974 690 974 q 750 990 732 974 q 788 1036 768 1007 l 867 988 q 794 887 836 921 q 690 853 753 853 z "},"ä":{"ha":775,"x_min":132,"x_max":843,"o":"m 736 282 q 728 232 732 267 q 724 167 724 197 q 731 88 724 126 q 753 11 738 50 l 603 -11 q 576 60 586 22 q 491 5 542 29 q 376 -19 440 -19 q 265 2 311 -19 q 189 62 218 24 q 146 151 160 100 q 132 263 132 203 q 168 451 132 364 q 269 603 204 539 q 422 703 333 667 q 617 740 511 740 q 726 731 671 740 q 836 697 781 722 l 736 282 m 644 596 q 585 601 618 601 q 469 574 522 601 q 378 502 417 547 q 319 399 340 457 q 299 276 299 340 q 304 217 299 244 q 323 168 310 189 q 358 135 336 147 q 415 122 381 122 q 494 141 460 122 q 557 192 528 160 q 563 260 558 228 q 576 324 568 292 l 644 596 m 742 846 q 682 868 706 846 q 658 926 658 890 q 667 970 658 950 q 690 1004 676 990 q 722 1026 704 1018 q 758 1033 740 1033 q 819 1010 794 1033 q 843 949 843 988 q 834 908 843 926 q 810 875 825 889 q 778 853 796 861 q 742 846 760 846 m 456 846 q 396 868 419 846 q 372 926 372 890 q 381 970 372 950 q 404 1004 390 990 q 436 1026 418 1018 q 472 1033 454 1033 q 533 1010 508 1033 q 557 949 557 988 q 548 908 557 926 q 524 875 539 889 q 492 853 510 861 q 456 846 474 846 z "},"å":{"ha":775,"x_min":132,"x_max":836,"o":"m 736 282 q 728 232 732 267 q 724 167 724 197 q 731 88 724 126 q 753 11 738 50 l 603 -11 q 576 60 586 22 q 491 5 542 29 q 376 -19 440 -19 q 265 2 311 -19 q 189 62 218 24 q 146 151 160 100 q 132 263 132 203 q 168 451 132 364 q 269 603 204 539 q 422 703 333 667 q 617 740 511 740 q 726 731 671 740 q 836 697 781 722 l 736 282 m 644 596 q 585 601 618 601 q 469 574 522 601 q 378 502 417 547 q 319 399 340 457 q 299 276 299 340 q 304 217 299 244 q 323 168 310 189 q 358 135 336 147 q 415 122 381 122 q 494 141 460 122 q 557 192 528 160 q 563 260 558 228 q 576 324 568 292 l 644 596 m 767 956 q 754 892 767 919 q 720 844 742 864 q 671 815 699 825 q 613 804 643 804 q 554 815 582 804 q 506 844 526 825 q 472 892 485 864 q 460 956 460 919 q 472 1019 460 990 q 506 1066 485 1047 q 554 1095 526 1085 q 613 1106 582 1106 q 671 1095 643 1106 q 720 1066 699 1085 q 754 1019 742 1047 q 767 956 767 990 m 681 956 q 660 1008 681 989 q 613 1026 640 1026 q 565 1008 585 1026 q 544 956 544 989 q 565 903 544 922 q 613 885 585 885 q 660 903 640 885 q 681 956 681 922 z "},"æ":{"ha":1168,"x_min":103,"x_max":1228,"o":"m 869 -19 q 713 17 774 -19 q 618 110 651 53 q 490 9 564 47 q 325 -29 415 -29 q 161 25 219 -29 q 103 164 103 79 q 147 310 103 254 q 260 397 190 365 q 416 439 329 428 q 592 451 503 450 q 593 471 593 460 q 433 592 593 592 q 244 553 339 592 l 231 689 q 325 719 264 704 q 464 735 386 735 q 617 699 556 735 q 710 608 678 664 q 840 708 765 671 q 1006 744 914 744 q 1169 690 1111 744 q 1228 551 1228 636 q 1185 410 1228 464 q 1073 325 1142 356 q 917 283 1004 294 q 742 269 831 272 q 740 250 740 261 q 900 124 740 124 q 1089 163 994 124 l 1103 26 q 1008 -4 1069 11 q 869 -19 947 -19 m 350 108 q 430 125 392 108 q 499 172 468 142 q 551 242 529 201 q 581 332 572 283 q 336 292 413 329 q 260 181 260 256 q 280 131 260 153 q 350 108 300 108 m 981 607 q 901 590 939 607 q 835 544 864 574 q 784 476 806 515 q 753 390 763 436 q 995 431 919 396 q 1071 535 1071 465 q 1051 585 1071 563 q 981 607 1031 607 z "},"ç":{"ha":638,"x_min":135,"x_max":754,"o":"m 415 -57 q 474 -146 474 -86 q 460 -208 474 -182 q 422 -251 446 -233 q 365 -276 397 -268 q 297 -285 333 -285 q 171 -258 221 -285 l 213 -164 q 248 -176 228 -171 q 292 -181 268 -181 q 331 -172 317 -181 q 346 -147 346 -164 q 335 -122 346 -131 q 301 -101 325 -112 l 283 -93 q 308 -53 293 -76 q 339 -10 324 -29 q 184 93 233 15 q 135 275 135 171 q 165 455 135 369 q 250 605 194 540 q 386 707 306 669 q 569 744 467 744 q 669 735 624 744 q 754 708 714 726 l 694 574 q 639 593 669 585 q 564 601 608 601 q 456 577 504 601 q 375 511 408 553 q 324 413 342 469 q 306 292 306 356 q 313 226 306 256 q 338 173 321 196 q 386 138 356 150 q 463 125 417 125 q 553 138 510 125 q 621 163 597 150 l 635 25 q 553 -3 603 10 q 442 -19 504 -17 l 415 -57 z "},"è":{"ha":726,"x_min":135,"x_max":786,"o":"m 135 263 q 165 442 135 356 q 251 597 194 529 q 386 704 307 664 q 564 744 465 744 q 728 690 669 744 q 786 551 786 636 q 743 410 786 464 q 631 325 700 356 q 476 283 563 294 q 300 269 389 272 q 299 264 299 267 l 299 250 q 458 124 299 124 q 647 163 553 124 l 661 26 q 567 -4 628 11 q 428 -19 506 -19 q 294 3 350 -19 q 203 64 239 25 q 151 153 168 103 q 135 263 135 204 m 539 607 q 460 590 497 607 q 393 544 422 574 q 342 476 364 515 q 311 390 321 436 q 553 431 478 396 q 629 535 629 465 q 609 585 629 563 q 539 607 589 607 m 508 1096 l 714 878 l 636 800 l 406 986 l 508 1096 z "},"é":{"ha":726,"x_min":135,"x_max":786,"o":"m 135 263 q 165 442 135 356 q 251 597 194 529 q 386 704 307 664 q 564 744 465 744 q 728 690 669 744 q 786 551 786 636 q 743 410 786 464 q 631 325 700 356 q 476 283 563 294 q 300 269 389 272 q 299 264 299 267 l 299 250 q 458 124 299 124 q 647 163 553 124 l 661 26 q 567 -4 628 11 q 428 -19 506 -19 q 294 3 350 -19 q 203 64 239 25 q 151 153 168 103 q 135 263 135 204 m 539 607 q 460 590 497 607 q 393 544 422 574 q 342 476 364 515 q 311 390 321 436 q 553 431 478 396 q 629 535 629 465 q 609 585 629 563 q 539 607 589 607 m 675 1100 l 765 986 l 503 810 l 435 893 l 675 1100 z "},"ê":{"ha":726,"x_min":135,"x_max":786,"o":"m 135 263 q 165 442 135 356 q 251 597 194 529 q 386 704 307 664 q 564 744 465 744 q 728 690 669 744 q 786 551 786 636 q 743 410 786 464 q 631 325 700 356 q 476 283 563 294 q 300 269 389 272 q 299 264 299 267 l 299 250 q 458 124 299 124 q 647 163 553 124 l 661 26 q 567 -4 628 11 q 428 -19 506 -19 q 294 3 350 -19 q 203 64 239 25 q 151 153 168 103 q 135 263 135 204 m 539 607 q 460 590 497 607 q 393 544 422 574 q 342 476 364 515 q 311 390 321 436 q 553 431 478 396 q 629 535 629 465 q 609 585 629 563 q 539 607 589 607 m 621 1089 l 779 868 l 707 803 l 594 925 l 431 806 l 375 879 l 621 1089 z "},"ë":{"ha":726,"x_min":135,"x_max":844,"o":"m 135 263 q 165 442 135 356 q 251 597 194 529 q 386 704 307 664 q 564 744 465 744 q 728 690 669 744 q 786 551 786 636 q 743 410 786 464 q 631 325 700 356 q 476 283 563 294 q 300 269 389 272 q 299 264 299 267 l 299 250 q 458 124 299 124 q 647 163 553 124 l 661 26 q 567 -4 628 11 q 428 -19 506 -19 q 294 3 350 -19 q 203 64 239 25 q 151 153 168 103 q 135 263 135 204 m 539 607 q 460 590 497 607 q 393 544 422 574 q 342 476 364 515 q 311 390 321 436 q 553 431 478 396 q 629 535 629 465 q 609 585 629 563 q 539 607 589 607 m 743 846 q 683 868 707 846 q 660 926 660 890 q 669 970 660 950 q 692 1004 678 990 q 724 1026 706 1018 q 760 1033 742 1033 q 820 1010 796 1033 q 844 949 844 988 q 835 908 844 926 q 812 875 826 889 q 779 853 797 861 q 743 846 761 846 m 457 846 q 397 868 421 846 q 374 926 374 890 q 383 970 374 950 q 406 1004 392 990 q 438 1026 419 1018 q 474 1033 456 1033 q 534 1010 510 1033 q 558 949 558 988 q 549 908 558 926 q 526 875 540 889 q 493 853 511 861 q 457 846 475 846 z "},"ì":{"ha":376,"x_min":101,"x_max":507,"o":"m 268 0 l 101 0 l 275 726 l 443 726 l 268 0 m 301 1096 l 507 878 l 429 800 l 199 986 l 301 1096 z "},"í":{"ha":376,"x_min":101,"x_max":593,"o":"m 268 0 l 101 0 l 275 726 l 443 726 l 268 0 m 503 1100 l 593 986 l 331 810 l 263 893 l 503 1100 z "},"î":{"ha":376,"x_min":101,"x_max":590,"o":"m 268 0 l 101 0 l 275 726 l 443 726 l 268 0 m 432 1089 l 590 868 l 518 803 l 406 925 l 242 806 l 186 879 l 432 1089 z "},"ï":{"ha":376,"x_min":101,"x_max":646,"o":"m 268 0 l 101 0 l 275 726 l 443 726 l 268 0 m 544 846 q 485 868 508 846 q 461 926 461 890 q 470 970 461 950 q 493 1004 479 990 q 525 1026 507 1018 q 561 1033 543 1033 q 622 1010 597 1033 q 646 949 646 988 q 637 908 646 926 q 613 875 628 889 q 581 853 599 861 q 544 846 563 846 m 258 846 q 199 868 222 846 q 175 926 175 890 q 184 970 175 950 q 207 1004 193 990 q 239 1026 221 1018 q 275 1033 257 1033 q 335 1010 311 1033 q 360 949 360 988 q 351 908 360 926 q 327 875 342 889 q 294 853 313 861 q 258 846 276 846 z "},"ð":{"ha":804,"x_min":135,"x_max":939,"o":"m 788 856 q 828 724 814 794 q 842 572 842 653 q 833 445 842 513 q 803 312 824 378 q 749 186 782 246 q 667 81 715 126 q 553 8 618 35 q 403 -19 488 -19 q 292 1 342 -19 q 208 58 243 22 q 153 145 172 94 q 135 256 135 196 q 165 439 135 360 q 247 572 194 518 q 371 652 300 625 q 524 679 442 679 q 610 668 571 679 q 679 642 650 657 q 667 727 676 686 q 640 808 658 768 l 468 754 l 456 856 l 590 899 q 544 951 569 928 q 490 999 519 975 l 608 1078 q 675 1021 642 1054 q 736 944 708 988 l 926 1007 l 939 904 l 788 856 m 425 126 q 525 159 482 126 q 598 244 568 192 q 645 363 628 297 q 668 497 663 429 q 593 531 631 521 q 521 542 556 542 q 427 522 468 542 q 358 465 386 501 q 317 376 331 428 q 303 264 303 325 q 333 164 303 201 q 425 126 364 126 z "},"ñ":{"ha":782,"x_min":101,"x_max":847,"o":"m 268 696 q 395 727 324 713 q 551 742 467 742 q 739 679 679 742 q 799 511 799 617 q 794 449 799 482 q 782 382 789 417 l 690 0 l 522 0 l 608 364 q 622 426 615 394 q 631 488 629 458 q 608 568 632 536 q 513 600 583 600 q 410 588 453 600 l 269 0 l 101 0 l 268 696 m 671 853 q 625 861 646 853 q 585 878 604 869 q 549 896 567 888 q 514 904 532 904 q 472 888 490 904 q 435 843 454 872 l 356 892 q 426 992 385 957 q 531 1026 468 1026 q 580 1018 558 1026 q 619 1000 601 1010 q 654 982 638 990 q 689 974 671 974 q 731 990 713 974 q 768 1036 749 1007 l 847 988 q 775 887 817 921 q 671 853 733 853 z "},"ò":{"ha":782,"x_min":135,"x_max":814,"o":"m 400 -19 q 203 57 271 -19 q 135 258 135 133 q 160 425 135 339 q 236 582 185 511 q 365 699 288 653 q 549 744 443 744 q 746 669 678 744 q 814 468 814 593 q 790 300 814 386 q 715 143 765 214 q 585 26 664 72 q 400 -19 507 -19 m 528 603 q 431 572 474 603 q 360 492 389 540 q 317 385 332 443 q 301 274 301 328 q 328 164 301 204 q 421 124 354 124 q 517 155 475 124 q 588 234 560 186 q 632 340 617 282 q 647 451 647 399 q 621 562 647 521 q 528 603 594 603 m 497 1096 l 703 878 l 625 800 l 394 986 l 497 1096 z "},"ó":{"ha":782,"x_min":135,"x_max":814,"o":"m 400 -19 q 203 57 271 -19 q 135 258 135 133 q 160 425 135 339 q 236 582 185 511 q 365 699 288 653 q 549 744 443 744 q 746 669 678 744 q 814 468 814 593 q 790 300 814 386 q 715 143 765 214 q 585 26 664 72 q 400 -19 507 -19 m 528 603 q 431 572 474 603 q 360 492 389 540 q 317 385 332 443 q 301 274 301 328 q 328 164 301 204 q 421 124 354 124 q 517 155 475 124 q 588 234 560 186 q 632 340 617 282 q 647 451 647 399 q 621 562 647 521 q 528 603 594 603 m 693 1100 l 783 986 l 521 810 l 453 893 l 693 1100 z "},"ô":{"ha":782,"x_min":135,"x_max":814,"o":"m 400 -19 q 203 57 271 -19 q 135 258 135 133 q 160 425 135 339 q 236 582 185 511 q 365 699 288 653 q 549 744 443 744 q 746 669 678 744 q 814 468 814 593 q 790 300 814 386 q 715 143 765 214 q 585 26 664 72 q 400 -19 507 -19 m 528 603 q 431 572 474 603 q 360 492 389 540 q 317 385 332 443 q 301 274 301 328 q 328 164 301 204 q 421 124 354 124 q 517 155 475 124 q 588 234 560 186 q 632 340 617 282 q 647 451 647 399 q 621 562 647 521 q 528 603 594 603 m 625 1089 l 783 868 l 711 803 l 599 925 l 435 806 l 379 879 l 625 1089 z "},"õ":{"ha":782,"x_min":135,"x_max":842,"o":"m 400 -19 q 203 57 271 -19 q 135 258 135 133 q 160 425 135 339 q 236 582 185 511 q 365 699 288 653 q 549 744 443 744 q 746 669 678 744 q 814 468 814 593 q 790 300 814 386 q 715 143 765 214 q 585 26 664 72 q 400 -19 507 -19 m 528 603 q 431 572 474 603 q 360 492 389 540 q 317 385 332 443 q 301 274 301 328 q 328 164 301 204 q 421 124 354 124 q 517 155 475 124 q 588 234 560 186 q 632 340 617 282 q 647 451 647 399 q 621 562 647 521 q 528 603 594 603 m 665 853 q 619 861 640 853 q 580 878 599 869 q 544 896 561 888 q 508 904 526 904 q 467 888 485 904 q 429 843 449 872 l 350 892 q 421 992 379 957 q 525 1026 463 1026 q 574 1018 553 1026 q 614 1000 596 1010 q 649 982 632 990 q 683 974 665 974 q 725 990 707 974 q 763 1036 743 1007 l 842 988 q 769 887 811 921 q 665 853 728 853 z "},"ö":{"ha":782,"x_min":135,"x_max":831,"o":"m 400 -19 q 203 57 271 -19 q 135 258 135 133 q 160 425 135 339 q 236 582 185 511 q 365 699 288 653 q 549 744 443 744 q 746 669 678 744 q 814 468 814 593 q 790 300 814 386 q 715 143 765 214 q 585 26 664 72 q 400 -19 507 -19 m 528 603 q 431 572 474 603 q 360 492 389 540 q 317 385 332 443 q 301 274 301 328 q 328 164 301 204 q 421 124 354 124 q 517 155 475 124 q 588 234 560 186 q 632 340 617 282 q 647 451 647 399 q 621 562 647 521 q 528 603 594 603 m 729 846 q 669 868 693 846 q 646 926 646 890 q 655 970 646 950 q 678 1004 664 990 q 710 1026 692 1018 q 746 1033 728 1033 q 806 1010 782 1033 q 831 949 831 988 q 822 908 831 926 q 798 875 813 889 q 765 853 783 861 q 729 846 747 846 m 443 846 q 383 868 407 846 q 360 926 360 890 q 369 970 360 950 q 392 1004 378 990 q 424 1026 406 1018 q 460 1033 442 1033 q 520 1010 496 1033 q 544 949 544 988 q 535 908 544 926 q 512 875 526 889 q 479 853 497 861 q 443 846 461 846 z "},"÷":{"ha":789,"x_min":147,"x_max":819,"o":"m 182 468 l 819 468 l 785 326 l 147 326 l 182 468 m 431 225 q 492 203 468 225 q 517 142 517 182 q 483 56 517 90 q 400 21 449 21 q 338 43 363 21 q 314 106 314 65 q 348 191 314 157 q 431 225 382 225 m 563 772 q 624 751 600 772 q 649 689 649 729 q 615 603 649 638 q 532 568 581 568 q 470 590 494 568 q 446 653 446 613 q 480 738 446 704 q 563 772 514 772 z "},"ø":{"ha":782,"x_min":93,"x_max":847,"o":"m 400 -19 q 240 24 304 -19 l 174 -53 l 93 10 l 171 99 q 135 258 135 167 q 160 425 135 339 q 236 582 185 511 q 365 699 288 653 q 549 744 443 744 q 703 704 639 744 l 767 778 l 847 715 l 774 631 q 814 468 814 563 q 790 300 814 386 q 715 143 765 214 q 585 26 664 72 q 400 -19 507 -19 m 647 451 q 647 468 647 460 q 646 485 647 476 l 347 144 q 421 124 374 124 q 517 155 475 124 q 588 234 560 186 q 632 340 617 282 q 647 451 647 399 m 528 603 q 431 572 474 603 q 360 492 389 540 q 317 385 332 443 q 301 274 301 328 l 301 247 l 597 583 q 528 603 569 603 z "},"ù":{"ha":788,"x_min":149,"x_max":844,"o":"m 844 726 l 742 294 q 731 231 735 263 q 728 167 728 199 q 734 88 728 126 q 756 11 740 49 l 606 -11 q 591 23 597 4 q 579 61 585 42 q 493 8 544 33 q 374 -18 442 -18 q 269 0 313 -18 q 199 49 226 18 q 160 123 172 81 q 149 213 149 165 q 165 344 149 274 l 257 726 l 425 726 l 335 349 q 317 231 317 276 q 321 189 317 208 q 335 155 325 169 q 365 132 346 140 q 411 124 383 124 q 493 142 457 124 q 560 193 529 161 q 579 315 564 253 l 676 726 l 844 726 m 485 1096 l 690 878 l 613 800 l 382 986 l 485 1096 z "},"ú":{"ha":788,"x_min":149,"x_max":844,"o":"m 844 726 l 742 294 q 731 231 735 263 q 728 167 728 199 q 734 88 728 126 q 756 11 740 49 l 606 -11 q 591 23 597 4 q 579 61 585 42 q 493 8 544 33 q 374 -18 442 -18 q 269 0 313 -18 q 199 49 226 18 q 160 123 172 81 q 149 213 149 165 q 165 344 149 274 l 257 726 l 425 726 l 335 349 q 317 231 317 276 q 321 189 317 208 q 335 155 325 169 q 365 132 346 140 q 411 124 383 124 q 493 142 457 124 q 560 193 529 161 q 579 315 564 253 l 676 726 l 844 726 m 697 1100 l 788 986 l 525 810 l 457 893 l 697 1100 z "},"û":{"ha":788,"x_min":149,"x_max":844,"o":"m 844 726 l 742 294 q 731 231 735 263 q 728 167 728 199 q 734 88 728 126 q 756 11 740 49 l 606 -11 q 591 23 597 4 q 579 61 585 42 q 493 8 544 33 q 374 -18 442 -18 q 269 0 313 -18 q 199 49 226 18 q 160 123 172 81 q 149 213 149 165 q 165 344 149 274 l 257 726 l 425 726 l 335 349 q 317 231 317 276 q 321 189 317 208 q 335 155 325 169 q 365 132 346 140 q 411 124 383 124 q 493 142 457 124 q 560 193 529 161 q 579 315 564 253 l 676 726 l 844 726 m 629 1089 l 788 868 l 715 803 l 603 925 l 439 806 l 383 879 l 629 1089 z "},"ü":{"ha":788,"x_min":149,"x_max":844,"o":"m 844 726 l 742 294 q 731 231 735 263 q 728 167 728 199 q 734 88 728 126 q 756 11 740 49 l 606 -11 q 591 23 597 4 q 579 61 585 42 q 493 8 544 33 q 374 -18 442 -18 q 269 0 313 -18 q 199 49 226 18 q 160 123 172 81 q 149 213 149 165 q 165 344 149 274 l 257 726 l 425 726 l 335 349 q 317 231 317 276 q 321 189 317 208 q 335 155 325 169 q 365 132 346 140 q 411 124 383 124 q 493 142 457 124 q 560 193 529 161 q 579 315 564 253 l 676 726 l 844 726 m 731 846 q 671 868 694 846 q 647 926 647 890 q 656 970 647 950 q 679 1004 665 990 q 711 1026 693 1018 q 747 1033 729 1033 q 808 1010 783 1033 q 832 949 832 988 q 823 908 832 926 q 799 875 814 889 q 767 853 785 861 q 731 846 749 846 m 444 846 q 385 868 408 846 q 361 926 361 890 q 370 970 361 950 q 393 1004 379 990 q 425 1026 407 1018 q 461 1033 443 1033 q 522 1010 497 1033 q 546 949 546 988 q 537 908 546 926 q 513 875 528 889 q 481 853 499 861 q 444 846 463 846 z "},"ý":{"ha":686,"x_min":-78,"x_max":810,"o":"m 810 726 q 749 562 782 647 q 674 390 715 476 q 586 219 633 304 q 485 53 539 133 q 401 -65 444 -8 q 308 -164 358 -121 q 196 -233 257 -207 q 57 -260 135 -260 q -20 -250 14 -260 q -78 -228 -54 -240 l -24 -93 q 20 -111 -4 -104 q 74 -118 44 -118 q 188 -84 139 -118 q 278 8 238 -50 q 203 343 233 163 q 163 726 172 524 l 332 726 q 338 597 333 668 q 351 452 343 526 q 369 306 358 378 q 394 172 381 233 q 472 313 436 239 q 539 459 508 386 q 592 601 569 532 q 632 726 615 669 l 810 726 m 624 1100 l 714 986 l 451 810 l 383 893 l 624 1100 z "},"þ":{"ha":783,"x_min":40,"x_max":818,"o":"m 818 465 q 787 280 818 367 q 695 128 756 193 q 548 24 635 63 q 349 -14 461 -14 q 309 -12 329 -14 q 269 -7 289 -10 l 208 -257 l 40 -257 l 354 1050 l 529 1078 l 446 733 q 492 740 469 738 q 538 743 514 743 q 663 722 610 743 q 751 663 717 700 q 801 574 785 625 q 818 465 818 524 m 301 131 q 331 127 315 128 q 361 126 346 126 q 481 152 428 126 q 572 222 535 178 q 630 324 610 265 q 650 450 650 383 q 643 508 650 481 q 620 556 636 535 q 577 589 604 576 q 508 601 550 601 q 456 598 481 601 q 411 589 431 594 l 301 131 z "},"ÿ":{"ha":686,"x_min":-78,"x_max":810,"o":"m 810 726 q 749 562 782 647 q 674 390 715 476 q 586 219 633 304 q 485 53 539 133 q 401 -65 444 -8 q 308 -164 358 -121 q 196 -233 257 -207 q 57 -260 135 -260 q -20 -250 14 -260 q -78 -228 -54 -240 l -24 -93 q 20 -111 -4 -104 q 74 -118 44 -118 q 188 -84 139 -118 q 278 8 238 -50 q 203 343 233 163 q 163 726 172 524 l 332 726 q 338 597 333 668 q 351 452 343 526 q 369 306 358 378 q 394 172 381 233 q 472 313 436 239 q 539 459 508 386 q 592 601 569 532 q 632 726 615 669 l 810 726 m 665 846 q 606 868 629 846 q 582 926 582 890 q 591 970 582 950 q 614 1004 600 990 q 646 1026 628 1018 q 682 1033 664 1033 q 742 1010 718 1033 q 767 949 767 988 q 758 908 767 926 q 734 875 749 889 q 701 853 719 861 q 665 846 683 846 m 379 846 q 319 868 343 846 q 296 926 296 890 q 305 970 296 950 q 328 1004 314 990 q 360 1026 342 1018 q 396 1033 378 1033 q 456 1010 432 1033 q 481 949 481 988 q 472 908 481 926 q 448 875 463 889 q 415 853 433 861 q 379 846 397 846 z "},"Ā":{"ha":911,"x_min":10,"x_max":958,"o":"m 733 0 q 724 116 729 58 q 714 228 719 174 l 324 228 q 260 117 292 174 q 197 0 229 61 l 10 0 q 172 278 94 147 q 322 526 249 408 q 466 752 394 644 q 610 963 538 860 l 772 963 q 849 510 817 756 q 910 0 881 265 l 733 0 m 653 779 q 535 595 600 697 q 399 367 471 493 l 700 367 q 680 569 692 465 q 653 779 668 672 m 511 1090 l 540 1211 l 958 1211 l 929 1090 l 511 1090 z "},"ā":{"ha":775,"x_min":132,"x_max":851,"o":"m 736 282 q 728 232 732 267 q 724 167 724 197 q 731 88 724 126 q 753 11 738 50 l 603 -11 q 576 60 586 22 q 491 5 542 29 q 376 -19 440 -19 q 265 2 311 -19 q 189 62 218 24 q 146 151 160 100 q 132 263 132 203 q 168 451 132 364 q 269 603 204 539 q 422 703 333 667 q 617 740 511 740 q 726 731 671 740 q 836 697 781 722 l 736 282 m 644 596 q 585 601 618 601 q 469 574 522 601 q 378 502 417 547 q 319 399 340 457 q 299 276 299 340 q 304 217 299 244 q 323 168 310 189 q 358 135 336 147 q 415 122 381 122 q 494 141 460 122 q 557 192 528 160 q 563 260 558 228 q 576 324 568 292 l 644 596 m 404 876 l 433 997 l 851 997 l 822 876 l 404 876 z "},"Ă":{"ha":911,"x_min":10,"x_max":954,"o":"m 733 0 q 724 116 729 58 q 714 228 719 174 l 324 228 q 260 117 292 174 q 197 0 229 61 l 10 0 q 172 278 94 147 q 322 526 249 408 q 466 752 394 644 q 610 963 538 860 l 772 963 q 849 510 817 756 q 910 0 881 265 l 733 0 m 653 779 q 535 595 600 697 q 399 367 471 493 l 700 367 q 680 569 692 465 q 653 779 668 672 m 546 1264 l 657 1264 q 655 1253 656 1258 q 654 1242 654 1249 q 673 1185 654 1206 q 729 1164 692 1164 q 801 1194 776 1164 q 840 1264 826 1224 l 954 1264 q 924 1173 946 1213 q 872 1107 903 1133 q 800 1067 840 1081 q 717 1053 760 1053 q 590 1098 638 1053 q 542 1219 542 1143 q 546 1264 542 1240 z "},"ă":{"ha":775,"x_min":132,"x_max":863,"o":"m 736 282 q 728 232 732 267 q 724 167 724 197 q 731 88 724 126 q 753 11 738 50 l 603 -11 q 576 60 586 22 q 491 5 542 29 q 376 -19 440 -19 q 265 2 311 -19 q 189 62 218 24 q 146 151 160 100 q 132 263 132 203 q 168 451 132 364 q 269 603 204 539 q 422 703 333 667 q 617 740 511 740 q 726 731 671 740 q 836 697 781 722 l 736 282 m 644 596 q 585 601 618 601 q 469 574 522 601 q 378 502 417 547 q 319 399 340 457 q 299 276 299 340 q 304 217 299 244 q 323 168 310 189 q 358 135 336 147 q 415 122 381 122 q 494 141 460 122 q 557 192 528 160 q 563 260 558 228 q 576 324 568 292 l 644 596 m 454 1050 l 565 1050 q 563 1040 564 1044 q 563 1028 563 1035 q 581 971 563 992 q 638 950 600 950 q 710 980 685 950 q 749 1050 735 1010 l 863 1050 q 833 959 854 999 q 780 893 811 919 q 708 853 749 867 q 625 839 668 839 q 498 884 546 839 q 450 1006 450 929 q 454 1050 450 1026 z "},"Ą":{"ha":911,"x_min":10,"x_max":910,"o":"m 867 -262 q 817 -278 844 -272 q 760 -283 790 -283 q 653 -258 692 -283 q 615 -181 615 -233 q 625 -133 615 -157 q 651 -87 635 -110 q 690 -44 668 -65 q 733 -6 711 -24 q 724 113 729 50 q 714 228 719 175 l 324 228 q 260 117 292 174 q 197 0 229 61 l 10 0 q 172 278 94 147 q 322 526 249 408 q 466 752 394 644 q 610 963 538 860 l 772 963 q 849 513 817 756 q 910 6 881 271 q 876 -15 899 -1 q 825 -50 854 -28 q 778 -96 792 -75 q 764 -132 764 -117 q 779 -156 764 -147 q 814 -164 794 -164 q 849 -160 831 -164 q 879 -151 868 -156 l 867 -262 m 653 779 q 535 595 600 697 q 399 367 471 493 l 700 367 q 680 569 692 465 q 653 779 668 672 z "},"ą":{"ha":775,"x_min":132,"x_max":836,"o":"m 736 282 q 728 232 732 267 q 724 167 724 197 q 731 87 724 126 q 754 8 738 47 q 736 -5 743 1 q 711 -25 729 -11 q 641 -85 667 -57 q 615 -137 615 -114 q 658 -164 615 -164 q 694 -160 675 -164 q 724 -151 713 -156 l 711 -262 q 662 -278 689 -272 q 604 -283 635 -283 q 498 -258 536 -283 q 460 -181 460 -233 q 473 -124 460 -150 q 506 -77 486 -99 q 551 -37 526 -56 q 600 -4 576 -19 q 576 60 585 24 q 491 5 542 29 q 376 -19 440 -19 q 265 2 311 -19 q 189 62 218 24 q 146 151 160 100 q 132 263 132 203 q 168 451 132 364 q 269 603 204 539 q 422 703 333 667 q 617 740 511 740 q 726 731 671 740 q 836 697 781 722 l 736 282 m 644 596 q 585 601 618 601 q 469 574 522 601 q 378 502 417 547 q 319 399 340 457 q 299 276 299 340 q 304 217 299 244 q 323 168 310 189 q 358 135 336 147 q 415 122 381 122 q 494 141 460 122 q 557 192 528 160 q 563 260 558 228 q 576 324 568 292 l 644 596 z "},"Ć":{"ha":842,"x_min":168,"x_max":1003,"o":"m 833 42 q 717 -1 788 18 q 544 -21 646 -21 q 386 6 456 -21 q 268 85 317 33 q 194 208 219 136 q 168 371 168 281 q 207 598 168 488 q 319 794 246 708 q 499 933 393 881 q 738 985 604 985 q 890 965 825 985 q 1003 918 954 946 l 936 778 q 841 819 892 804 q 726 833 790 833 q 569 794 639 833 q 451 692 500 756 q 376 549 401 629 q 350 385 350 468 q 406 194 350 256 q 571 132 463 132 q 713 151 654 132 q 813 189 771 169 l 833 42 m 832 1325 l 922 1211 l 660 1035 l 592 1118 l 832 1325 z "},"ć":{"ha":638,"x_min":135,"x_max":763,"o":"m 135 275 q 165 455 135 369 q 250 605 194 540 q 386 707 306 669 q 569 744 467 744 q 669 735 624 744 q 754 708 714 726 l 694 574 q 639 593 669 585 q 564 601 608 601 q 456 577 504 601 q 375 511 408 553 q 324 413 342 469 q 306 292 306 356 q 313 226 306 256 q 338 173 321 196 q 386 138 356 150 q 463 125 417 125 q 553 138 510 125 q 621 163 597 150 l 635 25 q 550 -5 603 10 q 431 -19 497 -19 q 299 3 354 -19 q 206 66 243 26 q 152 159 169 106 q 135 275 135 213 m 672 1100 l 763 986 l 500 810 l 432 893 l 672 1100 z "},"Ĉ":{"ha":842,"x_min":168,"x_max":1003,"o":"m 833 42 q 717 -1 788 18 q 544 -21 646 -21 q 386 6 456 -21 q 268 85 317 33 q 194 208 219 136 q 168 371 168 281 q 207 598 168 488 q 319 794 246 708 q 499 933 393 881 q 738 985 604 985 q 890 965 825 985 q 1003 918 954 946 l 936 778 q 841 819 892 804 q 726 833 790 833 q 569 794 639 833 q 451 692 500 756 q 376 549 401 629 q 350 385 350 468 q 406 194 350 256 q 571 132 463 132 q 713 151 654 132 q 813 189 771 169 l 833 42 m 800 1313 l 958 1092 l 886 1026 l 774 1149 l 610 1029 l 554 1103 l 800 1313 z "},"ĉ":{"ha":638,"x_min":135,"x_max":782,"o":"m 135 275 q 165 455 135 369 q 250 605 194 540 q 386 707 306 669 q 569 744 467 744 q 669 735 624 744 q 754 708 714 726 l 694 574 q 639 593 669 585 q 564 601 608 601 q 456 577 504 601 q 375 511 408 553 q 324 413 342 469 q 306 292 306 356 q 313 226 306 256 q 338 173 321 196 q 386 138 356 150 q 463 125 417 125 q 553 138 510 125 q 621 163 597 150 l 635 25 q 550 -5 603 10 q 431 -19 497 -19 q 299 3 354 -19 q 206 66 243 26 q 152 159 169 106 q 135 275 135 213 m 624 1089 l 782 868 l 710 803 l 597 925 l 433 806 l 378 879 l 624 1089 z "},"Ċ":{"ha":842,"x_min":168,"x_max":1003,"o":"m 833 42 q 717 -1 788 18 q 544 -21 646 -21 q 386 6 456 -21 q 268 85 317 33 q 194 208 219 136 q 168 371 168 281 q 207 598 168 488 q 319 794 246 708 q 499 933 393 881 q 738 985 604 985 q 890 965 825 985 q 1003 918 954 946 l 936 778 q 841 819 892 804 q 726 833 790 833 q 569 794 639 833 q 451 692 500 756 q 376 549 401 629 q 350 385 350 468 q 406 194 350 256 q 571 132 463 132 q 713 151 654 132 q 813 189 771 169 l 833 42 m 769 1063 q 707 1084 732 1063 q 682 1146 682 1106 q 715 1226 682 1197 q 788 1256 747 1256 q 849 1233 824 1256 q 875 1169 875 1210 q 866 1125 875 1144 q 842 1092 857 1106 q 808 1070 826 1078 q 769 1063 789 1063 z "},"ċ":{"ha":638,"x_min":135,"x_max":754,"o":"m 135 275 q 165 455 135 369 q 250 605 194 540 q 386 707 306 669 q 569 744 467 744 q 669 735 624 744 q 754 708 714 726 l 694 574 q 639 593 669 585 q 564 601 608 601 q 456 577 504 601 q 375 511 408 553 q 324 413 342 469 q 306 292 306 356 q 313 226 306 256 q 338 173 321 196 q 386 138 356 150 q 463 125 417 125 q 553 138 510 125 q 621 163 597 150 l 635 25 q 550 -5 603 10 q 431 -19 497 -19 q 299 3 354 -19 q 206 66 243 26 q 152 159 169 106 q 135 275 135 213 m 593 843 q 531 865 556 843 q 506 926 506 886 q 538 1007 506 978 q 611 1036 571 1036 q 673 1013 647 1036 q 699 950 699 990 q 690 906 699 925 q 665 872 681 886 q 631 851 650 858 q 593 843 613 843 z "},"Č":{"ha":842,"x_min":168,"x_max":1003,"o":"m 833 42 q 717 -1 788 18 q 544 -21 646 -21 q 386 6 456 -21 q 268 85 317 33 q 194 208 219 136 q 168 371 168 281 q 207 598 168 488 q 319 794 246 708 q 499 933 393 881 q 738 985 604 985 q 890 965 825 985 q 1003 918 954 946 l 936 778 q 841 819 892 804 q 726 833 790 833 q 569 794 639 833 q 451 692 500 756 q 376 549 401 629 q 350 385 350 468 q 406 194 350 256 q 571 132 463 132 q 713 151 654 132 q 813 189 771 169 l 833 42 m 739 1031 l 581 1251 l 653 1317 l 764 1194 l 929 1314 l 983 1240 l 739 1031 z "},"č":{"ha":638,"x_min":135,"x_max":817,"o":"m 135 275 q 165 455 135 369 q 250 605 194 540 q 386 707 306 669 q 569 744 467 744 q 669 735 624 744 q 754 708 714 726 l 694 574 q 639 593 669 585 q 564 601 608 601 q 456 577 504 601 q 375 511 408 553 q 324 413 342 469 q 306 292 306 356 q 313 226 306 256 q 338 173 321 196 q 386 138 356 150 q 463 125 417 125 q 553 138 510 125 q 621 163 597 150 l 635 25 q 550 -5 603 10 q 431 -19 497 -19 q 299 3 354 -19 q 206 66 243 26 q 152 159 169 106 q 135 275 135 213 m 572 811 l 414 1032 l 486 1097 l 597 975 l 763 1094 l 817 1021 l 572 811 z "},"Ď":{"ha":975,"x_min":113,"x_max":1032,"o":"m 318 143 q 353 140 333 140 q 417 139 374 139 q 597 171 517 139 q 734 262 678 203 q 821 403 790 321 q 851 588 851 486 q 789 761 851 697 q 585 825 726 825 q 527 824 549 825 q 481 819 506 822 l 318 143 m 1032 593 q 990 353 1032 464 q 867 161 949 242 q 662 35 785 81 q 376 -11 539 -11 q 246 -5 318 -11 q 113 15 174 1 l 336 947 q 474 967 404 963 q 601 972 543 972 q 788 945 707 972 q 922 869 868 918 q 1004 749 976 819 q 1032 593 1032 679 m 696 1031 l 538 1251 l 610 1317 l 721 1194 l 886 1314 l 940 1240 l 696 1031 z "},"ď":{"ha":872,"x_min":132,"x_max":1193,"o":"m 379 -19 q 267 2 314 -19 q 190 61 219 24 q 146 150 160 99 q 132 261 132 201 q 165 441 132 354 q 258 594 197 528 q 406 699 318 660 q 604 739 493 739 q 638 738 618 739 q 681 731 657 736 l 757 1050 l 932 1078 l 742 290 q 731 226 735 258 q 728 164 728 193 q 735 89 728 126 q 757 11 742 51 l 607 -11 q 581 60 592 18 q 496 5 546 29 q 379 -19 446 -19 m 647 594 q 583 600 621 600 q 467 573 519 600 q 376 501 414 546 q 319 397 339 456 q 299 276 299 339 q 305 217 299 244 q 325 168 311 189 q 362 135 339 147 q 418 122 385 122 q 497 140 463 122 q 561 190 531 158 q 567 251 563 219 q 579 314 572 283 l 647 594 m 1193 1078 l 1074 753 l 960 753 l 1036 1078 l 1193 1078 z "},"Đ":{"ha":1004,"x_min":131,"x_max":1061,"o":"m 161 567 l 274 567 l 365 947 q 503 967 433 963 q 631 972 572 972 q 817 945 736 972 q 951 869 897 918 q 1033 749 1006 819 q 1061 593 1061 679 q 1019 353 1061 464 q 896 161 978 242 q 691 35 814 81 q 406 -11 568 -11 q 275 -5 347 -11 q 142 15 203 1 l 242 435 l 131 435 l 161 567 m 449 567 l 626 567 l 594 435 l 417 435 l 347 143 q 383 140 363 140 q 446 139 403 139 q 626 171 546 139 q 763 262 707 203 q 850 403 819 321 q 881 588 881 486 q 818 761 881 697 q 614 825 756 825 q 556 824 578 825 q 510 819 535 822 l 449 567 z "},"đ":{"ha":794,"x_min":132,"x_max":1003,"o":"m 379 -19 q 267 2 314 -19 q 190 61 219 24 q 146 150 160 99 q 132 261 132 201 q 165 441 132 354 q 258 594 197 528 q 406 699 318 660 q 604 739 493 739 q 638 738 618 739 q 681 731 657 736 l 707 840 l 506 840 l 532 953 l 733 953 l 757 1050 l 932 1078 l 901 953 l 1003 953 l 976 840 l 874 840 l 742 290 q 731 226 735 258 q 728 164 728 193 q 735 89 728 126 q 757 11 742 51 l 607 -11 q 581 60 592 18 q 496 5 546 29 q 379 -19 446 -19 m 647 594 q 583 600 621 600 q 467 573 519 600 q 376 501 414 546 q 319 397 339 456 q 299 276 299 339 q 305 217 299 244 q 325 168 311 189 q 362 135 339 147 q 418 122 385 122 q 497 140 463 122 q 561 190 531 158 q 567 251 563 219 q 579 314 572 283 l 647 594 z "},"Ē":{"ha":794,"x_min":108,"x_max":936,"o":"m 108 0 l 339 963 l 936 963 l 901 817 l 478 817 l 421 575 l 796 575 l 761 432 l 388 432 l 318 146 l 774 146 l 739 0 l 108 0 m 461 1090 l 490 1211 l 908 1211 l 879 1090 l 461 1090 z "},"ē":{"ha":726,"x_min":135,"x_max":824,"o":"m 135 263 q 165 442 135 356 q 251 597 194 529 q 386 704 307 664 q 564 744 465 744 q 728 690 669 744 q 786 551 786 636 q 743 410 786 464 q 631 325 700 356 q 476 283 563 294 q 300 269 389 272 q 299 264 299 267 l 299 250 q 458 124 299 124 q 647 163 553 124 l 661 26 q 567 -4 628 11 q 428 -19 506 -19 q 294 3 350 -19 q 203 64 239 25 q 151 153 168 103 q 135 263 135 204 m 539 607 q 460 590 497 607 q 393 544 422 574 q 342 476 364 515 q 311 390 321 436 q 553 431 478 396 q 629 535 629 465 q 609 585 629 563 q 539 607 589 607 m 376 876 l 406 997 l 824 997 l 794 876 l 376 876 z "},"Ĕ":{"ha":794,"x_min":108,"x_max":936,"o":"m 108 0 l 339 963 l 936 963 l 901 817 l 478 817 l 421 575 l 796 575 l 761 432 l 388 432 l 318 146 l 774 146 l 739 0 l 108 0 m 494 1264 l 606 1264 q 603 1253 604 1258 q 603 1242 603 1249 q 622 1185 603 1206 q 678 1164 640 1164 q 750 1194 725 1164 q 789 1264 775 1224 l 903 1264 q 873 1173 894 1213 q 820 1107 851 1133 q 749 1067 789 1081 q 665 1053 708 1053 q 538 1098 586 1053 q 490 1219 490 1143 q 494 1264 490 1240 z "},"ĕ":{"ha":726,"x_min":135,"x_max":818,"o":"m 135 263 q 165 442 135 356 q 251 597 194 529 q 386 704 307 664 q 564 744 465 744 q 728 690 669 744 q 786 551 786 636 q 743 410 786 464 q 631 325 700 356 q 476 283 563 294 q 300 269 389 272 q 299 264 299 267 l 299 250 q 458 124 299 124 q 647 163 553 124 l 661 26 q 567 -4 628 11 q 428 -19 506 -19 q 294 3 350 -19 q 203 64 239 25 q 151 153 168 103 q 135 263 135 204 m 539 607 q 460 590 497 607 q 393 544 422 574 q 342 476 364 515 q 311 390 321 436 q 553 431 478 396 q 629 535 629 465 q 609 585 629 563 q 539 607 589 607 m 410 1050 l 521 1050 q 519 1040 519 1044 q 518 1028 518 1035 q 537 971 518 992 q 593 950 556 950 q 665 980 640 950 q 704 1050 690 1010 l 818 1050 q 788 959 810 999 q 735 893 767 919 q 664 853 704 867 q 581 839 624 839 q 453 884 501 839 q 406 1006 406 929 q 410 1050 406 1026 z "},"Ė":{"ha":794,"x_min":108,"x_max":936,"o":"m 108 0 l 339 963 l 936 963 l 901 817 l 478 817 l 421 575 l 796 575 l 761 432 l 388 432 l 318 146 l 774 146 l 739 0 l 108 0 m 671 1063 q 608 1084 633 1063 q 583 1146 583 1106 q 616 1226 583 1197 q 689 1256 649 1256 q 751 1233 725 1256 q 776 1169 776 1210 q 767 1125 776 1144 q 743 1092 758 1106 q 709 1070 728 1078 q 671 1063 690 1063 z "},"ė":{"ha":726,"x_min":135,"x_max":786,"o":"m 135 263 q 165 442 135 356 q 251 597 194 529 q 386 704 307 664 q 564 744 465 744 q 728 690 669 744 q 786 551 786 636 q 743 410 786 464 q 631 325 700 356 q 476 283 563 294 q 300 269 389 272 q 299 264 299 267 l 299 250 q 458 124 299 124 q 647 163 553 124 l 661 26 q 567 -4 628 11 q 428 -19 506 -19 q 294 3 350 -19 q 203 64 239 25 q 151 153 168 103 q 135 263 135 204 m 539 607 q 460 590 497 607 q 393 544 422 574 q 342 476 364 515 q 311 390 321 436 q 553 431 478 396 q 629 535 629 465 q 609 585 629 563 q 539 607 589 607 m 589 843 q 526 865 551 843 q 501 926 501 886 q 534 1007 501 978 q 607 1036 567 1036 q 669 1013 643 1036 q 694 950 694 990 q 685 906 694 925 q 661 872 676 886 q 627 851 646 858 q 589 843 608 843 z "},"Ę":{"ha":794,"x_min":108,"x_max":936,"o":"m 694 -262 q 645 -278 672 -272 q 588 -283 618 -283 q 481 -258 519 -283 q 443 -181 443 -233 q 474 -97 443 -142 q 588 0 506 -53 l 108 0 l 339 963 l 936 963 l 901 817 l 478 817 l 421 575 l 796 575 l 761 432 l 388 432 l 318 146 l 774 146 l 740 4 q 700 -25 724 -8 q 653 -61 676 -42 q 615 -101 631 -81 q 599 -137 599 -121 q 642 -164 599 -164 q 677 -160 658 -164 q 707 -151 696 -156 l 694 -262 z "},"ę":{"ha":726,"x_min":135,"x_max":786,"o":"m 135 263 q 165 442 135 356 q 251 597 194 529 q 386 704 307 664 q 564 744 465 744 q 728 690 669 744 q 786 551 786 636 q 743 410 786 464 q 631 325 700 356 q 476 283 563 294 q 300 269 389 272 q 299 250 299 261 q 458 124 299 124 q 647 163 553 124 l 661 22 q 625 -1 647 14 q 585 -29 603 -15 q 515 -87 540 -61 q 490 -137 490 -114 q 533 -164 490 -164 q 569 -160 550 -164 q 599 -151 588 -156 l 586 -262 q 537 -278 564 -272 q 479 -283 510 -283 q 373 -258 411 -283 q 335 -181 335 -233 q 369 -97 335 -140 q 461 -15 403 -54 q 442 -17 453 -17 q 428 -17 431 -17 q 294 6 350 -17 q 203 65 239 28 q 151 153 168 103 q 135 263 135 204 m 539 607 q 460 590 497 607 q 393 544 422 574 q 342 476 364 515 q 311 390 321 436 q 553 431 478 396 q 629 535 629 465 q 609 585 629 563 q 539 607 589 607 z "},"Ě":{"ha":794,"x_min":108,"x_max":936,"o":"m 108 0 l 339 963 l 936 963 l 901 817 l 478 817 l 421 575 l 796 575 l 761 432 l 388 432 l 318 146 l 774 146 l 739 0 l 108 0 m 649 1031 l 490 1251 l 563 1317 l 674 1194 l 839 1314 l 893 1240 l 649 1031 z "},"ě":{"ha":726,"x_min":135,"x_max":821,"o":"m 135 263 q 165 442 135 356 q 251 597 194 529 q 386 704 307 664 q 564 744 465 744 q 728 690 669 744 q 786 551 786 636 q 743 410 786 464 q 631 325 700 356 q 476 283 563 294 q 300 269 389 272 q 299 264 299 267 l 299 250 q 458 124 299 124 q 647 163 553 124 l 661 26 q 567 -4 628 11 q 428 -19 506 -19 q 294 3 350 -19 q 203 64 239 25 q 151 153 168 103 q 135 263 135 204 m 539 607 q 460 590 497 607 q 393 544 422 574 q 342 476 364 515 q 311 390 321 436 q 553 431 478 396 q 629 535 629 465 q 609 585 629 563 q 539 607 589 607 m 576 811 l 418 1032 l 490 1097 l 601 975 l 767 1094 l 821 1021 l 576 811 z "},"Ĝ":{"ha":910,"x_min":168,"x_max":1022,"o":"m 572 131 q 644 135 613 131 q 694 144 676 139 l 776 489 l 950 489 l 839 28 q 726 -4 803 11 q 544 -19 649 -19 q 382 8 453 -19 q 264 85 311 35 q 192 208 217 136 q 168 371 168 281 q 207 598 168 488 q 320 794 246 708 q 502 933 394 881 q 746 985 610 985 q 912 961 843 985 q 1022 910 981 938 l 954 771 q 863 814 918 794 q 736 833 807 833 q 573 794 644 833 q 451 692 501 756 q 376 549 401 629 q 350 385 350 468 q 572 131 350 131 m 792 1313 l 950 1092 l 878 1026 l 765 1149 l 601 1029 l 546 1103 l 792 1313 z "},"ĝ":{"ha":790,"x_min":46,"x_max":850,"o":"m 306 -119 q 460 -72 408 -119 q 531 57 513 -25 l 535 76 q 468 51 507 63 q 386 39 429 39 q 205 105 264 39 q 146 281 146 171 q 181 465 146 381 q 278 612 215 550 q 431 708 342 674 q 628 743 519 743 q 741 731 681 743 q 850 693 801 719 l 703 76 q 653 -69 683 -6 q 575 -174 624 -132 q 455 -239 526 -217 q 282 -261 383 -261 q 149 -245 208 -261 q 46 -206 90 -229 l 106 -69 q 192 -106 143 -92 q 306 -119 242 -119 m 428 175 q 505 189 465 175 q 571 224 544 203 l 660 594 q 597 601 628 601 q 481 578 533 601 q 392 514 429 554 q 333 420 354 474 q 313 306 313 367 q 339 210 313 244 q 428 175 365 175 m 668 1089 l 826 868 l 754 803 l 642 925 l 478 806 l 422 879 l 668 1089 z "},"Ğ":{"ha":910,"x_min":168,"x_max":1022,"o":"m 572 131 q 644 135 613 131 q 694 144 676 139 l 776 489 l 950 489 l 839 28 q 726 -4 803 11 q 544 -19 649 -19 q 382 8 453 -19 q 264 85 311 35 q 192 208 217 136 q 168 371 168 281 q 207 598 168 488 q 320 794 246 708 q 502 933 394 881 q 746 985 610 985 q 912 961 843 985 q 1022 910 981 938 l 954 771 q 863 814 918 794 q 736 833 807 833 q 573 794 644 833 q 451 692 501 756 q 376 549 401 629 q 350 385 350 468 q 572 131 350 131 m 581 1264 l 692 1264 q 690 1253 690 1258 q 689 1242 689 1249 q 708 1185 689 1206 q 764 1164 726 1164 q 836 1194 811 1164 q 875 1264 861 1224 l 989 1264 q 959 1173 981 1213 q 906 1107 938 1133 q 835 1067 875 1081 q 751 1053 794 1053 q 624 1098 672 1053 q 576 1219 576 1143 q 581 1264 576 1240 z "},"ğ":{"ha":790,"x_min":46,"x_max":876,"o":"m 306 -119 q 460 -72 408 -119 q 531 57 513 -25 l 535 76 q 468 51 507 63 q 386 39 429 39 q 205 105 264 39 q 146 281 146 171 q 181 465 146 381 q 278 612 215 550 q 431 708 342 674 q 628 743 519 743 q 741 731 681 743 q 850 693 801 719 l 703 76 q 653 -69 683 -6 q 575 -174 624 -132 q 455 -239 526 -217 q 282 -261 383 -261 q 149 -245 208 -261 q 46 -206 90 -229 l 106 -69 q 192 -106 143 -92 q 306 -119 242 -119 m 428 175 q 505 189 465 175 q 571 224 544 203 l 660 594 q 597 601 628 601 q 481 578 533 601 q 392 514 429 554 q 333 420 354 474 q 313 306 313 367 q 339 210 313 244 q 428 175 365 175 m 468 1050 l 579 1050 q 577 1040 578 1044 q 576 1028 576 1035 q 595 971 576 992 q 651 950 614 950 q 724 980 699 950 q 763 1050 749 1010 l 876 1050 q 847 959 868 999 q 794 893 825 919 q 722 853 763 867 q 639 839 682 839 q 512 884 560 839 q 464 1006 464 929 q 468 1050 464 1026 z "},"Ġ":{"ha":910,"x_min":168,"x_max":1022,"o":"m 572 131 q 644 135 613 131 q 694 144 676 139 l 776 489 l 950 489 l 839 28 q 726 -4 803 11 q 544 -19 649 -19 q 382 8 453 -19 q 264 85 311 35 q 192 208 217 136 q 168 371 168 281 q 207 598 168 488 q 320 794 246 708 q 502 933 394 881 q 746 985 610 985 q 912 961 843 985 q 1022 910 981 938 l 954 771 q 863 814 918 794 q 736 833 807 833 q 573 794 644 833 q 451 692 501 756 q 376 549 401 629 q 350 385 350 468 q 572 131 350 131 m 758 1063 q 696 1084 721 1063 q 671 1146 671 1106 q 703 1226 671 1197 q 776 1256 736 1256 q 838 1233 813 1256 q 864 1169 864 1210 q 855 1125 864 1144 q 831 1092 846 1106 q 797 1070 815 1078 q 758 1063 778 1063 z "},"ġ":{"ha":790,"x_min":46,"x_max":850,"o":"m 306 -119 q 460 -72 408 -119 q 531 57 513 -25 l 535 76 q 468 51 507 63 q 386 39 429 39 q 205 105 264 39 q 146 281 146 171 q 181 465 146 381 q 278 612 215 550 q 431 708 342 674 q 628 743 519 743 q 741 731 681 743 q 850 693 801 719 l 703 76 q 653 -69 683 -6 q 575 -174 624 -132 q 455 -239 526 -217 q 282 -261 383 -261 q 149 -245 208 -261 q 46 -206 90 -229 l 106 -69 q 192 -106 143 -92 q 306 -119 242 -119 m 428 175 q 505 189 465 175 q 571 224 544 203 l 660 594 q 597 601 628 601 q 481 578 533 601 q 392 514 429 554 q 333 420 354 474 q 313 306 313 367 q 339 210 313 244 q 428 175 365 175 m 626 843 q 564 865 589 843 q 539 926 539 886 q 572 1007 539 978 q 644 1036 604 1036 q 706 1013 681 1036 q 732 950 732 990 q 723 906 732 925 q 699 872 714 886 q 665 851 683 858 q 626 843 646 843 z "},"Ģ":{"ha":910,"x_min":168,"x_max":1022,"o":"m 572 131 q 644 135 613 131 q 694 144 676 139 l 776 489 l 950 489 l 839 28 q 726 -4 803 11 q 544 -19 649 -19 q 382 8 453 -19 q 264 85 311 35 q 192 208 217 136 q 168 371 168 281 q 207 598 168 488 q 320 794 246 708 q 502 933 394 881 q 746 985 610 985 q 912 961 843 985 q 1022 910 981 938 l 954 771 q 863 814 918 794 q 736 833 807 833 q 573 794 644 833 q 451 692 501 756 q 376 549 401 629 q 350 385 350 468 q 572 131 350 131 m 468 -69 l 611 -69 q 544 -228 597 -176 q 401 -279 492 -279 q 367 -277 385 -279 q 333 -271 349 -275 l 358 -178 q 369 -179 364 -179 q 378 -179 374 -179 q 440 -151 424 -179 q 468 -69 456 -124 z "},"ģ":{"ha":790,"x_min":46,"x_max":850,"o":"m 306 -119 q 460 -72 408 -119 q 531 57 513 -25 l 535 76 q 468 51 507 63 q 386 39 429 39 q 205 105 264 39 q 146 281 146 171 q 181 465 146 381 q 278 612 215 550 q 431 708 342 674 q 628 743 519 743 q 741 731 681 743 q 850 693 801 719 l 703 76 q 653 -69 683 -6 q 575 -174 624 -132 q 455 -239 526 -217 q 282 -261 383 -261 q 149 -245 208 -261 q 46 -206 90 -229 l 106 -69 q 192 -106 143 -92 q 306 -119 242 -119 m 428 175 q 505 189 465 175 q 571 224 544 203 l 660 594 q 597 601 628 601 q 481 578 533 601 q 392 514 429 554 q 333 420 354 474 q 313 306 313 367 q 339 210 313 244 q 428 175 365 175 m 688 839 l 542 839 q 612 1008 553 944 q 763 1092 671 1072 l 806 1017 q 761 992 781 1006 q 728 958 742 979 q 704 909 714 938 q 688 839 694 881 z "},"Ĥ":{"ha":967,"x_min":108,"x_max":1083,"o":"m 908 963 l 1083 963 l 853 0 l 678 0 l 781 428 l 386 428 l 283 0 l 108 0 l 339 963 l 514 963 l 421 576 l 815 576 l 908 963 m 769 1313 l 928 1092 l 856 1026 l 743 1149 l 579 1029 l 524 1103 l 769 1313 z "},"ĥ":{"ha":782,"x_min":101,"x_max":799,"o":"m 101 0 l 353 1050 l 528 1078 l 442 721 q 502 734 469 728 q 567 740 535 740 q 672 723 628 740 q 744 675 715 706 q 785 601 772 644 q 799 508 799 558 q 782 382 799 449 l 690 0 l 522 0 l 610 364 q 624 429 617 396 q 631 492 631 463 q 606 569 631 538 q 514 600 582 600 q 458 595 486 600 q 408 583 431 590 l 269 0 l 101 0 m 725 1174 l 665 1114 l 558 1204 l 414 1114 l 368 1185 l 574 1336 l 725 1174 z "},"Ħ":{"ha":967,"x_min":106,"x_max":1156,"o":"m 197 838 l 306 838 l 336 963 l 511 963 l 481 838 l 875 838 l 906 963 l 1081 963 l 1050 838 l 1156 838 l 1126 711 l 1019 711 l 850 0 l 675 0 l 778 428 l 383 428 l 281 0 l 106 0 l 275 711 l 167 711 l 197 838 m 844 711 l 450 711 l 418 576 l 813 576 l 844 711 z "},"ħ":{"ha":782,"x_min":103,"x_max":799,"o":"m 103 0 l 304 840 l 210 840 l 236 953 l 331 953 l 354 1050 l 529 1078 l 499 953 l 707 953 l 681 840 l 471 840 l 440 710 q 501 723 468 717 q 567 729 535 729 q 672 712 628 729 q 744 664 715 694 q 785 590 772 633 q 799 497 799 547 q 795 442 799 468 q 783 382 792 415 l 692 0 l 524 0 l 611 364 q 624 424 618 396 q 631 481 631 451 q 606 558 631 526 q 514 589 582 589 q 458 584 486 589 q 408 572 431 579 l 271 0 l 103 0 z "},"Ĩ":{"ha":397,"x_min":108,"x_max":719,"o":"m 339 963 l 514 963 l 283 0 l 108 0 l 339 963 m 543 1074 q 497 1082 518 1074 q 458 1099 476 1090 q 422 1117 439 1108 q 386 1125 404 1125 q 344 1109 363 1125 q 307 1064 326 1093 l 228 1113 q 299 1213 257 1178 q 403 1247 340 1247 q 452 1239 431 1247 q 492 1221 474 1231 q 526 1203 510 1211 q 561 1194 543 1194 q 603 1211 585 1194 q 640 1257 621 1228 l 719 1208 q 647 1108 689 1142 q 543 1074 606 1074 z "},"ĩ":{"ha":376,"x_min":101,"x_max":654,"o":"m 268 0 l 101 0 l 275 726 l 443 726 l 268 0 m 478 853 q 432 861 453 853 q 392 878 411 869 q 356 896 374 888 q 321 904 339 904 q 279 888 297 904 q 242 843 261 872 l 163 892 q 233 992 192 957 q 338 1026 275 1026 q 387 1018 365 1026 q 426 1000 408 1010 q 461 982 444 990 q 496 974 478 974 q 538 990 519 974 q 575 1036 556 1007 l 654 988 q 582 887 624 921 q 478 853 540 853 z "},"Ī":{"ha":397,"x_min":108,"x_max":697,"o":"m 339 963 l 514 963 l 283 0 l 108 0 l 339 963 m 250 1090 l 279 1211 l 697 1211 l 668 1090 l 250 1090 z "},"ī":{"ha":376,"x_min":101,"x_max":633,"o":"m 268 0 l 101 0 l 275 726 l 443 726 l 268 0 m 186 876 l 215 997 l 633 997 l 604 876 l 186 876 z "},"Ĭ":{"ha":397,"x_min":108,"x_max":700,"o":"m 339 963 l 514 963 l 283 0 l 108 0 l 339 963 m 292 1264 l 403 1264 q 401 1253 401 1258 q 400 1242 400 1249 q 419 1185 400 1206 q 475 1164 438 1164 q 547 1194 522 1164 q 586 1264 572 1224 l 700 1264 q 670 1173 692 1213 q 617 1107 649 1133 q 546 1067 586 1081 q 463 1053 506 1053 q 335 1098 383 1053 q 288 1219 288 1143 q 292 1264 288 1240 z "},"ĭ":{"ha":376,"x_min":101,"x_max":636,"o":"m 268 0 l 101 0 l 275 726 l 443 726 l 268 0 m 228 1050 l 339 1050 q 337 1040 338 1044 q 336 1028 336 1035 q 355 971 336 992 q 411 950 374 950 q 483 980 458 950 q 522 1050 508 1010 l 636 1050 q 606 959 628 999 q 553 893 585 919 q 482 853 522 867 q 399 839 442 839 q 272 884 319 839 q 224 1006 224 929 q 228 1050 224 1026 z "},"Į":{"ha":397,"x_min":-11,"x_max":514,"o":"m 339 963 l 514 963 l 283 0 q 246 -24 269 -8 q 200 -58 222 -39 q 162 -97 178 -76 q 146 -137 146 -118 q 156 -156 146 -149 q 189 -164 165 -164 q 217 -162 201 -164 q 253 -154 233 -160 l 239 -265 q 186 -278 217 -274 q 128 -283 156 -283 q 23 -256 57 -283 q -11 -186 -11 -229 q 30 -90 -11 -139 q 142 0 71 -42 l 108 0 l 339 963 z "},"į":{"ha":376,"x_min":-24,"x_max":511,"o":"m 268 0 q 230 -26 253 -11 q 185 -60 207 -42 q 149 -98 164 -78 q 133 -137 133 -118 q 143 -156 133 -149 q 176 -164 153 -164 q 205 -162 189 -164 q 240 -154 221 -160 l 226 -265 q 174 -278 204 -274 q 115 -283 143 -283 q 10 -256 44 -283 q -24 -186 -24 -229 q 17 -93 -24 -139 q 125 0 58 -47 l 101 0 l 275 726 l 443 726 l 268 0 m 393 836 q 328 858 356 836 q 300 925 300 881 q 335 1010 300 976 q 417 1043 371 1043 q 483 1020 454 1043 q 511 953 511 997 q 475 869 511 901 q 393 836 439 836 z "},"İ":{"ha":397,"x_min":108,"x_max":565,"o":"m 339 963 l 514 963 l 283 0 l 108 0 l 339 963 m 460 1063 q 397 1084 422 1063 q 372 1146 372 1106 q 405 1226 372 1197 q 478 1256 438 1256 q 540 1233 514 1256 q 565 1169 565 1210 q 556 1125 565 1144 q 532 1092 547 1106 q 498 1070 517 1078 q 460 1063 479 1063 z "},"ı":{"ha":376,"x_min":101,"x_max":443,"o":"m 268 0 l 101 0 l 275 726 l 443 726 l 268 0 z "},"Ĳ":{"ha":1103,"x_min":108,"x_max":1225,"o":"m 339 963 l 514 963 l 283 0 l 108 0 l 339 963 m 1067 300 q 1026 172 1050 231 q 960 70 1001 113 q 855 3 918 28 q 696 -21 792 -21 q 546 6 611 -21 q 444 65 481 33 l 525 197 q 594 152 553 174 q 699 131 636 131 q 774 141 742 131 q 828 175 806 151 q 868 236 851 199 q 897 328 885 274 l 1049 963 l 1225 963 l 1067 300 z "},"ĳ":{"ha":771,"x_min":101,"x_max":907,"o":"m 268 0 l 101 0 l 275 726 l 443 726 l 268 0 m 393 836 q 328 858 356 836 q 300 925 300 881 q 335 1010 300 976 q 417 1043 371 1043 q 483 1020 454 1043 q 511 953 511 997 q 475 869 511 901 q 393 836 439 836 m 789 836 q 724 858 751 836 q 696 925 696 881 q 731 1010 696 976 q 813 1043 767 1043 q 878 1020 850 1043 q 907 953 907 997 q 871 869 907 901 q 789 836 835 836 m 669 26 q 627 -103 651 -49 q 567 -192 603 -157 q 484 -243 532 -226 q 369 -260 436 -260 q 303 -252 338 -260 q 246 -233 269 -244 l 288 -99 q 326 -111 304 -106 q 372 -117 347 -117 q 458 -77 429 -117 q 503 29 488 -37 l 669 726 l 838 726 l 669 26 z "},"Ĵ":{"ha":688,"x_min":29,"x_max":942,"o":"m 651 300 q 610 172 635 231 q 544 70 586 113 q 440 3 503 28 q 281 -21 376 -21 q 131 6 196 -21 q 29 65 65 33 l 110 197 q 179 152 138 174 q 283 131 221 131 q 358 141 326 131 q 413 175 390 151 q 453 236 436 199 q 482 328 469 274 l 633 963 l 810 963 l 651 300 m 783 1313 l 942 1092 l 869 1026 l 757 1149 l 593 1029 l 538 1103 l 783 1313 z "},"ĵ":{"ha":383,"x_min":-142,"x_max":589,"o":"m -18 -260 q -84 -252 -50 -260 q -142 -233 -118 -244 l -100 -99 q -62 -111 -83 -106 q -15 -117 -40 -117 q 71 -77 42 -117 q 115 29 100 -37 l 282 726 l 450 726 l 282 26 q 240 -103 264 -49 q 180 -192 215 -157 q 97 -243 144 -226 q -18 -260 49 -260 m 431 1089 l 589 868 l 517 803 l 404 925 l 240 806 l 185 879 l 431 1089 z "},"Ķ":{"ha":881,"x_min":108,"x_max":1074,"o":"m 686 0 q 624 116 658 56 q 552 234 590 176 q 472 343 514 292 q 388 433 429 394 l 283 0 l 108 0 l 339 963 l 514 963 l 421 578 q 539 675 478 624 q 658 778 600 726 q 769 876 717 829 q 861 963 821 924 l 1074 963 q 952 851 1017 910 q 820 733 888 793 q 684 613 753 672 q 549 501 615 554 q 638 400 592 457 q 726 278 683 343 q 808 142 769 213 q 879 0 847 71 l 686 0 m 400 -69 l 543 -69 q 476 -228 529 -176 q 333 -279 424 -279 q 299 -277 317 -279 q 265 -271 281 -275 l 290 -178 q 301 -179 296 -179 q 310 -179 306 -179 q 372 -151 356 -179 q 400 -69 388 -124 z "},"ķ":{"ha":776,"x_min":101,"x_max":875,"o":"m 376 450 q 464 520 419 483 q 548 594 508 557 q 622 665 588 631 q 682 726 657 699 l 875 726 q 799 644 842 688 q 708 558 756 601 q 611 474 661 515 q 514 394 561 432 q 583 310 549 358 q 650 208 618 261 q 708 101 682 156 q 751 0 735 47 l 565 0 q 522 93 546 46 q 471 185 499 140 q 413 270 443 231 q 351 340 382 310 l 268 0 l 101 0 l 353 1050 l 528 1078 l 376 450 m 331 -69 l 474 -69 q 407 -228 460 -176 q 264 -279 354 -279 q 229 -277 247 -279 q 196 -271 211 -275 l 221 -178 q 231 -179 226 -179 q 240 -179 236 -179 q 302 -151 286 -179 q 331 -69 318 -124 z "},"ĸ":{"ha":781,"x_min":101,"x_max":893,"o":"m 443 726 l 376 446 q 467 518 421 479 q 554 594 513 557 q 631 667 596 632 q 690 726 665 701 l 893 726 q 815 644 858 688 q 722 557 771 601 q 622 469 674 513 q 519 388 569 425 q 590 305 554 351 q 657 206 625 258 q 716 101 689 154 q 761 0 743 47 l 575 0 q 476 183 535 92 q 350 338 417 275 l 268 0 l 101 0 l 275 726 l 443 726 z "},"Ĺ":{"ha":744,"x_min":108,"x_max":744,"o":"m 744 147 l 710 0 l 108 0 l 339 963 l 514 963 l 318 147 l 744 147 m 593 1325 l 683 1211 l 421 1035 l 353 1118 l 593 1325 z "},"ĺ":{"ha":414,"x_min":146,"x_max":656,"o":"m 379 -14 q 269 3 314 -12 q 197 44 224 18 q 158 107 169 71 q 146 186 146 143 q 156 280 146 231 q 179 378 167 329 l 340 1050 l 515 1078 q 429 716 472 896 q 342 354 386 536 q 326 297 335 325 q 318 240 318 268 q 319 197 318 217 q 330 162 319 176 q 361 138 340 147 q 415 125 382 128 l 379 -14 m 619 1339 l 656 1218 l 389 1121 l 357 1211 l 619 1339 z "},"Ļ":{"ha":744,"x_min":108,"x_max":744,"o":"m 744 147 l 710 0 l 108 0 l 339 963 l 514 963 l 318 147 l 744 147 m 349 -69 l 492 -69 q 425 -228 478 -176 q 282 -279 372 -279 q 247 -277 265 -279 q 214 -271 229 -275 l 239 -178 q 249 -179 244 -179 q 258 -179 254 -179 q 320 -151 304 -179 q 349 -69 336 -124 z "},"ļ":{"ha":414,"x_min":39,"x_max":515,"o":"m 379 -14 q 269 3 314 -12 q 197 44 224 18 q 158 107 169 71 q 146 186 146 143 q 156 280 146 231 q 179 378 167 329 l 340 1050 l 515 1078 q 429 716 472 896 q 342 354 386 536 q 326 297 335 325 q 318 240 318 268 q 319 197 318 217 q 330 162 319 176 q 361 138 340 147 q 415 125 382 128 l 379 -14 m 174 -69 l 317 -69 q 250 -228 303 -176 q 107 -279 197 -279 q 72 -277 90 -279 q 39 -271 54 -275 l 64 -178 q 74 -179 69 -179 q 83 -179 79 -179 q 145 -151 129 -179 q 174 -69 161 -124 z "},"Ľ":{"ha":744,"x_min":108,"x_max":789,"o":"m 744 147 l 710 0 l 108 0 l 339 963 l 514 963 l 318 147 l 744 147 m 789 964 l 669 639 l 556 639 l 632 964 l 789 964 z "},"ľ":{"ha":492,"x_min":146,"x_max":797,"o":"m 379 -14 q 269 3 314 -12 q 197 44 224 18 q 158 107 169 71 q 146 186 146 143 q 156 280 146 231 q 179 378 167 329 l 340 1050 l 515 1078 q 429 716 472 896 q 342 354 386 536 q 326 297 335 325 q 318 240 318 268 q 319 197 318 217 q 330 162 319 176 q 361 138 340 147 q 415 125 382 128 l 379 -14 m 797 1078 l 678 753 l 564 753 l 640 1078 l 797 1078 z "},"Ŀ":{"ha":744,"x_min":108,"x_max":788,"o":"m 744 147 l 710 0 l 108 0 l 339 963 l 514 963 l 318 147 l 744 147 m 682 419 q 619 441 644 419 q 594 503 594 463 q 627 583 594 554 q 700 613 660 613 q 762 590 736 613 q 788 526 788 567 q 778 482 788 501 q 754 449 769 463 q 720 427 739 435 q 682 419 701 419 z "},"ŀ":{"ha":563,"x_min":146,"x_max":674,"o":"m 379 -14 q 269 3 314 -12 q 197 44 224 18 q 158 107 169 71 q 146 186 146 143 q 156 280 146 231 q 179 378 167 329 l 340 1050 l 515 1078 q 429 716 472 896 q 342 354 386 536 q 326 297 335 325 q 318 240 318 268 q 319 197 318 217 q 330 162 319 176 q 361 138 340 147 q 415 125 382 128 l 379 -14 m 568 419 q 506 441 531 419 q 481 503 481 463 q 513 583 481 554 q 586 613 546 613 q 648 590 622 613 q 674 526 674 567 q 665 482 674 501 q 640 449 656 463 q 606 427 625 435 q 568 419 588 419 z "},"Ł":{"ha":792,"x_min":97,"x_max":776,"o":"m 97 444 l 265 522 l 371 963 l 546 963 l 460 606 l 639 689 l 668 571 l 425 458 l 350 147 l 776 147 l 742 0 l 140 0 l 229 372 l 125 326 l 97 444 z "},"ł":{"ha":493,"x_min":90,"x_max":592,"o":"m 90 519 l 265 597 l 374 1050 l 549 1078 l 454 679 l 565 731 l 592 618 l 421 540 l 375 354 q 358 288 367 322 q 350 213 350 253 q 370 153 350 176 q 449 125 390 131 l 413 -14 q 302 3 347 -12 q 230 44 257 18 q 191 107 203 71 q 179 186 179 143 q 190 280 179 231 q 213 378 200 329 l 232 458 l 117 407 l 90 519 z "},"Ń":{"ha":999,"x_min":108,"x_max":1114,"o":"m 743 0 q 683 174 717 81 q 610 360 649 267 q 531 541 572 453 q 449 703 490 629 l 281 0 l 108 0 l 339 963 l 479 963 q 560 819 518 900 q 643 651 603 739 q 721 474 683 563 q 786 306 758 385 l 940 963 l 1114 963 l 883 0 l 743 0 m 865 1325 l 956 1211 l 693 1035 l 625 1118 l 865 1325 z "},"ń":{"ha":782,"x_min":101,"x_max":803,"o":"m 268 696 q 395 727 324 713 q 551 742 467 742 q 739 679 679 742 q 799 511 799 617 q 794 449 799 482 q 782 382 789 417 l 690 0 l 522 0 l 608 364 q 622 426 615 394 q 631 488 629 458 q 608 568 632 536 q 513 600 583 600 q 410 588 453 600 l 269 0 l 101 0 l 268 696 m 713 1100 l 803 986 l 540 810 l 472 893 l 713 1100 z "},"Ņ":{"ha":999,"x_min":108,"x_max":1114,"o":"m 743 0 q 683 174 717 81 q 610 360 649 267 q 531 541 572 453 q 449 703 490 629 l 281 0 l 108 0 l 339 963 l 479 963 q 560 819 518 900 q 643 651 603 739 q 721 474 683 563 q 786 306 758 385 l 940 963 l 1114 963 l 883 0 l 743 0 m 424 -69 l 567 -69 q 500 -228 553 -176 q 357 -279 447 -279 q 322 -277 340 -279 q 289 -271 304 -275 l 314 -178 q 324 -179 319 -179 q 333 -179 329 -179 q 395 -151 379 -179 q 424 -69 411 -124 z "},"ņ":{"ha":782,"x_min":101,"x_max":799,"o":"m 268 696 q 395 727 324 713 q 551 742 467 742 q 739 679 679 742 q 799 511 799 617 q 794 449 799 482 q 782 382 789 417 l 690 0 l 522 0 l 608 364 q 622 426 615 394 q 631 488 629 458 q 608 568 632 536 q 513 600 583 600 q 410 588 453 600 l 269 0 l 101 0 l 268 696 m 307 -69 l 450 -69 q 383 -228 436 -176 q 240 -279 331 -279 q 206 -277 224 -279 q 172 -271 188 -275 l 197 -178 q 208 -179 203 -179 q 217 -179 213 -179 q 278 -151 263 -179 q 307 -69 294 -124 z "},"Ň":{"ha":999,"x_min":108,"x_max":1114,"o":"m 743 0 q 683 174 717 81 q 610 360 649 267 q 531 541 572 453 q 449 703 490 629 l 281 0 l 108 0 l 339 963 l 479 963 q 560 819 518 900 q 643 651 603 739 q 721 474 683 563 q 786 306 758 385 l 940 963 l 1114 963 l 883 0 l 743 0 m 726 1031 l 568 1251 l 640 1317 l 751 1194 l 917 1314 l 971 1240 l 726 1031 z "},"ň":{"ha":782,"x_min":101,"x_max":822,"o":"m 268 696 q 395 727 324 713 q 551 742 467 742 q 739 679 679 742 q 799 511 799 617 q 794 449 799 482 q 782 382 789 417 l 690 0 l 522 0 l 608 364 q 622 426 615 394 q 631 488 629 458 q 608 568 632 536 q 513 600 583 600 q 410 588 453 600 l 269 0 l 101 0 l 268 696 m 578 811 l 419 1032 l 492 1097 l 603 975 l 768 1094 l 822 1021 l 578 811 z "},"ŉ":{"ha":796,"x_min":115,"x_max":813,"o":"m 282 696 q 409 727 338 713 q 565 742 481 742 q 753 679 693 742 q 813 511 813 617 q 808 449 813 482 q 796 382 803 417 l 704 0 l 536 0 l 622 364 q 636 426 629 394 q 644 488 643 458 q 622 568 646 536 q 526 600 597 600 q 424 588 467 600 l 283 0 l 115 0 l 282 696 m 247 1078 l 404 1078 q 343 910 381 979 q 250 782 306 842 l 147 818 q 215 947 192 888 q 247 1078 239 1007 z "},"Ŋ":{"ha":999,"x_min":108,"x_max":1114,"o":"m 725 54 q 667 217 699 131 q 599 388 635 303 q 524 555 563 474 q 449 703 486 636 l 281 0 l 108 0 l 339 963 l 479 963 q 563 814 519 897 q 647 642 607 731 q 724 465 688 553 q 786 306 760 378 l 940 963 l 1114 963 l 886 11 q 849 -104 871 -54 q 796 -189 828 -154 q 719 -242 764 -224 q 610 -260 674 -260 q 552 -254 583 -260 q 494 -239 521 -249 l 544 -108 q 572 -117 557 -114 q 603 -121 586 -121 q 651 -108 632 -121 q 684 -73 671 -96 q 706 -18 697 -50 q 725 54 715 14 z "},"ŋ":{"ha":782,"x_min":101,"x_max":799,"o":"m 689 -6 q 651 -118 674 -71 q 597 -197 629 -165 q 521 -243 565 -228 q 415 -258 476 -258 q 361 -253 390 -258 q 308 -240 332 -249 l 354 -118 q 410 -129 379 -129 q 481 -99 457 -129 q 519 -11 506 -69 l 608 364 q 623 429 615 396 q 631 492 631 463 q 606 569 631 539 q 513 600 581 600 q 458 597 485 600 q 410 588 432 593 l 269 0 l 101 0 l 268 696 q 395 727 324 713 q 551 742 467 742 q 739 678 679 742 q 799 510 799 615 q 782 382 799 449 l 689 -6 z "},"Ō":{"ha":1031,"x_min":168,"x_max":1088,"o":"m 701 833 q 558 794 622 833 q 447 690 493 754 q 376 545 401 626 q 350 381 350 464 q 399 199 350 267 q 554 131 447 131 q 699 170 633 131 q 810 274 764 210 q 881 419 856 338 q 907 583 907 500 q 858 765 907 697 q 701 833 808 833 m 536 -21 q 388 5 456 -21 q 272 79 321 31 q 195 200 222 128 q 168 365 168 272 q 204 588 168 476 q 310 787 240 699 q 483 930 381 875 q 719 985 586 985 q 868 959 800 985 q 985 885 936 933 q 1060 764 1033 836 q 1088 599 1088 692 q 1051 376 1088 488 q 946 177 1015 265 q 773 34 876 89 q 536 -21 669 -21 m 543 1090 l 572 1211 l 990 1211 l 961 1090 l 543 1090 z "},"ō":{"ha":782,"x_min":135,"x_max":818,"o":"m 400 -19 q 203 57 271 -19 q 135 258 135 133 q 160 425 135 339 q 236 582 185 511 q 365 699 288 653 q 549 744 443 744 q 746 669 678 744 q 814 468 814 593 q 790 300 814 386 q 715 143 765 214 q 585 26 664 72 q 400 -19 507 -19 m 528 603 q 431 572 474 603 q 360 492 389 540 q 317 385 332 443 q 301 274 301 328 q 328 164 301 204 q 421 124 354 124 q 517 155 475 124 q 588 234 560 186 q 632 340 617 282 q 647 451 647 399 q 621 562 647 521 q 528 603 594 603 m 371 876 l 400 997 l 818 997 l 789 876 l 371 876 z "},"Ŏ":{"ha":1031,"x_min":168,"x_max":1088,"o":"m 701 833 q 558 794 622 833 q 447 690 493 754 q 376 545 401 626 q 350 381 350 464 q 399 199 350 267 q 554 131 447 131 q 699 170 633 131 q 810 274 764 210 q 881 419 856 338 q 907 583 907 500 q 858 765 907 697 q 701 833 808 833 m 536 -21 q 388 5 456 -21 q 272 79 321 31 q 195 200 222 128 q 168 365 168 272 q 204 588 168 476 q 310 787 240 699 q 483 930 381 875 q 719 985 586 985 q 868 959 800 985 q 985 885 936 933 q 1060 764 1033 836 q 1088 599 1088 692 q 1051 376 1088 488 q 946 177 1015 265 q 773 34 876 89 q 536 -21 669 -21 m 582 1264 l 693 1264 q 691 1253 692 1258 q 690 1242 690 1249 q 709 1185 690 1206 q 765 1164 728 1164 q 838 1194 813 1164 q 876 1264 863 1224 l 990 1264 q 960 1173 982 1213 q 908 1107 939 1133 q 836 1067 876 1081 q 753 1053 796 1053 q 626 1098 674 1053 q 578 1219 578 1143 q 582 1264 578 1240 z "},"ŏ":{"ha":782,"x_min":135,"x_max":815,"o":"m 400 -19 q 203 57 271 -19 q 135 258 135 133 q 160 425 135 339 q 236 582 185 511 q 365 699 288 653 q 549 744 443 744 q 746 669 678 744 q 814 468 814 593 q 790 300 814 386 q 715 143 765 214 q 585 26 664 72 q 400 -19 507 -19 m 528 603 q 431 572 474 603 q 360 492 389 540 q 317 385 332 443 q 301 274 301 328 q 328 164 301 204 q 421 124 354 124 q 517 155 475 124 q 588 234 560 186 q 632 340 617 282 q 647 451 647 399 q 621 562 647 521 q 528 603 594 603 m 407 1050 l 518 1050 q 516 1040 517 1044 q 515 1028 515 1035 q 534 971 515 992 q 590 950 553 950 q 663 980 638 950 q 701 1050 688 1010 l 815 1050 q 785 959 807 999 q 733 893 764 919 q 661 853 701 867 q 578 839 621 839 q 451 884 499 839 q 403 1006 403 929 q 407 1050 403 1026 z "},"Ő":{"ha":1031,"x_min":168,"x_max":1132,"o":"m 701 833 q 558 794 622 833 q 447 690 493 754 q 376 545 401 626 q 350 381 350 464 q 399 199 350 267 q 554 131 447 131 q 699 170 633 131 q 810 274 764 210 q 881 419 856 338 q 907 583 907 500 q 858 765 907 697 q 701 833 808 833 m 536 -21 q 388 5 456 -21 q 272 79 321 31 q 195 200 222 128 q 168 365 168 272 q 204 588 168 476 q 310 787 240 699 q 483 930 381 875 q 719 985 586 985 q 868 959 800 985 q 985 885 936 933 q 1060 764 1033 836 q 1088 599 1088 692 q 1051 376 1088 488 q 946 177 1015 265 q 773 34 876 89 q 536 -21 669 -21 m 1047 1311 l 1132 1207 l 914 1022 l 849 1096 l 1047 1311 m 783 1313 l 869 1208 l 650 1025 l 586 1097 l 783 1313 z "},"ő":{"ha":782,"x_min":135,"x_max":951,"o":"m 400 -19 q 203 57 271 -19 q 135 258 135 133 q 160 425 135 339 q 236 582 185 511 q 365 699 288 653 q 549 744 443 744 q 746 669 678 744 q 814 468 814 593 q 790 300 814 386 q 715 143 765 214 q 585 26 664 72 q 400 -19 507 -19 m 528 603 q 431 572 474 603 q 360 492 389 540 q 317 385 332 443 q 301 274 301 328 q 328 164 301 204 q 421 124 354 124 q 517 155 475 124 q 588 234 560 186 q 632 340 617 282 q 647 451 647 399 q 621 562 647 521 q 528 603 594 603 m 867 1090 l 951 986 l 733 801 l 668 875 l 867 1090 m 603 1092 l 689 988 l 469 804 l 406 876 l 603 1092 z "},"Ŕ":{"ha":867,"x_min":108,"x_max":947,"o":"m 596 972 q 858 901 768 972 q 947 711 947 829 q 933 610 947 658 q 887 522 918 563 q 806 449 856 481 q 688 396 757 417 q 726 319 706 364 q 769 222 747 274 q 813 113 792 169 q 850 0 833 56 l 665 0 q 631 101 649 50 q 593 201 613 153 q 553 291 574 249 q 514 367 533 333 q 483 365 501 365 q 451 365 465 365 l 371 365 l 283 0 l 108 0 l 335 949 q 470 967 401 963 q 596 972 539 972 m 769 692 q 714 797 769 768 q 565 825 658 825 q 524 824 546 825 q 479 819 501 822 l 404 506 l 482 506 q 597 516 544 506 q 688 549 650 526 q 748 606 726 571 q 769 692 769 642 m 764 1325 l 854 1211 l 592 1035 l 524 1118 l 764 1325 z "},"ŕ":{"ha":554,"x_min":101,"x_max":724,"o":"m 639 578 q 579 593 611 588 q 504 599 547 599 q 454 595 481 599 q 410 586 428 592 l 269 0 l 101 0 l 268 693 q 394 727 326 713 q 542 742 463 742 q 579 740 558 742 q 620 735 600 738 q 658 728 640 732 q 688 718 675 724 l 639 578 m 633 1100 l 724 986 l 461 810 l 393 893 l 633 1100 z "},"Ŗ":{"ha":867,"x_min":108,"x_max":947,"o":"m 596 972 q 858 901 768 972 q 947 711 947 829 q 933 610 947 658 q 887 522 918 563 q 806 449 856 481 q 688 396 757 417 q 726 319 706 364 q 769 222 747 274 q 813 113 792 169 q 850 0 833 56 l 665 0 q 631 101 649 50 q 593 201 613 153 q 553 291 574 249 q 514 367 533 333 q 483 365 501 365 q 451 365 465 365 l 371 365 l 283 0 l 108 0 l 335 949 q 470 967 401 963 q 596 972 539 972 m 769 692 q 714 797 769 768 q 565 825 658 825 q 524 824 546 825 q 479 819 501 822 l 404 506 l 482 506 q 597 516 544 506 q 688 549 650 526 q 748 606 726 571 q 769 692 769 642 m 385 -69 l 528 -69 q 461 -228 514 -176 q 318 -279 408 -279 q 283 -277 301 -279 q 250 -271 265 -275 l 275 -178 q 285 -179 281 -179 q 294 -179 290 -179 q 356 -151 340 -179 q 385 -69 372 -124 z "},"ŗ":{"ha":554,"x_min":-39,"x_max":688,"o":"m 639 578 q 579 593 611 588 q 504 599 547 599 q 454 595 481 599 q 410 586 428 592 l 269 0 l 101 0 l 268 693 q 394 727 326 713 q 542 742 463 742 q 579 740 558 742 q 620 735 600 738 q 658 728 640 732 q 688 718 675 724 l 639 578 m 96 -69 l 239 -69 q 172 -228 225 -176 q 29 -279 119 -279 q -6 -277 13 -279 q -39 -271 -24 -275 l -14 -178 q -3 -179 -8 -179 q 6 -179 1 -179 q 67 -151 51 -179 q 96 -69 83 -124 z "},"Ř":{"ha":867,"x_min":108,"x_max":947,"o":"m 596 972 q 858 901 768 972 q 947 711 947 829 q 933 610 947 658 q 887 522 918 563 q 806 449 856 481 q 688 396 757 417 q 726 319 706 364 q 769 222 747 274 q 813 113 792 169 q 850 0 833 56 l 665 0 q 631 101 649 50 q 593 201 613 153 q 553 291 574 249 q 514 367 533 333 q 483 365 501 365 q 451 365 465 365 l 371 365 l 283 0 l 108 0 l 335 949 q 470 967 401 963 q 596 972 539 972 m 769 692 q 714 797 769 768 q 565 825 658 825 q 524 824 546 825 q 479 819 501 822 l 404 506 l 482 506 q 597 516 544 506 q 688 549 650 526 q 748 606 726 571 q 769 692 769 642 m 639 1031 l 481 1251 l 553 1317 l 664 1194 l 829 1314 l 883 1240 l 639 1031 z "},"ř":{"ha":554,"x_min":101,"x_max":761,"o":"m 639 578 q 579 593 611 588 q 504 599 547 599 q 454 595 481 599 q 410 586 428 592 l 269 0 l 101 0 l 268 693 q 394 727 326 713 q 542 742 463 742 q 579 740 558 742 q 620 735 600 738 q 658 728 640 732 q 688 718 675 724 l 639 578 m 517 811 l 358 1032 l 431 1097 l 542 975 l 707 1094 l 761 1021 l 517 811 z "},"Ś":{"ha":732,"x_min":50,"x_max":850,"o":"m 354 128 q 428 135 392 128 q 495 158 465 142 q 543 203 525 175 q 561 275 561 232 q 547 330 561 307 q 510 371 533 353 q 456 405 486 389 q 393 439 426 421 q 324 480 357 457 q 267 532 292 503 q 227 600 242 561 q 213 692 213 639 q 237 809 213 756 q 309 901 261 863 q 427 963 357 940 q 590 985 497 985 q 673 978 633 985 q 747 960 713 971 q 808 938 782 950 q 850 914 835 925 l 774 781 q 692 821 744 804 q 578 838 640 838 q 506 830 540 838 q 447 806 472 822 q 406 765 421 790 q 392 704 392 739 q 402 651 392 672 q 431 615 413 631 q 475 585 450 599 q 529 556 500 572 q 610 508 572 532 q 678 454 649 485 q 724 384 707 424 q 742 289 742 344 q 713 153 742 211 q 631 56 683 94 q 506 -1 578 18 q 347 -21 433 -21 q 242 -12 290 -21 q 157 8 194 -4 q 92 35 119 21 q 50 60 65 49 l 128 197 q 165 175 142 188 q 217 152 188 163 q 281 135 246 142 q 354 128 315 128 m 711 1325 l 801 1211 l 539 1035 l 471 1118 l 711 1325 z "},"ś":{"ha":608,"x_min":63,"x_max":724,"o":"m 311 118 q 417 140 378 118 q 456 206 456 161 q 431 263 456 242 q 343 314 406 285 q 281 346 310 329 q 232 385 253 363 q 199 437 211 407 q 186 508 186 467 q 265 681 186 617 q 494 744 344 744 q 619 730 564 744 q 701 700 674 715 l 642 569 q 574 597 618 583 q 481 610 529 610 q 434 606 457 610 q 393 592 411 601 q 363 565 375 582 q 351 522 351 547 q 377 470 351 490 q 451 428 403 450 q 529 388 497 407 q 582 344 561 368 q 613 290 603 319 q 622 218 622 260 q 601 123 622 167 q 541 48 581 79 q 443 -1 501 17 q 310 -19 385 -19 q 217 -12 258 -19 q 146 3 176 -6 q 94 22 115 13 q 63 39 74 32 l 122 171 q 151 156 132 165 q 194 139 169 147 q 248 124 218 131 q 311 118 278 118 m 633 1100 l 724 986 l 461 810 l 393 893 l 633 1100 z "},"Ŝ":{"ha":732,"x_min":50,"x_max":850,"o":"m 354 128 q 428 135 392 128 q 495 158 465 142 q 543 203 525 175 q 561 275 561 232 q 547 330 561 307 q 510 371 533 353 q 456 405 486 389 q 393 439 426 421 q 324 480 357 457 q 267 532 292 503 q 227 600 242 561 q 213 692 213 639 q 237 809 213 756 q 309 901 261 863 q 427 963 357 940 q 590 985 497 985 q 673 978 633 985 q 747 960 713 971 q 808 938 782 950 q 850 914 835 925 l 774 781 q 692 821 744 804 q 578 838 640 838 q 506 830 540 838 q 447 806 472 822 q 406 765 421 790 q 392 704 392 739 q 402 651 392 672 q 431 615 413 631 q 475 585 450 599 q 529 556 500 572 q 610 508 572 532 q 678 454 649 485 q 724 384 707 424 q 742 289 742 344 q 713 153 742 211 q 631 56 683 94 q 506 -1 578 18 q 347 -21 433 -21 q 242 -12 290 -21 q 157 8 194 -4 q 92 35 119 21 q 50 60 65 49 l 128 197 q 165 175 142 188 q 217 152 188 163 q 281 135 246 142 q 354 128 315 128 m 657 1313 l 815 1092 l 743 1026 l 631 1149 l 467 1029 l 411 1103 l 657 1313 z "},"ŝ":{"ha":608,"x_min":63,"x_max":724,"o":"m 311 118 q 417 140 378 118 q 456 206 456 161 q 431 263 456 242 q 343 314 406 285 q 281 346 310 329 q 232 385 253 363 q 199 437 211 407 q 186 508 186 467 q 265 681 186 617 q 494 744 344 744 q 619 730 564 744 q 701 700 674 715 l 642 569 q 574 597 618 583 q 481 610 529 610 q 434 606 457 610 q 393 592 411 601 q 363 565 375 582 q 351 522 351 547 q 377 470 351 490 q 451 428 403 450 q 529 388 497 407 q 582 344 561 368 q 613 290 603 319 q 622 218 622 260 q 601 123 622 167 q 541 48 581 79 q 443 -1 501 17 q 310 -19 385 -19 q 217 -12 258 -19 q 146 3 176 -6 q 94 22 115 13 q 63 39 74 32 l 122 171 q 151 156 132 165 q 194 139 169 147 q 248 124 218 131 q 311 118 278 118 m 565 1089 l 724 868 l 651 803 l 539 925 l 375 806 l 319 879 l 565 1089 z "},"Ş":{"ha":732,"x_min":50,"x_max":850,"o":"m 363 -57 q 421 -146 421 -86 q 407 -208 421 -182 q 369 -251 393 -233 q 313 -276 344 -268 q 244 -285 281 -285 q 118 -258 168 -285 l 160 -164 q 195 -176 175 -171 q 239 -181 215 -181 q 278 -172 264 -181 q 293 -147 293 -164 q 283 -122 293 -131 q 249 -101 272 -112 l 231 -93 q 253 -58 239 -78 q 282 -18 268 -37 q 134 17 192 -7 q 50 60 76 40 l 128 197 q 165 175 142 188 q 217 152 188 163 q 281 135 246 142 q 354 128 315 128 q 428 135 392 128 q 495 158 465 142 q 543 203 525 175 q 561 275 561 232 q 547 330 561 307 q 510 371 533 353 q 456 405 486 389 q 393 439 426 421 q 324 480 357 457 q 267 532 292 503 q 227 600 242 561 q 213 692 213 639 q 237 809 213 756 q 309 901 261 863 q 427 963 357 940 q 590 985 497 985 q 673 978 633 985 q 747 960 713 971 q 808 938 782 950 q 850 914 835 925 l 774 781 q 692 821 744 804 q 578 838 640 838 q 506 830 540 838 q 447 806 472 822 q 406 765 421 790 q 392 704 392 739 q 402 651 392 672 q 431 615 413 631 q 475 585 450 599 q 529 556 500 572 q 610 508 572 532 q 678 454 649 485 q 724 384 707 424 q 742 289 742 344 q 716 160 742 215 q 643 66 690 104 q 531 6 596 28 q 389 -19 467 -15 q 374 -40 382 -31 q 363 -57 367 -50 z "},"ş":{"ha":608,"x_min":63,"x_max":701,"o":"m 343 -57 q 401 -146 401 -86 q 388 -208 401 -182 q 349 -251 374 -233 q 293 -276 325 -268 q 225 -285 261 -285 q 99 -258 149 -285 l 140 -164 q 176 -176 156 -171 q 219 -181 196 -181 q 259 -172 244 -181 q 274 -147 274 -164 q 263 -122 274 -131 q 229 -101 253 -112 l 211 -93 q 233 -58 219 -78 q 261 -18 247 -37 q 131 8 181 -11 q 63 39 82 28 l 122 171 q 151 156 132 165 q 194 139 169 147 q 248 124 218 131 q 311 118 278 118 q 417 140 378 118 q 456 206 456 161 q 431 263 456 242 q 343 314 406 285 q 281 346 310 329 q 232 385 253 363 q 199 437 211 407 q 186 508 186 467 q 265 681 186 617 q 494 744 344 744 q 619 730 564 744 q 701 700 674 715 l 642 569 q 574 597 618 583 q 481 610 529 610 q 434 606 457 610 q 393 592 411 601 q 363 565 375 582 q 351 522 351 547 q 377 470 351 490 q 451 428 403 450 q 529 388 497 407 q 582 344 561 368 q 613 290 603 319 q 622 218 622 260 q 558 62 622 125 q 371 -17 493 -1 q 343 -57 353 -42 z "},"Ţ":{"ha":808,"x_min":189,"x_max":1013,"o":"m 433 -57 q 492 -146 492 -86 q 478 -208 492 -182 q 440 -251 464 -233 q 383 -276 415 -268 q 315 -285 351 -285 q 189 -258 239 -285 l 231 -164 q 266 -176 246 -171 q 310 -181 286 -181 q 349 -172 335 -181 q 364 -147 364 -164 q 353 -122 364 -131 q 319 -101 343 -112 l 301 -93 q 331 -47 313 -74 q 365 0 350 -21 l 319 0 l 515 815 l 229 815 l 264 963 l 1013 963 l 976 815 l 690 815 l 494 0 l 474 0 l 433 -57 z "},"ţ":{"ha":557,"x_min":131,"x_max":663,"o":"m 375 -57 q 433 -146 433 -86 q 419 -208 433 -182 q 381 -251 406 -233 q 325 -276 357 -268 q 257 -285 293 -285 q 131 -258 181 -285 l 172 -164 q 208 -176 188 -171 q 251 -181 228 -181 q 291 -172 276 -181 q 306 -147 306 -164 q 295 -122 306 -131 q 261 -101 285 -112 l 243 -93 q 268 -54 253 -76 q 297 -12 283 -32 q 178 51 214 1 q 142 176 142 100 q 147 245 142 210 q 161 321 151 281 l 303 918 l 478 946 l 425 726 l 663 726 l 629 588 l 392 588 l 322 300 q 313 249 315 269 q 310 213 310 229 q 313 180 310 196 q 327 152 317 164 q 358 133 338 140 q 413 125 378 125 q 485 135 450 125 q 546 156 519 144 l 558 21 q 493 -1 532 10 q 403 -17 454 -12 l 375 -57 z "},"Ť":{"ha":808,"x_min":229,"x_max":1013,"o":"m 1013 963 l 976 815 l 690 815 l 494 0 l 319 0 l 515 815 l 229 815 l 264 963 l 1013 963 m 646 1031 l 488 1251 l 560 1317 l 671 1194 l 836 1314 l 890 1240 l 646 1031 z "},"ť":{"ha":557,"x_min":142,"x_max":765,"o":"m 303 918 l 478 946 l 425 726 l 663 726 l 629 588 l 392 588 l 322 300 q 313 249 315 269 q 310 213 310 229 q 313 180 310 196 q 327 152 317 164 q 358 133 338 140 q 413 125 378 125 q 485 135 450 125 q 546 156 519 144 l 558 21 q 478 -6 526 7 q 364 -18 429 -18 q 193 34 244 -18 q 142 176 142 86 q 147 245 142 210 q 161 321 151 281 l 303 918 m 765 1078 l 657 808 l 544 808 l 608 1078 l 765 1078 z "},"Ŧ":{"ha":808,"x_min":229,"x_max":1013,"o":"m 1013 963 l 976 815 l 690 815 l 622 535 l 810 535 l 778 406 l 592 406 l 494 0 l 319 0 l 417 406 l 233 406 l 265 535 l 447 535 l 515 815 l 229 815 l 264 963 l 1013 963 z "},"ŧ":{"ha":557,"x_min":142,"x_max":663,"o":"m 303 918 l 478 946 l 425 726 l 663 726 l 629 588 l 392 588 l 354 435 l 601 435 l 574 322 l 328 322 l 322 300 q 313 249 315 269 q 310 213 310 229 q 313 180 310 196 q 327 152 317 164 q 358 133 338 140 q 413 125 378 125 q 485 135 450 125 q 546 156 519 144 l 558 21 q 478 -6 526 7 q 364 -18 429 -18 q 193 34 244 -18 q 142 176 142 86 q 147 245 142 210 q 161 321 151 281 l 303 918 z "},"Ũ":{"ha":940,"x_min":179,"x_max":1063,"o":"m 917 354 q 864 196 896 265 q 781 78 832 126 q 658 5 731 31 q 482 -21 585 -21 q 344 1 401 -21 q 250 60 286 22 q 197 149 214 97 q 179 263 179 201 q 184 333 179 294 q 199 408 189 372 l 331 963 l 507 963 l 369 389 q 358 334 363 363 q 354 279 354 306 q 362 222 354 249 q 388 175 369 194 q 435 144 406 156 q 507 132 464 132 q 663 192 608 132 q 744 371 717 251 l 886 963 l 1063 963 l 917 354 m 801 1074 q 756 1082 776 1074 q 716 1099 735 1090 q 680 1117 697 1108 q 644 1125 663 1125 q 603 1109 621 1125 q 565 1064 585 1093 l 486 1113 q 557 1213 515 1178 q 661 1247 599 1247 q 710 1239 689 1247 q 750 1221 732 1231 q 785 1203 768 1211 q 819 1194 801 1194 q 861 1211 843 1194 q 899 1257 879 1228 l 978 1208 q 906 1108 947 1142 q 801 1074 864 1074 z "},"ũ":{"ha":788,"x_min":149,"x_max":844,"o":"m 844 726 l 742 294 q 731 231 735 263 q 728 167 728 199 q 734 88 728 126 q 756 11 740 49 l 606 -11 q 591 23 597 4 q 579 61 585 42 q 493 8 544 33 q 374 -18 442 -18 q 269 0 313 -18 q 199 49 226 18 q 160 123 172 81 q 149 213 149 165 q 165 344 149 274 l 257 726 l 425 726 l 335 349 q 317 231 317 276 q 321 189 317 208 q 335 155 325 169 q 365 132 346 140 q 411 124 383 124 q 493 142 457 124 q 560 193 529 161 q 579 315 564 253 l 676 726 l 844 726 m 667 853 q 621 861 642 853 q 581 878 600 869 q 545 896 563 888 q 510 904 528 904 q 468 888 486 904 q 431 843 450 872 l 351 892 q 422 992 381 957 q 526 1026 464 1026 q 576 1018 554 1026 q 615 1000 597 1010 q 650 982 633 990 q 685 974 667 974 q 726 990 708 974 q 764 1036 744 1007 l 843 988 q 771 887 813 921 q 667 853 729 853 z "},"Ū":{"ha":940,"x_min":179,"x_max":1063,"o":"m 917 354 q 864 196 896 265 q 781 78 832 126 q 658 5 731 31 q 482 -21 585 -21 q 344 1 401 -21 q 250 60 286 22 q 197 149 214 97 q 179 263 179 201 q 184 333 179 294 q 199 408 189 372 l 331 963 l 507 963 l 369 389 q 358 334 363 363 q 354 279 354 306 q 362 222 354 249 q 388 175 369 194 q 435 144 406 156 q 507 132 464 132 q 663 192 608 132 q 744 371 717 251 l 886 963 l 1063 963 l 917 354 m 508 1090 l 538 1211 l 956 1211 l 926 1090 l 508 1090 z "},"ū":{"ha":788,"x_min":149,"x_max":844,"o":"m 844 726 l 742 294 q 731 231 735 263 q 728 167 728 199 q 734 88 728 126 q 756 11 740 49 l 606 -11 q 591 23 597 4 q 579 61 585 42 q 493 8 544 33 q 374 -18 442 -18 q 269 0 313 -18 q 199 49 226 18 q 160 123 172 81 q 149 213 149 165 q 165 344 149 274 l 257 726 l 425 726 l 335 349 q 317 231 317 276 q 321 189 317 208 q 335 155 325 169 q 365 132 346 140 q 411 124 383 124 q 493 142 457 124 q 560 193 529 161 q 579 315 564 253 l 676 726 l 844 726 m 371 876 l 400 997 l 818 997 l 789 876 l 371 876 z "},"Ŭ":{"ha":940,"x_min":179,"x_max":1063,"o":"m 917 354 q 864 196 896 265 q 781 78 832 126 q 658 5 731 31 q 482 -21 585 -21 q 344 1 401 -21 q 250 60 286 22 q 197 149 214 97 q 179 263 179 201 q 184 333 179 294 q 199 408 189 372 l 331 963 l 507 963 l 369 389 q 358 334 363 363 q 354 279 354 306 q 362 222 354 249 q 388 175 369 194 q 435 144 406 156 q 507 132 464 132 q 663 192 608 132 q 744 371 717 251 l 886 963 l 1063 963 l 917 354 m 550 1264 l 661 1264 q 659 1253 660 1258 q 658 1242 658 1249 q 677 1185 658 1206 q 733 1164 696 1164 q 806 1194 781 1164 q 844 1264 831 1224 l 958 1264 q 928 1173 950 1213 q 876 1107 907 1133 q 804 1067 844 1081 q 721 1053 764 1053 q 594 1098 642 1053 q 546 1219 546 1143 q 550 1264 546 1240 z "},"ŭ":{"ha":788,"x_min":149,"x_max":844,"o":"m 844 726 l 742 294 q 731 231 735 263 q 728 167 728 199 q 734 88 728 126 q 756 11 740 49 l 606 -11 q 591 23 597 4 q 579 61 585 42 q 493 8 544 33 q 374 -18 442 -18 q 269 0 313 -18 q 199 49 226 18 q 160 123 172 81 q 149 213 149 165 q 165 344 149 274 l 257 726 l 425 726 l 335 349 q 317 231 317 276 q 321 189 317 208 q 335 155 325 169 q 365 132 346 140 q 411 124 383 124 q 493 142 457 124 q 560 193 529 161 q 579 315 564 253 l 676 726 l 844 726 m 418 1050 l 529 1050 q 527 1040 528 1044 q 526 1028 526 1035 q 545 971 526 992 q 601 950 564 950 q 674 980 649 950 q 713 1050 699 1010 l 826 1050 q 797 959 818 999 q 744 893 775 919 q 672 853 713 867 q 589 839 632 839 q 462 884 510 839 q 414 1006 414 929 q 418 1050 414 1026 z "},"Ů":{"ha":940,"x_min":179,"x_max":1063,"o":"m 917 354 q 864 196 896 265 q 781 78 832 126 q 658 5 731 31 q 482 -21 585 -21 q 344 1 401 -21 q 250 60 286 22 q 197 149 214 97 q 179 263 179 201 q 184 333 179 294 q 199 408 189 372 l 331 963 l 507 963 l 369 389 q 358 334 363 363 q 354 279 354 306 q 362 222 354 249 q 388 175 369 194 q 435 144 406 156 q 507 132 464 132 q 663 192 608 132 q 744 371 717 251 l 886 963 l 1063 963 l 917 354 m 871 1168 q 858 1104 871 1132 q 824 1057 846 1076 q 775 1027 803 1038 q 717 1017 747 1017 q 658 1027 686 1017 q 610 1057 631 1038 q 576 1104 589 1076 q 564 1168 564 1132 q 576 1231 564 1203 q 610 1278 589 1260 q 658 1308 631 1297 q 717 1318 686 1318 q 775 1308 747 1318 q 824 1278 803 1297 q 858 1231 846 1260 q 871 1168 871 1203 m 785 1168 q 765 1220 785 1201 q 717 1239 744 1239 q 669 1220 689 1239 q 649 1168 649 1201 q 669 1116 649 1135 q 717 1097 689 1097 q 765 1116 744 1097 q 785 1168 785 1135 z "},"ů":{"ha":788,"x_min":149,"x_max":844,"o":"m 844 726 l 742 294 q 731 231 735 263 q 728 167 728 199 q 734 88 728 126 q 756 11 740 49 l 606 -11 q 591 23 597 4 q 579 61 585 42 q 493 8 544 33 q 374 -18 442 -18 q 269 0 313 -18 q 199 49 226 18 q 160 123 172 81 q 149 213 149 165 q 165 344 149 274 l 257 726 l 425 726 l 335 349 q 317 231 317 276 q 321 189 317 208 q 335 155 325 169 q 365 132 346 140 q 411 124 383 124 q 493 142 457 124 q 560 193 529 161 q 579 315 564 253 l 676 726 l 844 726 m 739 956 q 726 892 739 919 q 692 844 714 864 q 643 815 671 825 q 585 804 615 804 q 526 815 554 804 q 478 844 499 825 q 444 892 457 864 q 432 956 432 919 q 444 1019 432 990 q 478 1066 457 1047 q 526 1095 499 1085 q 585 1106 554 1106 q 643 1095 615 1106 q 692 1066 671 1085 q 726 1019 714 1047 q 739 956 739 990 m 653 956 q 633 1008 653 989 q 585 1026 613 1026 q 537 1008 557 1026 q 517 956 517 989 q 537 903 517 922 q 585 885 557 885 q 633 903 613 885 q 653 956 653 922 z "},"Ű":{"ha":940,"x_min":179,"x_max":1075,"o":"m 917 354 q 864 196 896 265 q 781 78 832 126 q 658 5 731 31 q 482 -21 585 -21 q 344 1 401 -21 q 250 60 286 22 q 197 149 214 97 q 179 263 179 201 q 184 333 179 294 q 199 408 189 372 l 331 963 l 507 963 l 369 389 q 358 334 363 363 q 354 279 354 306 q 362 222 354 249 q 388 175 369 194 q 435 144 406 156 q 507 132 464 132 q 663 192 608 132 q 744 371 717 251 l 886 963 l 1063 963 l 917 354 m 990 1311 l 1075 1207 l 857 1022 l 792 1096 l 990 1311 m 726 1313 l 813 1208 l 593 1025 l 529 1097 l 726 1313 z "},"ű":{"ha":788,"x_min":149,"x_max":939,"o":"m 844 726 l 742 294 q 731 231 735 263 q 728 167 728 199 q 734 88 728 126 q 756 11 740 49 l 606 -11 q 591 23 597 4 q 579 61 585 42 q 493 8 544 33 q 374 -18 442 -18 q 269 0 313 -18 q 199 49 226 18 q 160 123 172 81 q 149 213 149 165 q 165 344 149 274 l 257 726 l 425 726 l 335 349 q 317 231 317 276 q 321 189 317 208 q 335 155 325 169 q 365 132 346 140 q 411 124 383 124 q 493 142 457 124 q 560 193 529 161 q 579 315 564 253 l 676 726 l 844 726 m 854 1090 l 939 986 l 721 801 l 656 875 l 854 1090 m 590 1092 l 676 988 l 457 804 l 393 876 l 590 1092 z "},"Ų":{"ha":940,"x_min":179,"x_max":1063,"o":"m 589 -262 q 540 -278 567 -272 q 482 -283 513 -283 q 376 -258 414 -283 q 338 -181 338 -233 q 365 -101 338 -140 q 442 -28 392 -61 l 454 -19 q 328 8 381 -15 q 243 67 276 31 q 194 154 210 104 q 179 263 179 204 q 184 333 179 294 q 199 408 189 372 l 331 963 l 507 963 l 369 389 q 358 334 363 363 q 354 279 354 306 q 362 222 354 249 q 388 175 369 194 q 435 144 406 156 q 507 132 464 132 q 663 192 608 132 q 744 371 717 251 l 886 963 l 1063 963 l 917 354 q 826 131 883 215 q 664 7 769 46 q 619 -13 644 0 q 572 -42 593 -26 q 511 -97 529 -74 q 493 -137 493 -121 q 536 -164 493 -164 q 572 -160 553 -164 q 601 -151 590 -156 l 589 -262 z "},"ų":{"ha":788,"x_min":149,"x_max":844,"o":"m 713 -262 q 663 -278 690 -272 q 606 -283 636 -283 q 499 -258 538 -283 q 461 -181 461 -233 q 488 -101 461 -140 q 565 -28 515 -61 q 584 -15 575 -21 q 601 -3 593 -8 q 589 27 594 11 q 579 61 583 43 q 493 8 544 33 q 374 -18 442 -18 q 269 0 313 -18 q 199 49 226 18 q 160 123 172 81 q 149 213 149 165 q 165 344 149 274 l 257 726 l 425 726 l 335 349 q 317 231 317 276 q 321 189 317 208 q 335 155 325 169 q 365 132 346 140 q 411 124 383 124 q 493 142 457 124 q 560 193 529 161 q 579 315 564 253 l 676 726 l 844 726 l 742 294 q 731 231 735 263 q 728 167 728 199 q 735 85 728 126 q 758 4 742 43 q 649 -81 681 -50 q 617 -137 617 -112 q 660 -164 617 -164 q 695 -160 676 -164 q 725 -151 714 -156 l 713 -262 z "},"Ŵ":{"ha":1289,"x_min":233,"x_max":1475,"o":"m 907 853 q 917 696 911 778 q 932 533 924 614 q 949 374 940 451 q 965 229 957 296 q 1046 391 1004 303 q 1129 574 1088 479 q 1211 767 1171 668 q 1289 963 1251 867 l 1475 963 q 1253 456 1365 694 q 1017 0 1142 217 l 847 0 q 826 147 836 75 q 806 294 815 219 q 790 445 797 368 q 775 606 782 522 q 605 297 689 446 q 426 0 521 147 l 254 0 q 238 240 243 121 q 233 485 233 360 q 250 963 233 713 l 425 963 q 411 698 417 829 q 406 432 406 567 q 406 331 406 382 q 408 229 406 281 q 497 378 451 300 q 588 538 543 457 q 674 699 632 618 q 754 853 717 779 l 907 853 m 931 1306 l 1089 1085 l 1017 1019 l 904 1142 l 740 1022 l 685 1096 l 931 1306 z "},"ŵ":{"ha":1126,"x_min":197,"x_max":1261,"o":"m 678 460 q 618 337 651 400 q 549 213 585 274 q 476 98 513 153 q 410 0 440 43 l 271 0 q 247 146 258 64 q 225 321 235 228 q 208 517 215 414 q 197 726 200 619 l 364 726 q 365 601 364 668 q 370 463 367 533 q 378 325 374 393 q 392 197 383 257 q 469 324 431 257 q 542 460 507 392 q 606 597 576 529 q 658 726 636 665 l 803 726 q 804 606 803 669 q 809 474 806 542 q 817 335 813 406 q 831 197 822 265 q 904 318 867 250 q 976 458 942 386 q 1040 599 1011 529 q 1086 726 1068 669 l 1261 726 q 1190 549 1232 643 q 1094 360 1147 456 q 981 172 1042 264 q 856 0 921 79 l 717 0 q 691 230 701 117 q 678 460 681 343 m 800 1089 l 958 868 l 886 803 l 774 925 l 610 806 l 554 879 l 800 1089 z "},"Ŷ":{"ha":826,"x_min":224,"x_max":1047,"o":"m 531 538 q 698 747 617 642 q 850 963 779 851 l 1047 963 q 939 814 993 886 q 828 670 885 742 q 713 528 772 599 q 589 383 653 457 l 497 0 l 322 0 l 414 383 q 310 673 357 529 q 224 963 264 817 l 410 963 q 464 749 433 856 q 531 538 494 642 m 692 1313 l 850 1092 l 778 1026 l 665 1149 l 501 1029 l 446 1103 l 692 1313 z "},"ŷ":{"ha":686,"x_min":-78,"x_max":810,"o":"m 810 726 q 749 562 782 647 q 674 390 715 476 q 586 219 633 304 q 485 53 539 133 q 401 -65 444 -8 q 308 -164 358 -121 q 196 -233 257 -207 q 57 -260 135 -260 q -20 -250 14 -260 q -78 -228 -54 -240 l -24 -93 q 20 -111 -4 -104 q 74 -118 44 -118 q 188 -84 139 -118 q 278 8 238 -50 q 203 343 233 163 q 163 726 172 524 l 332 726 q 338 597 333 668 q 351 452 343 526 q 369 306 358 378 q 394 172 381 233 q 472 313 436 239 q 539 459 508 386 q 592 601 569 532 q 632 726 615 669 l 810 726 m 558 1089 l 717 868 l 644 803 l 532 925 l 368 806 l 313 879 l 558 1089 z "},"Ź":{"ha":801,"x_min":44,"x_max":976,"o":"m 946 833 q 806 703 889 783 q 633 528 724 622 q 454 335 543 435 q 294 147 365 236 l 793 147 l 758 0 l 44 0 l 71 110 q 159 222 110 161 q 263 346 208 282 q 377 474 318 410 q 494 600 436 539 q 608 716 553 661 q 710 815 663 771 l 263 815 l 297 963 l 976 963 l 946 833 m 771 1325 l 861 1211 l 599 1035 l 531 1118 l 771 1325 z "},"ź":{"ha":650,"x_min":42,"x_max":774,"o":"m 746 611 q 687 558 722 590 q 610 485 651 525 q 522 399 568 444 q 432 308 476 354 q 347 219 388 263 q 276 139 307 175 l 639 139 l 606 0 l 42 0 l 67 101 q 166 224 108 157 q 286 356 224 290 q 410 483 349 422 q 521 588 472 543 l 199 588 l 232 726 l 774 726 l 746 611 m 625 1100 l 715 986 l 453 810 l 385 893 l 625 1100 z "},"Ż":{"ha":801,"x_min":44,"x_max":976,"o":"m 946 833 q 806 703 889 783 q 633 528 724 622 q 454 335 543 435 q 294 147 365 236 l 793 147 l 758 0 l 44 0 l 71 110 q 159 222 110 161 q 263 346 208 282 q 377 474 318 410 q 494 600 436 539 q 608 716 553 661 q 710 815 663 771 l 263 815 l 297 963 l 976 963 l 946 833 m 664 1063 q 601 1084 626 1063 q 576 1146 576 1106 q 609 1226 576 1197 q 682 1256 642 1256 q 744 1233 718 1256 q 769 1169 769 1210 q 760 1125 769 1144 q 736 1092 751 1106 q 702 1070 721 1078 q 664 1063 683 1063 z "},"ż":{"ha":650,"x_min":42,"x_max":774,"o":"m 746 611 q 687 558 722 590 q 610 485 651 525 q 522 399 568 444 q 432 308 476 354 q 347 219 388 263 q 276 139 307 175 l 639 139 l 606 0 l 42 0 l 67 101 q 166 224 108 157 q 286 356 224 290 q 410 483 349 422 q 521 588 472 543 l 199 588 l 232 726 l 774 726 l 746 611 m 522 843 q 460 865 485 843 q 435 926 435 886 q 467 1007 435 978 q 540 1036 500 1036 q 602 1013 576 1036 q 628 950 628 990 q 619 906 628 925 q 594 872 610 886 q 560 851 579 858 q 522 843 542 843 z "},"Ž":{"ha":801,"x_min":44,"x_max":976,"o":"m 946 833 q 806 703 889 783 q 633 528 724 622 q 454 335 543 435 q 294 147 365 236 l 793 147 l 758 0 l 44 0 l 71 110 q 159 222 110 161 q 263 346 208 282 q 377 474 318 410 q 494 600 436 539 q 608 716 553 661 q 710 815 663 771 l 263 815 l 297 963 l 976 963 l 946 833 m 640 1035 l 482 1256 l 554 1321 l 665 1199 l 831 1318 l 885 1244 l 640 1035 z "},"ž":{"ha":650,"x_min":42,"x_max":774,"o":"m 746 611 q 687 558 722 590 q 610 485 651 525 q 522 399 568 444 q 432 308 476 354 q 347 219 388 263 q 276 139 307 175 l 639 139 l 606 0 l 42 0 l 67 101 q 166 224 108 157 q 286 356 224 290 q 410 483 349 422 q 521 588 472 543 l 199 588 l 232 726 l 774 726 l 746 611 m 518 811 l 360 1032 l 432 1097 l 543 975 l 708 1094 l 763 1021 l 518 811 z "},"ſ":{"ha":426,"x_min":-32,"x_max":811,"o":"m 306 153 q 272 19 288 78 q 235 -87 256 -39 q 185 -178 214 -136 q 114 -262 157 -221 l -32 -240 q 17 -173 -6 -207 q 59 -101 40 -139 q 94 -17 78 -62 q 122 83 110 28 l 288 778 q 333 905 304 849 q 403 999 361 961 q 505 1058 446 1038 q 642 1078 564 1078 q 742 1066 697 1078 q 811 1043 788 1054 l 750 911 q 702 927 732 919 q 632 935 672 935 q 561 923 590 935 q 511 890 532 911 q 477 840 490 869 q 456 775 464 810 l 306 153 z "},"Ș":{"ha":732,"x_min":50,"x_max":850,"o":"m 354 128 q 428 135 392 128 q 495 158 465 142 q 543 203 525 175 q 561 275 561 232 q 547 330 561 307 q 510 371 533 353 q 456 405 486 389 q 393 439 426 421 q 324 480 357 457 q 267 532 292 503 q 227 600 242 561 q 213 692 213 639 q 237 809 213 756 q 309 901 261 863 q 427 963 357 940 q 590 985 497 985 q 673 978 633 985 q 747 960 713 971 q 808 938 782 950 q 850 914 835 925 l 774 781 q 692 821 744 804 q 578 838 640 838 q 506 830 540 838 q 447 806 472 822 q 406 765 421 790 q 392 704 392 739 q 402 651 392 672 q 431 615 413 631 q 475 585 450 599 q 529 556 500 572 q 610 508 572 532 q 678 454 649 485 q 724 384 707 424 q 742 289 742 344 q 713 153 742 211 q 631 56 683 94 q 506 -1 578 18 q 347 -21 433 -21 q 242 -12 290 -21 q 157 8 194 -4 q 92 35 119 21 q 50 60 65 49 l 128 197 q 165 175 142 188 q 217 152 188 163 q 281 135 246 142 q 354 128 315 128 m 275 -69 l 418 -69 q 351 -228 404 -176 q 208 -279 299 -279 q 174 -277 192 -279 q 140 -271 156 -275 l 165 -178 q 176 -179 171 -179 q 185 -179 181 -179 q 247 -151 231 -179 q 275 -69 263 -124 z "},"ș":{"ha":608,"x_min":63,"x_max":701,"o":"m 311 118 q 417 140 378 118 q 456 206 456 161 q 431 263 456 242 q 343 314 406 285 q 281 346 310 329 q 232 385 253 363 q 199 437 211 407 q 186 508 186 467 q 265 681 186 617 q 494 744 344 744 q 619 730 564 744 q 701 700 674 715 l 642 569 q 574 597 618 583 q 481 610 529 610 q 434 606 457 610 q 393 592 411 601 q 363 565 375 582 q 351 522 351 547 q 377 470 351 490 q 451 428 403 450 q 529 388 497 407 q 582 344 561 368 q 613 290 603 319 q 622 218 622 260 q 601 123 622 167 q 541 48 581 79 q 443 -1 501 17 q 310 -19 385 -19 q 217 -12 258 -19 q 146 3 176 -6 q 94 22 115 13 q 63 39 74 32 l 122 171 q 151 156 132 165 q 194 139 169 147 q 248 124 218 131 q 311 118 278 118 m 243 -69 l 386 -69 q 319 -228 372 -176 q 176 -279 267 -279 q 142 -277 160 -279 q 108 -271 124 -275 l 133 -178 q 144 -179 139 -179 q 153 -179 149 -179 q 215 -151 199 -179 q 243 -69 231 -124 z "},"Ț":{"ha":808,"x_min":188,"x_max":1013,"o":"m 1013 963 l 976 815 l 690 815 l 494 0 l 319 0 l 515 815 l 229 815 l 264 963 l 1013 963 m 322 -69 l 465 -69 q 399 -228 451 -176 q 256 -279 346 -279 q 221 -277 239 -279 q 188 -271 203 -275 l 213 -178 q 223 -179 218 -179 q 232 -179 228 -179 q 294 -151 278 -179 q 322 -69 310 -124 z "},"ț":{"ha":557,"x_min":118,"x_max":663,"o":"m 303 918 l 478 946 l 425 726 l 663 726 l 629 588 l 392 588 l 322 300 q 313 249 315 269 q 310 213 310 229 q 313 180 310 196 q 327 152 317 164 q 358 133 338 140 q 413 125 378 125 q 485 135 450 125 q 546 156 519 144 l 558 21 q 478 -6 526 7 q 364 -18 429 -18 q 193 34 244 -18 q 142 176 142 86 q 147 245 142 210 q 161 321 151 281 l 303 918 m 253 -69 l 396 -69 q 329 -228 382 -176 q 186 -279 276 -279 q 151 -277 169 -279 q 118 -271 133 -275 l 143 -178 q 153 -179 149 -179 q 163 -179 158 -179 q 224 -151 208 -179 q 253 -69 240 -124 z "},"ȷ":{"ha":383,"x_min":-142,"x_max":450,"o":"m -18 -260 q -84 -252 -50 -260 q -142 -233 -118 -244 l -100 -99 q -62 -111 -83 -106 q -15 -117 -40 -117 q 71 -77 42 -117 q 115 29 100 -37 l 282 726 l 450 726 l 282 26 q 240 -103 264 -49 q 180 -192 215 -157 q 97 -243 144 -226 q -18 -260 49 -260 z "},"ʼ":{"ha":454,"x_min":222,"x_max":479,"o":"m 322 1078 l 479 1078 q 418 910 456 979 q 325 782 381 842 l 222 818 q 290 947 267 888 q 322 1078 314 1007 z "},"ˇ":{"ha":533,"x_min":206,"x_max":608,"o":"m 364 811 l 206 1032 l 278 1097 l 389 975 l 554 1094 l 608 1021 l 364 811 z "},"ˉ":{"ha":507,"x_min":233,"x_max":681,"o":"m 233 876 l 263 997 l 681 997 l 651 876 l 233 876 z "},"˘":{"ha":549,"x_min":207,"x_max":619,"o":"m 211 1050 l 322 1050 q 320 1040 321 1044 q 319 1028 319 1035 q 338 971 319 992 q 394 950 357 950 q 467 980 442 950 q 506 1050 492 1010 l 619 1050 q 590 959 611 999 q 537 893 568 919 q 465 853 506 867 q 382 839 425 839 q 255 884 303 839 q 207 1006 207 929 q 211 1050 207 1026 z "},"˙":{"ha":636,"x_min":217,"x_max":410,"o":"m 304 843 q 242 865 267 843 q 217 926 217 886 q 249 1007 217 978 q 322 1036 282 1036 q 384 1013 358 1036 q 410 950 410 990 q 401 906 410 925 q 376 872 392 886 q 342 851 361 858 q 304 843 324 843 z "},"˚":{"ha":489,"x_min":189,"x_max":496,"o":"m 496 956 q 483 892 496 919 q 449 844 471 864 q 400 815 428 825 q 342 804 372 804 q 283 815 311 804 q 235 844 256 825 q 201 892 214 864 q 189 956 189 919 q 201 1019 189 990 q 235 1066 214 1047 q 283 1095 256 1085 q 342 1106 311 1106 q 400 1095 372 1106 q 449 1066 428 1085 q 483 1019 471 1047 q 496 956 496 990 m 410 956 q 390 1008 410 989 q 342 1026 369 1026 q 294 1008 314 1026 q 274 956 274 989 q 294 903 274 922 q 342 885 314 885 q 390 903 369 885 q 410 956 410 922 z "},"˛":{"ha":481,"x_min":67,"x_max":381,"o":"m 318 -262 q 269 -278 296 -272 q 211 -283 242 -283 q 105 -258 143 -283 q 67 -181 67 -233 q 94 -101 67 -140 q 171 -28 121 -61 q 236 15 208 0 l 381 15 q 351 -4 367 7 q 318 -29 336 -15 q 248 -87 274 -61 q 222 -137 222 -114 q 265 -164 222 -164 q 301 -160 282 -164 q 331 -151 319 -156 l 318 -262 z "},"˝":{"ha":565,"x_min":149,"x_max":694,"o":"m 610 1090 l 694 986 l 476 801 l 411 875 l 610 1090 m 346 1092 l 432 988 l 213 804 l 149 876 l 346 1092 z "},"Ẁ":{"ha":1289,"x_min":233,"x_max":1475,"o":"m 907 853 q 917 696 911 778 q 932 533 924 614 q 949 374 940 451 q 965 229 957 296 q 1046 391 1004 303 q 1129 574 1088 479 q 1211 767 1171 668 q 1289 963 1251 867 l 1475 963 q 1253 456 1365 694 q 1017 0 1142 217 l 847 0 q 826 147 836 75 q 806 294 815 219 q 790 445 797 368 q 775 606 782 522 q 605 297 689 446 q 426 0 521 147 l 254 0 q 238 240 243 121 q 233 485 233 360 q 250 963 233 713 l 425 963 q 411 698 417 829 q 406 432 406 567 q 406 331 406 382 q 408 229 406 281 q 497 378 451 300 q 588 538 543 457 q 674 699 632 618 q 754 853 717 779 l 907 853 m 781 1314 l 986 1096 l 908 1018 l 678 1204 l 781 1314 z "},"ẁ":{"ha":1126,"x_min":197,"x_max":1261,"o":"m 678 460 q 618 337 651 400 q 549 213 585 274 q 476 98 513 153 q 410 0 440 43 l 271 0 q 247 146 258 64 q 225 321 235 228 q 208 517 215 414 q 197 726 200 619 l 364 726 q 365 601 364 668 q 370 463 367 533 q 378 325 374 393 q 392 197 383 257 q 469 324 431 257 q 542 460 507 392 q 606 597 576 529 q 658 726 636 665 l 803 726 q 804 606 803 669 q 809 474 806 542 q 817 335 813 406 q 831 197 822 265 q 904 318 867 250 q 976 458 942 386 q 1040 599 1011 529 q 1086 726 1068 669 l 1261 726 q 1190 549 1232 643 q 1094 360 1147 456 q 981 172 1042 264 q 856 0 921 79 l 717 0 q 691 230 701 117 q 678 460 681 343 m 658 1096 l 864 878 l 786 800 l 556 986 l 658 1096 z "},"Ẃ":{"ha":1289,"x_min":233,"x_max":1475,"o":"m 907 853 q 917 696 911 778 q 932 533 924 614 q 949 374 940 451 q 965 229 957 296 q 1046 391 1004 303 q 1129 574 1088 479 q 1211 767 1171 668 q 1289 963 1251 867 l 1475 963 q 1253 456 1365 694 q 1017 0 1142 217 l 847 0 q 826 147 836 75 q 806 294 815 219 q 790 445 797 368 q 775 606 782 522 q 605 297 689 446 q 426 0 521 147 l 254 0 q 238 240 243 121 q 233 485 233 360 q 250 963 233 713 l 425 963 q 411 698 417 829 q 406 432 406 567 q 406 331 406 382 q 408 229 406 281 q 497 378 451 300 q 588 538 543 457 q 674 699 632 618 q 754 853 717 779 l 907 853 m 996 1318 l 1086 1204 l 824 1028 l 756 1111 l 996 1318 z "},"ẃ":{"ha":1126,"x_min":197,"x_max":1261,"o":"m 678 460 q 618 337 651 400 q 549 213 585 274 q 476 98 513 153 q 410 0 440 43 l 271 0 q 247 146 258 64 q 225 321 235 228 q 208 517 215 414 q 197 726 200 619 l 364 726 q 365 601 364 668 q 370 463 367 533 q 378 325 374 393 q 392 197 383 257 q 469 324 431 257 q 542 460 507 392 q 606 597 576 529 q 658 726 636 665 l 803 726 q 804 606 803 669 q 809 474 806 542 q 817 335 813 406 q 831 197 822 265 q 904 318 867 250 q 976 458 942 386 q 1040 599 1011 529 q 1086 726 1068 669 l 1261 726 q 1190 549 1232 643 q 1094 360 1147 456 q 981 172 1042 264 q 856 0 921 79 l 717 0 q 691 230 701 117 q 678 460 681 343 m 869 1100 l 960 986 l 697 810 l 629 893 l 869 1100 z "},"Ẅ":{"ha":1289,"x_min":233,"x_max":1475,"o":"m 907 853 q 917 696 911 778 q 932 533 924 614 q 949 374 940 451 q 965 229 957 296 q 1046 391 1004 303 q 1129 574 1088 479 q 1211 767 1171 668 q 1289 963 1251 867 l 1475 963 q 1253 456 1365 694 q 1017 0 1142 217 l 847 0 q 826 147 836 75 q 806 294 815 219 q 790 445 797 368 q 775 606 782 522 q 605 297 689 446 q 426 0 521 147 l 254 0 q 238 240 243 121 q 233 485 233 360 q 250 963 233 713 l 425 963 q 411 698 417 829 q 406 432 406 567 q 406 331 406 382 q 408 229 406 281 q 497 378 451 300 q 588 538 543 457 q 674 699 632 618 q 754 853 717 779 l 907 853 m 1035 1058 q 975 1081 999 1058 q 951 1139 951 1103 q 960 1183 951 1163 q 983 1217 969 1203 q 1015 1238 997 1231 q 1051 1246 1033 1246 q 1112 1223 1088 1246 q 1136 1161 1136 1200 q 1127 1120 1136 1139 q 1103 1088 1118 1101 q 1071 1066 1089 1074 q 1035 1058 1053 1058 m 749 1058 q 689 1081 713 1058 q 665 1139 665 1103 q 674 1183 665 1163 q 697 1217 683 1203 q 729 1238 711 1231 q 765 1246 747 1246 q 826 1223 801 1246 q 850 1161 850 1200 q 841 1120 850 1139 q 817 1088 832 1101 q 785 1066 803 1074 q 749 1058 767 1058 z "},"ẅ":{"ha":1126,"x_min":197,"x_max":1261,"o":"m 678 460 q 618 337 651 400 q 549 213 585 274 q 476 98 513 153 q 410 0 440 43 l 271 0 q 247 146 258 64 q 225 321 235 228 q 208 517 215 414 q 197 726 200 619 l 364 726 q 365 601 364 668 q 370 463 367 533 q 378 325 374 393 q 392 197 383 257 q 469 324 431 257 q 542 460 507 392 q 606 597 576 529 q 658 726 636 665 l 803 726 q 804 606 803 669 q 809 474 806 542 q 817 335 813 406 q 831 197 822 265 q 904 318 867 250 q 976 458 942 386 q 1040 599 1011 529 q 1086 726 1068 669 l 1261 726 q 1190 549 1232 643 q 1094 360 1147 456 q 981 172 1042 264 q 856 0 921 79 l 717 0 q 691 230 701 117 q 678 460 681 343 m 910 846 q 850 868 874 846 q 826 926 826 890 q 835 970 826 950 q 858 1004 844 990 q 890 1026 872 1018 q 926 1033 908 1033 q 987 1010 963 1033 q 1011 949 1011 988 q 1002 908 1011 926 q 978 875 993 889 q 946 853 964 861 q 910 846 928 846 m 624 846 q 564 868 588 846 q 540 926 540 890 q 549 970 540 950 q 572 1004 558 990 q 604 1026 586 1018 q 640 1033 622 1033 q 701 1010 676 1033 q 725 949 725 988 q 716 908 725 926 q 692 875 707 889 q 660 853 678 861 q 624 846 642 846 z "},"Ỳ":{"ha":826,"x_min":224,"x_max":1047,"o":"m 531 538 q 698 747 617 642 q 850 963 779 851 l 1047 963 q 939 814 993 886 q 828 670 885 742 q 713 528 772 599 q 589 383 653 457 l 497 0 l 322 0 l 414 383 q 310 673 357 529 q 224 963 264 817 l 410 963 q 464 749 433 856 q 531 538 494 642 m 556 1321 l 761 1103 l 683 1025 l 453 1211 l 556 1321 z "},"ỳ":{"ha":686,"x_min":-78,"x_max":810,"o":"m 810 726 q 749 562 782 647 q 674 390 715 476 q 586 219 633 304 q 485 53 539 133 q 401 -65 444 -8 q 308 -164 358 -121 q 196 -233 257 -207 q 57 -260 135 -260 q -20 -250 14 -260 q -78 -228 -54 -240 l -24 -93 q 20 -111 -4 -104 q 74 -118 44 -118 q 188 -84 139 -118 q 278 8 238 -50 q 203 343 233 163 q 163 726 172 524 l 332 726 q 338 597 333 668 q 351 452 343 526 q 369 306 358 378 q 394 172 381 233 q 472 313 436 239 q 539 459 508 386 q 592 601 569 532 q 632 726 615 669 l 810 726 m 424 1096 l 629 878 l 551 800 l 321 986 l 424 1096 z "},"⁄":{"ha":211,"x_min":-233,"x_max":671,"o":"m 671 963 l -72 0 l -233 0 l 511 963 l 671 963 z "},"⁰":{"ha":504,"x_min":174,"x_max":635,"o":"m 358 526 q 428 553 399 526 q 475 618 457 579 q 501 702 493 657 q 510 783 510 747 q 497 851 510 825 q 450 876 483 876 q 381 850 410 876 q 333 785 351 824 q 307 701 315 746 q 299 621 299 657 q 311 553 299 579 q 358 526 324 526 m 349 418 q 214 470 254 418 q 174 607 174 522 q 192 746 174 678 q 246 867 210 814 q 335 953 282 921 q 458 985 388 985 q 594 933 553 985 q 635 796 635 881 q 617 657 635 725 q 563 535 599 589 q 473 450 526 482 q 349 418 419 418 z "},"⁴":{"ha":504,"x_min":151,"x_max":629,"o":"m 438 649 l 486 849 q 383 755 438 808 q 292 649 329 701 l 438 649 m 515 974 l 629 974 l 551 649 l 618 649 l 594 554 l 528 554 l 497 428 l 383 428 l 414 554 l 151 554 l 169 633 q 238 722 199 676 q 323 812 278 768 q 417 897 368 856 q 515 974 465 939 z "},"⁵":{"ha":504,"x_min":142,"x_max":643,"o":"m 374 772 q 472 751 433 764 q 533 717 511 738 q 565 671 556 697 q 574 611 574 644 q 557 537 574 572 q 508 475 540 501 q 431 433 476 449 q 328 417 386 417 q 235 425 283 417 q 142 457 186 433 l 189 554 q 255 533 219 540 q 326 525 290 525 q 414 542 378 525 q 450 608 450 560 q 401 666 450 649 q 235 689 353 683 q 286 838 260 758 q 329 974 313 917 l 643 974 l 618 867 l 406 867 q 390 819 399 847 q 374 772 382 792 z "},"⁶":{"ha":504,"x_min":181,"x_max":632,"o":"m 181 596 q 210 746 181 676 q 296 867 239 815 q 437 947 353 918 q 632 976 521 976 l 622 875 q 451 847 524 872 q 338 758 378 821 q 389 772 363 768 q 438 776 415 776 q 548 739 508 776 q 588 626 588 701 q 569 542 588 581 q 521 476 551 504 q 449 433 490 449 q 360 417 407 417 q 231 464 281 417 q 181 596 181 511 m 396 688 q 349 682 374 688 q 304 669 324 676 q 293 606 293 636 q 309 540 293 564 q 365 517 325 517 q 444 549 418 517 q 471 619 471 581 q 453 669 471 650 q 396 688 435 688 z "},"⁷":{"ha":504,"x_min":215,"x_max":675,"o":"m 346 428 l 215 428 q 259 544 232 485 q 323 659 286 603 q 403 767 360 715 q 497 863 447 819 l 236 863 l 263 974 l 675 974 l 651 876 q 562 788 608 839 q 473 678 515 738 q 397 556 431 619 q 346 428 363 492 z "},"⁸":{"ha":504,"x_min":167,"x_max":633,"o":"m 351 821 q 372 778 351 796 q 442 743 393 761 q 498 785 474 758 q 522 842 522 813 q 506 876 522 860 q 450 892 490 892 q 379 872 407 892 q 351 821 351 851 m 281 567 q 298 527 281 543 q 361 511 315 511 q 398 515 379 511 q 431 528 417 519 q 456 553 446 538 q 465 590 465 568 q 456 621 465 608 q 431 643 446 633 q 398 659 417 653 q 363 669 379 665 q 303 626 326 654 q 281 567 281 597 m 633 858 q 602 767 633 806 q 524 706 571 729 q 586 600 586 668 q 566 520 586 554 q 513 463 546 486 q 437 428 479 440 q 350 417 394 417 q 215 453 263 417 q 167 547 167 490 q 200 644 167 603 q 292 714 233 686 q 253 755 265 732 q 240 813 240 778 q 258 885 240 853 q 307 939 276 917 q 378 973 338 961 q 461 985 418 985 q 588 949 543 985 q 633 858 633 913 z "},"⁹":{"ha":504,"x_min":176,"x_max":633,"o":"m 190 531 q 238 531 210 529 q 304 540 267 533 q 397 573 351 550 q 475 642 443 596 q 425 629 451 633 q 376 625 399 625 q 265 662 304 625 q 226 774 226 699 q 244 858 226 819 q 293 925 263 897 q 365 969 324 953 q 454 985 407 985 q 583 938 533 985 q 633 806 633 890 q 601 648 633 717 q 512 532 568 579 q 380 458 456 485 q 217 429 304 432 q 196 429 206 429 q 176 431 186 429 l 190 531 m 418 714 q 465 719 440 714 q 510 732 490 725 q 521 796 521 765 q 505 861 521 838 q 449 885 489 885 q 369 853 396 885 q 343 782 343 821 q 361 733 343 751 q 418 714 379 714 z "},"₀":{"ha":504,"x_min":93,"x_max":554,"o":"m 278 100 q 347 126 318 100 q 394 192 376 153 q 421 276 413 231 q 429 357 429 321 q 416 424 429 399 q 369 450 403 450 q 300 424 329 450 q 253 358 271 397 q 226 275 235 319 q 218 194 218 231 q 231 126 218 153 q 278 100 243 100 m 268 -8 q 133 44 174 -8 q 93 181 93 96 q 111 319 93 251 q 165 441 129 388 q 254 526 201 494 q 378 558 307 558 q 513 506 472 558 q 554 369 554 454 q 536 231 554 299 q 482 109 518 163 q 392 24 446 56 q 268 -8 339 -8 z "},"₁":{"ha":504,"x_min":175,"x_max":499,"o":"m 189 333 l 175 433 q 299 485 240 456 q 403 547 358 514 l 499 547 l 368 1 l 239 1 l 332 390 q 263 359 300 374 q 189 333 225 344 z "},"₂":{"ha":504,"x_min":94,"x_max":539,"o":"m 253 108 l 500 108 l 476 1 l 94 1 q 110 85 97 49 q 145 153 122 122 q 202 212 168 185 q 283 267 236 239 q 347 306 321 289 q 388 338 372 322 q 409 367 403 353 q 415 401 415 382 q 399 438 415 425 q 356 450 382 450 q 277 431 314 450 q 213 389 240 413 l 171 478 q 260 535 207 513 q 375 558 313 558 q 494 523 450 558 q 539 418 539 488 q 523 344 539 376 q 479 285 507 313 q 414 231 451 257 q 332 176 376 206 q 285 144 308 161 q 253 108 261 128 z "},"₃":{"ha":504,"x_min":78,"x_max":539,"o":"m 125 129 q 188 104 150 114 q 263 94 225 94 q 311 99 288 94 q 353 113 335 103 q 382 138 371 122 q 393 178 393 154 q 283 239 393 239 l 233 239 l 257 332 l 306 332 q 347 337 326 332 q 385 351 368 342 q 412 375 401 361 q 422 406 422 389 q 351 454 422 454 q 279 443 315 454 q 218 419 243 432 l 194 511 q 277 543 224 528 q 381 558 331 558 q 497 528 456 558 q 539 435 539 497 q 513 350 539 386 q 439 293 486 314 q 491 249 471 278 q 511 179 511 221 q 491 95 511 131 q 436 36 471 60 q 355 1 401 13 q 257 -10 308 -10 q 156 1 201 -10 q 78 32 110 13 l 125 129 z "},"₄":{"ha":504,"x_min":69,"x_max":547,"o":"m 356 222 l 404 422 q 301 328 356 382 q 210 222 247 275 l 356 222 m 433 547 l 547 547 l 469 222 l 536 222 l 513 128 l 446 128 l 415 1 l 301 1 l 332 128 l 69 128 l 88 207 q 156 296 117 250 q 241 385 196 342 q 335 471 286 429 q 433 547 383 513 z "},"₅":{"ha":504,"x_min":56,"x_max":557,"o":"m 288 346 q 386 324 347 338 q 447 291 425 311 q 478 244 469 271 q 488 185 488 218 q 471 110 488 146 q 422 49 454 75 q 345 6 390 22 q 242 -10 300 -10 q 149 -1 197 -10 q 56 31 100 7 l 103 128 q 169 106 133 114 q 240 99 204 99 q 328 116 292 99 q 364 182 364 133 q 315 240 364 222 q 149 263 267 257 q 200 411 174 332 q 243 547 226 490 l 557 547 l 532 440 l 319 440 q 304 393 313 421 q 288 346 296 365 z "},"₆":{"ha":504,"x_min":114,"x_max":565,"o":"m 114 169 q 143 319 114 250 q 229 440 172 389 q 370 521 286 492 q 565 550 454 550 l 556 449 q 384 420 457 446 q 271 332 311 394 q 322 346 296 342 q 371 350 349 350 q 481 313 442 350 q 521 200 521 275 q 503 116 521 154 q 454 50 485 78 q 382 6 424 22 q 293 -10 340 -10 q 164 38 214 -10 q 114 169 114 85 m 329 261 q 282 256 307 261 q 238 243 257 250 q 226 179 226 210 q 242 114 226 138 q 299 90 258 90 q 378 122 351 90 q 404 193 404 154 q 386 242 404 224 q 329 261 368 261 z "},"₇":{"ha":504,"x_min":143,"x_max":603,"o":"m 274 1 l 143 1 q 187 117 160 58 q 251 233 214 176 q 331 341 288 289 q 425 436 375 393 l 164 436 l 190 547 l 603 547 l 579 450 q 490 362 536 413 q 401 252 443 311 q 324 129 358 193 q 274 1 290 65 z "},"₈":{"ha":504,"x_min":92,"x_max":558,"o":"m 276 394 q 297 352 276 369 q 367 317 318 335 q 423 359 399 332 q 447 415 447 386 q 431 449 447 433 q 375 465 415 465 q 304 445 332 465 q 276 394 276 425 m 206 140 q 223 101 206 117 q 286 85 240 85 q 323 89 304 85 q 356 102 342 93 q 381 126 371 111 q 390 164 390 142 q 381 194 390 182 q 356 217 371 207 q 323 233 342 226 q 288 243 304 239 q 228 199 251 228 q 206 140 206 171 m 558 432 q 527 341 558 379 q 449 279 496 303 q 511 174 511 242 q 491 94 511 128 q 438 37 471 60 q 362 2 404 14 q 275 -10 319 -10 q 140 27 188 -10 q 92 121 92 64 q 125 218 92 176 q 217 288 158 260 q 178 328 190 306 q 165 386 165 351 q 183 458 165 426 q 232 513 201 490 q 303 547 263 535 q 386 558 343 558 q 513 522 468 558 q 558 432 558 486 z "},"₉":{"ha":504,"x_min":94,"x_max":551,"o":"m 108 104 q 156 105 128 103 q 222 114 185 107 q 315 147 269 124 q 393 215 361 169 q 343 203 369 207 q 294 199 317 199 q 183 235 222 199 q 144 347 144 272 q 163 432 144 393 q 211 499 181 471 q 283 542 242 526 q 372 558 325 558 q 501 511 451 558 q 551 379 551 464 q 519 222 551 290 q 430 106 486 153 q 298 32 374 58 q 135 3 222 6 q 114 3 124 3 q 94 4 104 3 l 108 104 m 336 288 q 383 293 358 288 q 428 306 408 299 q 439 369 439 339 q 423 435 439 411 q 367 458 407 458 q 288 426 314 458 q 261 356 261 394 q 279 306 261 325 q 336 288 297 288 z "},"ℓ":{"ha":671,"x_min":115,"x_max":740,"o":"m 740 65 q 638 2 696 25 q 504 -21 579 -21 q 392 -3 439 -21 q 315 47 346 15 q 269 125 285 79 q 250 228 254 171 l 174 174 l 115 260 l 249 360 l 249 728 q 268 890 249 824 q 321 999 288 957 q 399 1059 354 1040 q 497 1078 444 1078 q 595 1056 556 1078 q 659 1000 635 1035 q 694 920 683 965 q 704 829 704 875 q 624 572 704 693 q 408 335 544 451 l 408 282 q 536 124 408 124 q 611 141 576 124 q 672 181 646 158 l 740 65 m 408 485 q 537 651 489 564 q 585 832 585 739 q 569 918 585 883 q 504 953 553 953 q 469 944 486 953 q 438 911 451 935 q 417 847 425 888 q 408 742 408 806 l 408 485 z "},"℮":{"ha":1300,"x_min":203,"x_max":1317,"o":"m 414 468 q 407 463 407 468 l 407 189 q 419 158 407 171 q 572 49 486 88 q 760 10 658 10 q 961 55 869 10 q 1119 175 1053 100 l 1199 175 q 1115 95 1163 131 q 1010 35 1067 60 q 889 -4 953 10 q 758 -18 825 -18 q 542 22 643 -18 q 365 128 440 61 q 247 287 290 196 q 203 482 203 378 q 247 677 203 586 q 365 836 290 768 q 542 944 440 904 q 758 983 643 983 q 976 944 874 983 q 1153 836 1078 904 q 1273 677 1229 768 q 1317 482 1317 586 l 1317 468 l 414 468 m 1111 778 q 1099 811 1111 796 q 946 915 1032 878 q 760 953 860 953 q 574 913 661 953 q 421 806 486 872 q 410 791 414 800 q 407 772 407 782 l 407 504 q 414 494 407 494 l 1106 494 q 1111 504 1111 494 l 1111 778 z "},"⅓":{"ha":1219,"x_min":224,"x_max":1221,"o":"m 1128 963 l 385 0 l 224 0 l 968 963 l 1128 963 m 261 760 l 247 860 q 372 911 313 882 q 475 974 431 940 l 571 974 l 440 428 l 311 428 l 404 817 q 335 785 372 800 q 261 760 297 771 m 807 124 q 869 99 832 108 q 944 89 907 89 q 993 93 969 89 q 1035 107 1017 97 q 1064 133 1053 117 q 1075 172 1075 149 q 965 233 1075 233 l 915 233 l 939 326 l 988 326 q 1029 331 1008 326 q 1067 346 1050 336 q 1094 369 1083 356 q 1104 400 1104 383 q 1033 449 1104 449 q 961 438 997 449 q 900 414 925 426 l 876 506 q 959 538 906 522 q 1063 553 1013 553 q 1179 522 1138 553 q 1221 429 1221 492 q 1194 344 1221 381 q 1121 288 1168 308 q 1173 244 1153 272 q 1193 174 1193 215 q 1173 90 1193 125 q 1118 31 1153 54 q 1037 -4 1083 7 q 939 -15 990 -15 q 838 -4 883 -15 q 760 26 792 7 l 807 124 z "},"⅔":{"ha":1219,"x_min":139,"x_max":1235,"o":"m 1175 963 l 432 0 l 271 0 l 1015 963 l 1175 963 m 297 535 l 544 535 l 521 428 l 139 428 q 154 512 142 475 q 190 580 167 549 q 247 638 213 611 q 328 693 281 665 q 391 732 365 715 q 432 764 417 749 q 453 794 447 779 q 460 828 460 808 q 443 864 460 851 q 400 876 426 876 q 322 858 358 876 q 257 815 285 839 l 215 904 q 304 962 251 939 q 419 985 357 985 q 539 949 494 985 q 583 844 583 914 q 567 771 583 803 q 524 711 551 739 q 458 658 496 683 q 376 603 421 632 q 329 571 353 588 q 297 535 306 554 m 821 124 q 883 99 846 108 q 958 89 921 89 q 1007 93 983 89 q 1049 107 1031 97 q 1078 133 1067 117 q 1089 172 1089 149 q 979 233 1089 233 l 929 233 l 953 326 l 1001 326 q 1043 331 1022 326 q 1081 346 1064 336 q 1108 369 1097 356 q 1118 400 1118 383 q 1047 449 1118 449 q 975 438 1011 449 q 914 414 939 426 l 890 506 q 973 538 919 522 q 1076 553 1026 553 q 1193 522 1151 553 q 1235 429 1235 492 q 1208 344 1235 381 q 1135 288 1182 308 q 1187 244 1167 272 q 1207 174 1207 215 q 1187 90 1207 125 q 1132 31 1167 54 q 1051 -4 1097 7 q 953 -15 1004 -15 q 851 -4 897 -15 q 774 26 806 7 l 821 124 z "},"⅛":{"ha":1219,"x_min":235,"x_max":1246,"o":"m 1139 963 l 396 0 l 235 0 l 979 963 l 1139 963 m 254 760 l 240 860 q 365 911 306 882 q 468 974 424 940 l 564 974 l 433 428 l 304 428 l 397 817 q 328 785 365 800 q 254 760 290 771 m 964 394 q 985 352 964 369 q 1054 317 1006 335 q 1110 359 1086 332 q 1135 415 1135 386 q 1119 449 1135 433 q 1063 465 1103 465 q 992 445 1019 465 q 964 394 964 425 m 893 140 q 910 101 893 117 q 974 85 928 85 q 1010 89 992 85 q 1044 102 1029 93 q 1068 126 1058 111 q 1078 164 1078 142 q 1068 194 1078 182 q 1044 217 1058 207 q 1010 233 1029 226 q 975 243 992 239 q 916 199 939 228 q 893 140 893 171 m 1246 432 q 1215 341 1246 379 q 1136 279 1183 303 q 1199 174 1199 242 q 1178 94 1199 128 q 1125 37 1158 60 q 1049 2 1092 14 q 963 -10 1007 -10 q 827 27 875 -10 q 779 121 779 64 q 813 218 779 176 q 904 288 846 260 q 865 328 878 306 q 853 386 853 351 q 871 458 853 426 q 919 513 889 490 q 990 547 950 535 q 1074 558 1031 558 q 1201 522 1156 558 q 1246 432 1246 486 z "},"⅜":{"ha":1219,"x_min":131,"x_max":1260,"o":"m 1168 963 l 425 0 l 264 0 l 1008 963 l 1168 963 m 978 394 q 999 352 978 369 q 1068 317 1019 335 q 1124 359 1100 332 q 1149 415 1149 386 q 1133 449 1149 433 q 1076 465 1117 465 q 1006 445 1033 465 q 978 394 978 425 m 907 140 q 924 101 907 117 q 988 85 942 85 q 1024 89 1006 85 q 1058 102 1043 93 q 1082 126 1072 111 q 1092 164 1092 142 q 1082 194 1092 182 q 1058 217 1072 207 q 1024 233 1043 226 q 989 243 1006 239 q 930 199 953 228 q 907 140 907 171 m 1260 432 q 1228 341 1260 379 q 1150 279 1197 303 q 1213 174 1213 242 q 1192 94 1213 128 q 1139 37 1172 60 q 1063 2 1106 14 q 976 -10 1021 -10 q 841 27 889 -10 q 793 121 793 64 q 826 218 793 176 q 918 288 860 260 q 879 328 892 306 q 867 386 867 351 q 885 458 867 426 q 933 513 903 490 q 1004 547 964 535 q 1088 558 1044 558 q 1215 522 1169 558 q 1260 432 1260 486 m 178 556 q 240 531 203 540 q 315 521 278 521 q 364 525 340 521 q 406 539 388 529 q 435 565 424 549 q 446 604 446 581 q 336 665 446 665 l 286 665 l 310 758 l 358 758 q 400 763 379 758 q 438 778 421 768 q 465 801 454 788 q 475 832 475 815 q 404 881 475 881 q 332 869 368 881 q 271 846 296 858 l 247 938 q 330 969 276 954 q 433 985 383 985 q 550 954 508 985 q 592 861 592 924 q 565 776 592 813 q 492 719 539 740 q 544 676 524 704 q 564 606 564 647 q 544 522 564 557 q 489 463 524 486 q 408 428 454 439 q 310 417 361 417 q 208 428 254 417 q 131 458 163 439 l 178 556 z "},"⅝":{"ha":1219,"x_min":139,"x_max":1253,"o":"m 1161 963 l 418 0 l 257 0 l 1001 963 l 1161 963 m 371 772 q 469 751 431 764 q 531 717 508 738 q 562 671 553 697 q 571 611 571 644 q 554 537 571 572 q 506 475 538 501 q 428 433 474 449 q 325 417 383 417 q 232 425 281 417 q 139 457 183 433 l 186 554 q 252 533 217 540 q 324 525 288 525 q 411 542 375 525 q 447 608 447 560 q 399 666 447 649 q 232 689 350 683 q 283 838 257 758 q 326 974 310 917 l 640 974 l 615 867 l 403 867 q 388 819 396 847 q 371 772 379 792 m 971 394 q 992 352 971 369 q 1061 317 1013 335 q 1117 359 1093 332 q 1142 415 1142 386 q 1126 449 1142 433 q 1069 465 1110 465 q 999 445 1026 465 q 971 394 971 425 m 900 140 q 917 101 900 117 q 981 85 935 85 q 1017 89 999 85 q 1051 102 1036 93 q 1075 126 1065 111 q 1085 164 1085 142 q 1075 194 1085 182 q 1051 217 1065 207 q 1017 233 1036 226 q 982 243 999 239 q 923 199 946 228 q 900 140 900 171 m 1253 432 q 1222 341 1253 379 q 1143 279 1190 303 q 1206 174 1206 242 q 1185 94 1206 128 q 1132 37 1165 60 q 1056 2 1099 14 q 969 -10 1014 -10 q 834 27 882 -10 q 786 121 786 64 q 819 218 786 176 q 911 288 853 260 q 872 328 885 306 q 860 386 860 351 q 878 458 860 426 q 926 513 896 490 q 997 547 957 535 q 1081 558 1038 558 q 1208 522 1163 558 q 1253 432 1253 486 z "},"⅞":{"ha":1219,"x_min":221,"x_max":1246,"o":"m 1125 963 l 382 0 l 221 0 l 965 963 l 1125 963 m 964 394 q 985 352 964 369 q 1054 317 1006 335 q 1110 359 1086 332 q 1135 415 1135 386 q 1119 449 1135 433 q 1063 465 1103 465 q 992 445 1019 465 q 964 394 964 425 m 893 140 q 910 101 893 117 q 974 85 928 85 q 1010 89 992 85 q 1044 102 1029 93 q 1068 126 1058 111 q 1078 164 1078 142 q 1068 194 1078 182 q 1044 217 1058 207 q 1010 233 1029 226 q 975 243 992 239 q 916 199 939 228 q 893 140 893 171 m 1246 432 q 1215 341 1246 379 q 1136 279 1183 303 q 1199 174 1199 242 q 1178 94 1199 128 q 1125 37 1158 60 q 1049 2 1092 14 q 963 -10 1007 -10 q 827 27 875 -10 q 779 121 779 64 q 813 218 779 176 q 904 288 846 260 q 865 328 878 306 q 853 386 853 351 q 871 458 853 426 q 919 513 889 490 q 990 547 950 535 q 1074 558 1031 558 q 1201 522 1156 558 q 1246 432 1246 486 m 363 428 l 232 428 q 276 544 249 485 q 340 659 303 603 q 420 767 376 715 q 514 863 464 819 l 253 863 l 279 974 l 692 974 l 668 876 q 578 788 625 839 q 490 678 532 738 q 413 556 447 619 q 363 428 379 492 z "},"⅕":{"ha":1219,"x_min":235,"x_max":1249,"o":"m 1139 963 l 396 0 l 235 0 l 979 963 l 1139 963 m 261 760 l 247 860 q 372 911 313 882 q 475 974 431 940 l 571 974 l 440 428 l 311 428 l 404 817 q 335 785 372 800 q 261 760 297 771 m 979 340 q 1078 319 1039 332 q 1139 285 1117 306 q 1170 239 1161 265 q 1179 179 1179 213 q 1163 105 1179 140 q 1114 43 1146 69 q 1037 1 1082 17 q 933 -15 992 -15 q 840 -7 889 -15 q 747 25 792 1 l 794 122 q 860 101 825 108 q 932 93 896 93 q 1019 110 983 93 q 1056 176 1056 128 q 1007 234 1056 217 q 840 257 958 251 q 892 406 865 326 q 935 542 918 485 l 1249 542 l 1224 435 l 1011 435 q 996 388 1004 415 q 979 340 988 360 z "}}}
